<?xml version="1.0" standalone="no"?>
<!DOCTYPE svg PUBLIC "-//W3C//DTD SVG 1.1//EN" "http://www.w3.org/Graphics/SVG/1.1/DTD/svg11.dtd" >
<svg>
<metadata>
Created by FontForge 20120731 at Sat Jun 29 16:31:18 2019
 By www
(c) 2006 Microsoft Corporation. All rights reserved.
</metadata>
<defs>
<font id="ComicSansMS" horiz-adv-x="1065" >
  <font-face 
    font-family="Comic Sans MS"
    font-weight="400"
    font-stretch="normal"
    units-per-em="2048"
    panose-1="3 15 7 2 3 3 2 2 2 4"
    ascent="1638"
    descent="-410"
    x-height="1037"
    cap-height="1568"
    bbox="-190 -639 2430 2257"
    underline-thickness="175"
    underline-position="-185"
    unicode-range="U+0020-FB02"
  />
    <missing-glyph />
    <glyph glyph-name="glyph0" horiz-adv-x="1024" 
d="M128 0v1638h768v-1638h-768zM256 128h512v1382h-512v-1382z" />
    <glyph glyph-name="glyph1" horiz-adv-x="0" 
 />
    <glyph glyph-name="glyph2" horiz-adv-x="975" 
 />
    <glyph glyph-name="space" unicode=" " horiz-adv-x="612" 
 />
    <glyph glyph-name="exclam" unicode="!" horiz-adv-x="487" 
d="M331 1516v-1113q0 -89 -89 -89t-89 89q0 41 -2.5 122.5t-2.5 121.5q0 145 2.5 434.5t2.5 434.5q0 89 89 89t89 -89zM332 23q0 -36 -28.5 -62.5t-64.5 -26.5q-40 0 -80 52q-39 49 -39 90q0 36 28.5 62t65.5 26q39 0 80 -52q38 -49 38 -89z" />
    <glyph glyph-name="quotedbl" unicode="&#x22;" horiz-adv-x="869" 
d="M294 1116q0 -17 5 -49.5t5 -48.5q0 -37 -27 -61.5t-65 -24.5q-96 0 -96 171q0 66 3 198t3 198q0 39 25 64t64 25t64 -25t25 -64q0 -64 -3 -191.5t-3 -191.5zM687 1495q0 -16 -3 -45t-3 -42l-9 -390q-2 -90 -89 -90q-38 0 -64 25t-25 63l9 397q2 79 13 111q21 60 82 60
q39 0 64 -25.5t25 -63.5z" />
    <glyph glyph-name="numbersign" unicode="#" horiz-adv-x="1726" 
d="M552 577h500l113 415h-488zM365 577l122 415h-267q-95 0 -95 100q0 76 148 76h264q26 116 79 316q29 92 117 92q33 0 54.5 -26.5t21.5 -58.5q0 -40 -26 -132q-44 -159 -51 -191h485q34 121 93 323q26 85 98 85q84 0 84 -78q0 -68 -83 -330h195q102 0 102 -75
q0 -105 -113 -105q-15 0 -46.5 2t-46.5 2h-146l-106 -415h204q73 0 103 -11q52 -20 52 -80q0 -92 -87 -92h-322l-90 -325q-27 -97 -112 -97q-82 0 -82 79q0 59 33 172q46 157 49 171h-500q-30 -117 -105 -344q-29 -71 -98 -71q-80 0 -80 79q0 39 23 113q35 112 70 223h-191
q-83 0 -83 99q0 39 34 63q29 21 70 21h229z" />
    <glyph glyph-name="dollar" unicode="$" horiz-adv-x="1420" 
d="M588 887v359q-199 -75 -199 -232q0 -97 199 -127zM766 676v-520q106 36 177 106q79 80 79 173q0 174 -256 241zM766 1636v-169h4q96 0 219 -33q161 -43 161 -110q0 -88 -89 -88q-40 0 -140.5 21.5t-154.5 20.5v-407q221 -20 346 -145q114 -116 114 -280q0 -201 -139 -333
q-123 -116 -321 -153v-266q0 -39 -25.5 -64.5t-64.5 -25.5q-88 0 -88 88v255q-488 7 -488 253q0 90 83 90q47 0 90 -37q64 -55 97 -72q80 -40 218 -46v567h-8q-155 6 -268 76q-140 86 -140 239q0 137 128 258q118 112 288 163v192q0 39 26.5 65t65.5 26q86 0 86 -85z" />
    <glyph glyph-name="percent" unicode="%" horiz-adv-x="1680" 
d="M443 1041q-140 0 -221 97q-75 91 -75 232q0 98 102 187q98 85 197 85q145 0 231 -96q82 -93 82 -239q0 -122 -102 -197q-91 -69 -214 -69zM1234 1468q-37 -60 -79 -159l-71 -162l-198 -425l-224 -472q-31 -77 -101 -227q-28 -53 -75 -53q-33 0 -59.5 23.5t-26.5 58.5
q0 15 6 33q49 135 158 353q129 257 168 349l270 600q54 133 99 182q31 34 64 34q34 0 60.5 -25.5t26.5 -59.5q0 -22 -18 -50zM1260 -19q-136 0 -226 81q-94 85 -94 221q0 148 84 245q88 104 234 104q136 0 238 -76q113 -85 113 -218q0 -153 -98 -255t-251 -102zM443 1474
q-46 0 -86 -30q-43 -33 -43 -74q0 -80 32.5 -120.5t96.5 -40.5q54 0 98 24q50 28 50 74q0 84 -37 125.5t-111 41.5zM1258 464q-72 0 -113 -54q-37 -50 -37 -127q0 -67 43.5 -101t130.5 -34q80 0 119.5 47.5t39.5 142.5q0 58 -62 95q-54 31 -121 31z" />
    <glyph glyph-name="ampersand" unicode="&#x26;" horiz-adv-x="1340" 
d="M684 1084q128 106 128 210q0 46 -15.5 68.5t-46.5 22.5q-18 0 -54.5 -63.5t-36.5 -84.5q0 -67 25 -153zM608 811q-172 -115 -234 -177q-121 -121 -121 -255q0 -109 87 -178q81 -63 193 -63q202 0 349 171q-76 113 -274 502zM481 1237q0 100 83 210q89 117 186 117
q114 0 179 -80q61 -73 61 -190q0 -203 -241 -384q77 -169 237 -425q20 55 30 114q16 102 23 127q26 82 80 82q42 0 66 -45q20 -37 20 -83q0 -203 -104 -376q167 -262 167 -311q0 -36 -28.5 -61.5t-64.5 -25.5q-45 0 -77 51l-115 199q-201 -196 -450 -196q-187 0 -319 115
q-139 120 -139 304q0 194 147 353q85 92 310 242q-51 135 -51 263z" />
    <glyph glyph-name="quotesingle" unicode="'" horiz-adv-x="795" 
d="M462 1446q0 -30 5 -89t5 -89q0 -128 -90 -128q-62 0 -79 44q-8 23 -8 95q0 28 -5.5 83.5t-5.5 83.5q0 100 8 135q20 79 88 79q38 0 64 -24.5t26 -62.5q0 -21 -4 -63.5t-4 -63.5z" />
    <glyph glyph-name="parenleft" unicode="(" horiz-adv-x="750" 
d="M696 1513q0 -35 -62 -102q-46 -46 -91 -92q-111 -126 -174 -360q-55 -204 -55 -401q0 -508 230 -745q46 -36 93 -72q58 -46 58 -91q0 -33 -26 -57.5t-60 -24.5q-30 0 -72 23q-423 237 -423 990q0 271 109 549q122 309 320 448q40 28 63 28q36 0 63 -28.5t27 -64.5z" />
    <glyph glyph-name="parenright" unicode=")" horiz-adv-x="750" 
d="M696 581q0 -753 -424 -990q-41 -23 -71 -23q-34 0 -60 24.5t-26 57.5q0 45 58 91q46 36 93 72q230 237 230 745q0 197 -55 401q-64 234 -174 360q-46 46 -91 92q-62 67 -62 102q0 36 26.5 64.5t62.5 28.5q23 0 64 -28q198 -139 320 -448q109 -278 109 -549z" />
    <glyph glyph-name="asterisk" unicode="*" horiz-adv-x="1085" 
d="M47 1315q0 37 26 66t62 29q24 0 271 -97q-8 139 -8 192q0 39 25.5 64t63.5 25q39 0 64.5 -25t25.5 -64q0 -55 6 -169q240 36 294 36q37 0 61.5 -26.5t24.5 -64.5q0 -70 -75 -86q-70 -15 -247 -36q58 -53 126 -136q89 -110 89 -153q0 -36 -28 -62.5t-64 -26.5
q-38 0 -69 36q-61 82 -199 235q-206 -233 -279 -233q-36 0 -63.5 28t-27.5 64q0 34 32 66q64 54 186 173q-82 26 -240 87q-57 25 -57 78z" />
    <glyph glyph-name="plus" unicode="+" horiz-adv-x="984" 
d="M913 643q0 -37 -24.5 -64.5t-61.5 -27.5q-12 0 -36 4t-37 4l-100 -2q-61 -2 -100 0v-235q0 -90 -89 -90q-44 0 -66.5 22.5t-22.5 67.5l-1 115l-1 116q-121 -7 -171 -7q-155 0 -155 92q0 65 55 81q19 5 100 5q50 0 171 7l-1 117q0 91 9 126q10 36 31 54t54 18
q38 0 64.5 -24.5t26.5 -62.5q0 -17 -3.5 -54t-3.5 -56l1 -114l75 -3q20 0 61 2.5t61 2.5q164 0 164 -94z" />
    <glyph glyph-name="comma" unicode="," horiz-adv-x="567" 
d="M285 -344q-35 0 -61 27t-26 62q0 29 62 172q54 124 83 177q26 48 69 48q36 0 61.5 -27.5t25.5 -62.5q0 -24 -142 -342q-23 -54 -72 -54z" />
    <glyph glyph-name="hyphen" unicode="-" horiz-adv-x="853" 
d="M679 475q-136 -14 -484 -14q-84 0 -84 78t84 78q79 0 237 7t237 7q89 0 89 -78q0 -69 -79 -78z" />
    <glyph glyph-name="period" unicode="." horiz-adv-x="510" 
d="M267 -93q-52 0 -88 36t-36 88q0 51 36 87.5t88 36.5q51 0 87.5 -36.5t36.5 -87.5q0 -52 -36.5 -88t-87.5 -36z" />
    <glyph glyph-name="slash" unicode="/" horiz-adv-x="1048" 
d="M177 -90q-37 0 -65 25t-28 62q0 16 7 34q78 215 294 619.5t295 620.5q131 358 198 355q37 -1 65 -26.5t28 -61.5q0 -23 -11 -55l-112 -272q-67 -185 -191 -427l-218 -414l-181 -401q-27 -59 -81 -59z" />
    <glyph glyph-name="zero" unicode="0" horiz-adv-x="1250" 
d="M611 -39q-304 0 -444 278q-106 214 -106 557q0 290 138 506q163 253 443 253q263 0 410 -224q127 -194 127 -473q0 -448 -142 -672.5t-426 -224.5zM641 1362q-186 0 -295 -189q-91 -158 -91 -361q0 -329 89 -494t267 -165q212 0 304 242q64 168 64 426q0 271 -84.5 406
t-253.5 135z" />
    <glyph glyph-name="one" unicode="1" horiz-adv-x="922" 
d="M704 -1h-199l-198 1q-70 0 -98 9q-51 18 -51 76q0 101 157 101l48 -1l41 -2q0 48 -8.5 142t-8.5 141q0 127 23 386q22 255 21 387q-134 -104 -171 -104q-40 0 -69.5 30t-29.5 69q0 47 86 114q54 38 153 122q88 89 168 89q67 0 67 -77q0 -23 -6 -68.5t-6 -68.5
q0 -33 3.5 -100t3.5 -100q0 -114 -24 -340t-24 -339q0 -58 8 -141t9 -136l105 2q42 0 69.5 -27.5t27.5 -68.5q0 -42 -27.5 -69t-69.5 -27z" />
    <glyph glyph-name="two" unicode="2" horiz-adv-x="1250" 
d="M1008 -2q-25 0 -70.5 15.5t-69.5 15.5q-51 0 -153 -6t-154 -6q-39 0 -115.5 -10t-115.5 -10q-11 0 -32 4t-32 4q-69 0 -90 67q-12 35 -12 120q0 233 127 375q58 65 313 240q143 98 191 153q86 96 86 225q0 64 -83 114q-73 45 -143 45q-92 0 -175 -53l-143 -112
q-43 -34 -69 -34q-103 0 -103 82q0 47 38 81q117 110 203 159q121 69 249 69q162 0 289 -88q142 -99 142 -254q0 -102 -29 -188t-88 -157q-75 -90 -254 -201q-188 -118 -247 -179q-111 -115 -109 -279l206 19q212 12 303 12q76 0 144 -26q90 -35 90 -97q0 -39 -27 -69.5
t-67 -30.5z" />
    <glyph glyph-name="three" unicode="3" horiz-adv-x="1250" 
d="M605 -46q-151 0 -271 63q-135 73 -182 205q-6 18 -6 35q0 40 30.5 66.5t70.5 26.5t69 -37l46 -69q36 -49 97 -73.5t146 -24.5q109 0 191 68q87 72 87 176q0 151 -111 241q-98 78 -260 95q-111 11 -111 90q0 59 87 90l239 59q69 25 104 67.5t36 103.5q2 88 -68 142
q-73 56 -205 56q-68 0 -132 -33l-113 -71q-33 -21 -53 -21q-40 0 -68.5 30.5t-28.5 69.5q0 79 153 152q133 65 219 65q215 0 341 -95q135 -102 135 -291q0 -235 -190 -310q-17 -7 -39 -14q133 -49 199 -146.5t66 -243.5q0 -197 -139 -334.5t-339 -137.5z" />
    <glyph glyph-name="four" unicode="4" horiz-adv-x="1250" 
d="M964 437v-370q0 -93 -91 -93q-106 0 -106 145q0 18 2 51t2 45l-1 227l-441 11q-137 0 -190 9q-91 15 -91 71q0 45 55 114l86 102l492 718q67 93 170 93q113 0 113 -98v-831q17 1 41 1q184 0 184 -99q0 -72 -76 -91q-34 -9 -149 -5zM770 1283q-267 -426 -417 -638l417 -10
v648z" />
    <glyph glyph-name="five" unicode="5" horiz-adv-x="1250" 
d="M562 -63q-284 0 -418 210q-18 29 -18 56q0 39 31 67.5t70 28.5q41 0 78 -44q53 -64 80 -82q65 -44 177 -44q173 0 287 132q109 126 109 303q0 146 -48 237q-62 115 -191 115q-107 0 -175 -29q-54 -23 -109 -79l-109 -119q-44 -45 -90 -45q-40 0 -68 28.5t-28 68.5
q0 20 16 178q34 315 34 414q0 35 -17.5 76.5t-17.5 61.5q0 61 105 61q20 0 60.5 -3.5t60.5 -3.5q58 0 174 4t174 4q27 0 82 -2t82 -2q19 0 55 7.5t54 7.5q39 0 69 -29t30 -67q0 -112 -237 -112q-31 0 -78 2t-57 2l-169 -3l-169 -5q0 -45 -37 -333q137 109 365 109
q220 0 336 -172q98 -146 98 -372q0 -270 -158 -445q-164 -182 -433 -182z" />
    <glyph glyph-name="six" unicode="6" horiz-adv-x="1250" 
d="M597 -72q-261 0 -384 191q-102 157 -102 419q0 494 401 857l94 95q69 66 104 66q40 0 70 -28.5t31 -67.5q2 -36 -102 -139l-204 -199q-81 -82 -139 -248q87 40 152 59.5t107 19.5q234 0 359 -125t125 -353q0 -239 -135 -390q-141 -157 -377 -157zM597 749q-86 0 -154 -30
q-26 -12 -131 -77q-6 -53 -6 -104q0 -179 60 -292q76 -144 237 -144q151 0 234 108q77 100 77 265q0 137 -79 205.5t-238 68.5z" />
    <glyph glyph-name="seven" unicode="7" horiz-adv-x="1250" 
d="M1154 1306l-91 -106q-130 -152 -239 -368l-182 -399q-19 -44 -84 -231q-52 -148 -97 -221q-28 -47 -80 -47q-40 0 -70.5 28t-30.5 67q0 38 64 195l225 551q149 327 306 504l19 21l-502 10l-225 6q-97 9 -97 96q0 42 28 69t70 27q126 0 378.5 -8t378.5 -8h183
q106 0 106 -63q0 -47 -60 -123z" />
    <glyph glyph-name="eight" unicode="8" horiz-adv-x="1250" 
d="M614 -54q-211 0 -341 92q-148 104 -151 305q-4 323 227 440q-178 108 -178 307q0 189 137 314q131 120 318 122q420 4 420 -415q0 -120 -48 -185q-39 -54 -151 -111q149 -75 209 -162q70 -102 70 -281q0 -204 -151 -320q-140 -106 -361 -106zM623 1347q-129 0 -197 -73
q-61 -68 -60 -184q1 -140 230 -199q120 35 172 70q83 56 83 150q0 136 -61 191q-52 45 -167 45zM605 714q-159 -74 -212 -128q-83 -83 -78 -234q4 -125 115 -187q81 -44 184 -44q176 0 246 83q56 66 56 200q0 131 -102 211q-68 55 -209 99z" />
    <glyph glyph-name="nine" unicode="9" horiz-adv-x="1250" 
d="M784 121q-73 -54 -234 -130q-179 -86 -249 -86q-41 0 -67.5 30t-26.5 70q0 59 68 89l167 57q155 63 245 145t164 233l43 86q-56 -32 -144 -59t-143 -27q-189 0 -327 105q-168 128 -168 364q0 279 172 419q147 119 386 119q184 0 330 -150q154 -159 155 -384
q1 -254 -94 -493q-102 -258 -277 -388zM642 1365q-168 0 -252.5 -87t-85.5 -262q0 -147 103 -228q91 -71 229 -71q80 0 167 48q40 22 144 99q13 87 13 138q-1 125 -105.5 244t-212.5 119z" />
    <glyph glyph-name="colon" unicode=":" horiz-adv-x="612" 
d="M414 226q0 -45 -29 -74t-74 -29t-73 29q-29 29 -29 74q0 19 -6.5 55.5t-6.5 54.5q0 42 31.5 70t74.5 28q112 0 112 -208zM397 956q0 -45 -28.5 -74t-73.5 -29t-74 29t-29 74q0 12 -4.5 36.5t-4.5 37.5q0 43 30 71t74 28q110 0 110 -173z" />
    <glyph glyph-name="semicolon" unicode=";" horiz-adv-x="612" 
d="M411 950q0 -44 -29 -73t-73 -29t-73 29t-29 73q0 13 -5 37.5t-5 36.5q0 43 30.5 71.5t73.5 28.5q110 0 110 -174zM171 -194q-90 0 -90 94q0 65 86 192q89 132 147 132q36 0 64 -27t28 -63t-70 -118q-72 -86 -77 -125q-10 -85 -88 -85z" />
    <glyph glyph-name="semicolon" unicode="&#x37e;" horiz-adv-x="612" 
d="M411 950q0 -44 -29 -73t-73 -29t-73 29t-29 73q0 13 -5 37.5t-5 36.5q0 43 30.5 71.5t73.5 28.5q110 0 110 -174zM171 -194q-90 0 -90 94q0 65 86 192q89 132 147 132q36 0 64 -27t28 -63t-70 -118q-72 -86 -77 -125q-10 -85 -88 -85z" />
    <glyph glyph-name="less" unicode="&#x3c;" horiz-adv-x="781" 
d="M298 614q56 -41 138 -127q97 -101 133 -132t36 -68t-27 -65t-63 -28q-28 0 -56 21q-40 29 -171 166q-100 105 -193 141q-76 28 -76 83q0 50 69 83q93 45 204 162q155 162 184.5 186.5t59.5 24.5q36 0 63.5 -27.5t27.5 -64.5q0 -34 -30 -64q-96 -102 -299 -291z" />
    <glyph glyph-name="equal" unicode="=" horiz-adv-x="1045" 
d="M324 999l467 -1q89 0 89 -89t-89 -89l-468 1q-23 0 -68.5 -2.5t-67.5 -2.5q-39 0 -63.5 26t-24.5 64q0 72 84 88q22 5 141 5zM381 462q66 0 198 -3t198 -3q89 0 89 -89t-89 -89q-66 0 -198 3t-198 3q-30 0 -90 -4t-89 -4q-92 0 -92 89q0 82 86 89q111 8 185 8z" />
    <glyph glyph-name="greater" unicode="&#x3e;" horiz-adv-x="781" 
d="M736 663q0 -36 -37 -71q-238 -221 -499 -388q-28 -18 -53 -18q-36 0 -62.5 28.5t-26.5 64.5q0 40 39 70l388 296q-89 59 -220 181q-160 151 -160 209q0 36 28 63t64 27q37 0 67 -34q228 -255 413 -351q59 -30 59 -77z" />
    <glyph glyph-name="question" unicode="?" horiz-adv-x="1073" 
d="M371 308q-41 0 -72 31.5t-31 71.5q0 69 128 170l239 180q129 111 129 203q0 116 -109 214q-105 95 -223 95q-63 0 -160 -64.5t-120 -64.5q-41 0 -70.5 33t-29.5 74q0 79 153 157q137 70 227 70q201 0 365 -157t164 -357q0 -146 -94 -259q-56 -68 -208 -176
q-153 -111 -213 -180q-35 -41 -75 -41zM316 -72q-44 0 -79.5 29.5t-35.5 71.5q0 62 33 112q37 56 95 56q96 0 96 -118q0 -55 -26 -99q-32 -52 -83 -52z" />
    <glyph glyph-name="at" unicode="@" horiz-adv-x="1907" 
d="M1306 412q-106 0 -183 31t-124 92q-54 -53 -105.5 -80t-100.5 -27q-111 0 -209.5 90.5t-98.5 198.5q0 185 145.5 338t330.5 153q42 0 70 -31t28 -75q0 -60 -100 -89q-133 -38 -188 -87q-81 -71 -81 -209q0 -29 27 -56q31 -30 77 -28q87 4 161 162q67 138 119 138
q42 0 68 -31t26 -76q0 -20 -6.5 -60t-6.5 -60q0 -65 56 -82q22 -7 95 -7q137 0 192 67q50 60 50 199q0 245 -197 400q-180 142 -430 142q-291 0 -456 -220q-149 -196 -149 -493q0 -274 175 -462q182 -196 468 -196q81 0 183 31l175 65q44 16 57 16q41 0 71 -32.5t30 -75.5
q0 -95 -213 -154q-161 -44 -301 -44q-141 0 -288.5 54.5t-252.5 145.5q-310 268 -310 652t212 642q225 276 599 276q338 0 579 -203q253 -215 253 -544q0 -225 -110 -346q-115 -125 -337 -125z" />
    <glyph glyph-name="A" unicode="A" horiz-adv-x="1498" 
d="M1250 -30q-92 0 -160 236q-26 90 -65 315q-102 -14 -267 -50l-266 -55q-50 -131 -171 -383q-32 -56 -87 -56q-40 0 -71.5 29t-31.5 72q0 48 151 365q-17 26 -17 60q0 81 98 104q114 214 288 492q237 379 295 379q79 0 108 -110l63 -336l149 -695l57 -158q29 -81 29 -108
q0 -43 -31 -72t-71 -29zM897 1113l-286 -461q121 31 367 75z" />
    <glyph glyph-name="B" unicode="B" horiz-adv-x="1291" 
d="M886 40q-225 -88 -575 -88q-43 0 -81.5 40.5t-38.5 83.5v291q0 143 18 408q20 286 22 414q-1 92 11 274q7 50 33 66q136 42 309 42q176 0 338 -120q187 -138 187 -341q0 -257 -200 -405q150 -64 224.5 -142t74.5 -170q0 -121 -131 -234q-91 -80 -191 -119zM584 1367
q-109 0 -153 -7l-2 -175l-20 -387q142 -12 152 -11q151 12 247 94q103 89 103 229q0 95 -105 176t-222 81zM696 566l-106 17q-13 0 -39.5 -1.5t-40.5 -1.5q-54 0 -115 9q-6 -126 -6 -225v-207q262 9 427 74q70 27 134 84q61 52 61 78q0 47 -128 106q-96 45 -187 67z" />
    <glyph glyph-name="C" unicode="C" horiz-adv-x="1234" 
d="M1104 1122q-64 0 -96 75q-28 64 -52 78q-21 11 -104 11q-145 0 -322 -222q-240 -298 -240 -565q0 -129 83 -222q85 -96 205 -96q103 0 207 53q58 30 178 118q57 42 86 42q43 0 72 -32.5t29 -72.5q0 -45 -38 -79q-264 -234 -534 -234q-207 0 -350 159q-138 154 -138 364
q0 339 284 695q237 297 478 297q49 0 88 -4.5t69 -14.5q35 51 91 51q69 0 87 -91q16 -81 16 -199q0 -41 -22 -72q-27 -39 -77 -39z" />
    <glyph glyph-name="D" unicode="D" horiz-adv-x="1478" 
d="M1076 7q-155 -106 -445 -106q-73 0 -167 23q-113 27 -170 70h-10q-43 0 -72 30t-29 73q0 105 9.5 314.5t9.5 314.5q0 117 -4.5 349.5t-4.5 349.5q0 41 42 86t84 45q24 0 160 -67q154 -75 178 -83q284 -97 484 -298q235 -237 235 -521q0 -171 -80.5 -328t-219.5 -252z
M866 1065q-102 67 -471 230l5 -288l3 -287l-16 -546q7 -3 21 -13q88 -59 222 -59q228 0 332 70q97 66 154.5 177.5t57.5 232.5q0 282 -308 483z" />
    <glyph glyph-name="E" unicode="E" horiz-adv-x="1279" 
d="M1115 1346q-14 0 -31 5q-169 48 -326 48q-82 0 -179 -15t-209 -46q9 -65 9 -104q0 -139 -17 -382l438 42q193 20 237 20t74 -28t30 -75q0 -91 -92 -102l-238 -21l-462 -42q-4 -71 -6.5 -134.5t-2.5 -118.5q0 -221 32 -260q24 -28 157 -28q62 0 186.5 3.5t187.5 3.5
q20 0 59 6.5t58 6.5q106 0 106 -104q0 -84 -85 -101q-94 -19 -407 -19q-310 0 -398 82q-96 89 -96 410q0 64 3 140t8 164q-11 23 -11 49q0 34 19 61q20 289 20 427q0 37 -10 108.5t-10 108.5q0 119 100 119q42 0 72 -29q120 32 226.5 48t200.5 16q243 0 388 -58
q67 -27 67 -96q0 -40 -26 -71q-29 -34 -72 -34z" />
    <glyph glyph-name="F" unicode="F" horiz-adv-x="1243" 
d="M1106 1314q-18 0 -38 8q-124 46 -328 46q-66 0 -154.5 -9.5t-198.5 -29.5l-2 -432q193 51 290 51q154 0 319 -18q94 -10 94 -102q0 -45 -29 -74.5t-72 -29.5q-52 0 -156 9t-156 9q-68 0 -294 -58l-9 -688q0 -43 -28 -72.5t-71 -29.5t-71.5 29.5t-28.5 72.5
q0 197 7.5 591.5t7.5 591.5q0 44 -1.5 132.5t-1.5 132.5t27.5 74t71.5 30q33 0 59 -18q124 22 223 32.5t174 10.5q115 0 263 -33q201 -46 201 -120q0 -40 -26 -71q-29 -35 -72 -35z" />
    <glyph glyph-name="G" unicode="G" horiz-adv-x="1392" 
d="M1300 605q-62 -307 -260.5 -490.5t-468.5 -183.5q-246 0 -369 137.5t-123 412.5q0 259 122.5 533.5t314.5 443.5q128 113 271 113q91 0 240 -60q182 -72 182 -159q0 -41 -30 -73t-72 -32q-22 0 -62 25q-153 93 -258 93q-75 0 -157 -78q-41 -39 -118 -142
q-231 -306 -231 -664q0 -188 58 -263q63 -82 232 -82q179 0 311 113q139 120 194 343q-277 -14 -475 -107q-23 -11 -45 -11q-44 0 -73 34q-27 31 -27 72q0 55 53 88q216 132 745 132q43 0 72 -29t29 -73q0 -65 -55 -93z" />
    <glyph glyph-name="H" unicode="H" horiz-adv-x="1573" 
d="M1456 1409q-15 -42 -15 -123q0 -30 2 -89t2 -89q0 -100 -17.5 -298t-17.5 -298q0 -76 11 -228t11 -229q0 -41 -27.5 -69t-68.5 -28q-40 0 -68 28t-28 69q0 77 -11 229t-11 228q0 73 5 148q-171 -3 -423 -51l-420 -82q0 -90 -18 -255.5t-18 -256.5q0 -41 -27.5 -69.5
t-68.5 -28.5t-68.5 28.5t-27.5 69.5q0 106 17.5 316.5t17.5 316.5q0 55 -4 166t-4 167q0 79 10 237.5t10 237.5q0 42 27.5 70t68.5 28t68.5 -28t27.5 -70q0 -80 -10.5 -239.5t-10.5 -239.5l6 -253l429 81q257 48 433 50q11 143 11 431q0 76 25 154q33 107 93 107
q38 0 68 -27.5t30 -69.5q0 -15 -9 -41z" />
    <glyph glyph-name="I" unicode="I" horiz-adv-x="1119" 
d="M957 1246q-64 0 -161 13l-161 21q-23 -291 -23 -556q0 -70 4 -173t4 -173q0 -94 -7 -171l315 4q42 0 70.5 -29.5t28.5 -72.5q0 -44 -28.5 -73.5t-70.5 -29.5q-56 0 -168 -2.5t-168 -2.5q-66 0 -197.5 -18.5t-198.5 -18.5q-42 0 -70.5 29.5t-28.5 72.5t28.5 73t70.5 30
q65 0 215 21q10 81 10 185q0 69 -6.5 168.5t-6.5 167.5q0 231 28 577l-130 -4l-130 -3q-43 0 -72 29t-29 74q0 93 94 102q81 8 303 8q199 0 499 -43q89 -13 89 -107q0 -47 -34 -75q-30 -23 -69 -23z" />
    <glyph glyph-name="J" unicode="J" horiz-adv-x="1362" 
d="M1197 1294q-18 0 -61.5 7.5t-67.5 7.5q-49 0 -115 -3l5 -119q0 -744 -99 -1083q-66 -224 -231 -224q-174 0 -345 126q-189 140 -189 321q0 123 101 123t101 -121q0 -83 118 -165q113 -78 214 -78q82 0 114 503q15 238 15 598q0 28 -5 108l-61 -1q-39 0 -117.5 2.5
t-118.5 2.5q-44 0 -74 28t-30 76q0 103 139 103q34 0 101 -3t100 -3q63 0 188.5 7.5t188.5 7.5q228 0 228 -116q0 -40 -27 -71q-29 -34 -72 -34z" />
    <glyph glyph-name="K" unicode="K" horiz-adv-x="1251" 
d="M1153 -41q-152 0 -433 267l-299 301v-14l-1 -524q0 -99 -87 -99q-57 0 -91 50q-28 41 -28 89q0 234 14 700t14 699q0 43 28.5 73t70.5 30q43 0 71.5 -30t28.5 -73q0 -97 -12 -302q-12 -198 -11 -303q134 127 303 319l287 333q34 39 76 39q40 0 71 -30t31 -73
q0 -66 -258 -352q-178 -195 -368 -382q120 -126 376 -362l105 -88q57 -44 123 -66q79 -26 79 -99q0 -34 -21 -65q-26 -38 -69 -38z" />
    <glyph glyph-name="L" unicode="L" horiz-adv-x="1128" 
d="M1025 41q-113 -53 -355 -95q-223 -39 -364 -39q-101 0 -145 31q-60 42 -60 154l20 331q26 458 26 1016q0 43 28.5 73t70.5 30q43 0 71.5 -30t28.5 -73q0 -565 -27 -1028l-13 -152q-8 -83 -6 -147q261 -3 660 123q17 5 32 5q43 0 72 -34q25 -31 25 -71q0 -64 -64 -94z" />
    <glyph glyph-name="M" unicode="M" horiz-adv-x="1808" 
d="M1625 -83q-54 0 -89 56q-30 48 -54 160l-36 172q-41 160 -130 706l-200 -603l-59 -190q-36 -113 -75 -185q-42 -76 -113 -76q-59 0 -93 64q-22 42 -40 107l-29 111q-101 353 -178 756l-36 -179l-129 -528q-8 -93 -50 -275q-30 -78 -99 -78q-49 0 -78 35q-25 30 -25 74
q0 167 69 410l110 403l58 315q44 221 93 289q40 58 99 58q65 0 97 -74q39 -89 84 -363q53 -329 165 -712q148 385 256 802l30 146q18 88 47 142q39 74 107 74q86 0 131 -166q16 -57 39 -236q59 -452 147 -772l49 -172q38 -138 38 -170q0 -43 -32.5 -72t-73.5 -29z" />
    <glyph glyph-name="N" unicode="N" horiz-adv-x="1632" 
d="M1541 222q0 -48 -16 -160q-16 -101 -107 -101q-55 0 -131 72q-407 385 -934 1111l-5 -227l-3 -228q0 -83 3.5 -249t3.5 -250q0 -269 -104 -269q-55 0 -87 35q-29 31 -29 74q0 42 6.5 127t6.5 127q0 62 4 185.5t4 185.5q0 66 -3 199.5t-3 199.5q0 63 -12 187.5t-12 187.5
q0 46 39.5 84t89.5 38q53 0 131 -116q249 -373 448 -620q237 -293 520 -560q3 43 0 127l-3 126q0 439 -34 699q-4 26 -27 105q-20 68 -20 106q0 116 106 116q174 0 174 -649q0 -111 -3 -331.5t-3 -331.5z" />
    <glyph glyph-name="O" unicode="O" horiz-adv-x="1635" 
d="M802 -61q-282 0 -478 169q-208 180 -208 464q0 346 205 629q229 314 571 314q329 0 489 -148q167 -154 167 -486q0 -346 -188 -624q-216 -318 -558 -318zM892 1310q-245 0 -415 -244q-157 -224 -157 -494q0 -193 143 -314q137 -114 339 -114q243 0 401 245
q141 219 141 492q0 239 -107 336q-102 93 -345 93z" />
    <glyph glyph-name="P" unicode="P" horiz-adv-x="1066" 
d="M413 587q-28 0 -122 13q-8 -151 -8 -529q0 -40 -26 -67.5t-65 -27.5q-40 0 -66 27.5t-26 67.5v294q0 147 18 414q20 289 22 414v138q0 99 12 144q23 88 98 76q32 10 91 15t145 5q183 0 343 -125q176 -138 176 -332q0 -248 -188 -395q-168 -132 -404 -132zM463 1381
q-44 0 -78.5 -2t-58.5 -6l-2 -184l-21 -398l110 -13q168 0 283 85q126 93 126 251q0 112 -120 193q-111 74 -239 74z" />
    <glyph glyph-name="Q" unicode="Q" horiz-adv-x="1795" 
d="M1646 -438q-44 0 -237 171l-239 219q-169 -68 -335 -68q-301 0 -529.5 240t-228.5 543q0 357 266 606q260 242 615 242q374 0 567 -280q164 -240 164 -621q0 -331 -324 -557l218 -201l129 -110q38 -36 38 -78q0 -41 -30.5 -73.5t-73.5 -32.5zM958 1308q-274 0 -472 -183
q-204 -188 -204 -458q0 -219 169 -396q170 -180 384 -180q69 0 142 17q-193 168 -193 265q0 44 32.5 73t72.5 29q48 0 85 -48q99 -129 224 -231q285 166 285 418q0 297 -121 482q-138 212 -404 212z" />
    <glyph glyph-name="R" unicode="R" horiz-adv-x="1287" 
d="M1126 -11q-38 0 -71 32q-331 327 -736 440l8 -196l5 -197q0 -44 -28.5 -73.5t-71.5 -29.5t-71.5 29.5t-28.5 73.5q0 79 -7.5 235.5t-7.5 235.5q0 92 20 274t20 273q0 51 -9.5 151t-9.5 151q0 57 32 100q38 53 105 48l241 -19q137 -17 231 -67q405 -215 405 -525
q0 -152 -138 -269q-111 -94 -277 -143q311 -167 465 -352q26 -32 26 -68q0 -42 -30.5 -73t-71.5 -31zM489 1311l-148 12l10 -121q7 -74 7 -121q0 -80 -13 -199l-21 -199q14 0 43.5 -1t44.5 -1q255 0 382 68q56 31 104 81q53 56 53 95q0 139 -158 259q-145 110 -304 127z" />
    <glyph glyph-name="S" unicode="S" horiz-adv-x="1420" 
d="M134 249q-1 42 28.5 68.5t72.5 26.5q49 0 86 -56q51 -76 91 -103q85 -56 247 -56q155 0 288 67q170 86 170 239q0 126 -143 199q-121 63 -299 68q-158 6 -269 69q-142 81 -142 232q0 178 202 325q193 139 399 139q97 0 219 -33q162 -43 162 -110q0 -88 -90 -88
q-40 0 -140 21.5t-155 20.5q-156 -2 -265 -77q-112 -77 -112 -187q0 -83 148 -117q55 -13 213 -24q229 -17 358 -144q118 -116 118 -283q0 -238 -220 -380q-191 -123 -443 -123q-183 0 -335 70q-186 86 -189 236z" />
    <glyph glyph-name="T" unicode="T" horiz-adv-x="1392" 
d="M1362 1263q-74 0 -228 12q-150 11 -228 10h-71q3 -138 27 -448q22 -289 22 -449q0 -35 7 -106t7 -107q0 -68 -22 -117q-28 -66 -87 -66q-40 0 -72 28t-32 72q0 15 5 45t5 45q0 49 -6.5 147t-6.5 148q0 143 -23 402q-24 280 -27 402l-91 -1q-219 0 -344 32q-81 21 -81 99
q0 41 26 72q30 35 77 32q35 -2 160 -18q100 -12 162 -12q60 0 182 2.5t182 2.5q77 0 228.5 -11t228.5 -11q43 0 72 -29.5t29 -73.5q0 -43 -29 -72.5t-72 -29.5z" />
    <glyph glyph-name="U" unicode="U" horiz-adv-x="1509" 
d="M790 -40q-311 0 -464 179q-124 144 -156 426q-15 127 -15 507q0 140 6 226q6 91 18 127q25 73 90 73q92 0 92 -169v-587q0 -606 424 -606q399 0 399 1020v98q-1 60 -1 80q0 62 22 109q28 60 83 60q100 0 100 -137q0 -41 1 -124v-124q0 -1158 -599 -1158z" />
    <glyph glyph-name="V" unicode="V" horiz-adv-x="1331" 
d="M1306 1371q-62 -93 -101 -195l-76 -219l-269 -727q-47 -128 -110 -250q-32 -60 -90 -60q-77 0 -108 78q-121 304 -269 875l-79 275q-59 208 -59 272q0 45 32 74q29 27 70 27q76 0 98 -82l37 -174l96 -340q96 -372 187 -641l6 16l268 726l85 245q57 148 121 224
q33 40 78 40q40 0 71.5 -30.5t31.5 -73.5q0 -30 -20 -60z" />
    <glyph glyph-name="W" unicode="W" horiz-adv-x="2129" 
d="M1423 -96q-46 0 -81 26q-40 30 -40 74q-46 121 -58 197t-79 431q-51 269 -68 432q-89 -330 -191 -559q-118 -265 -153 -415q12 -23 12 -45q0 -45 -40 -74q-36 -27 -82 -27q-135 0 -135 121l-31 127l-109 490q-65 248 -222 711q-7 22 -7 40q0 93 105 93q65 0 100 -71
q18 -36 73 -207q59 -181 118 -436l97 -442q107 248 213 604q65 217 99 301q90 221 175 221q70 0 99 -71q36 -86 73 -410q20 -164 68 -394l86 -393q134 322 335 871q11 30 50 189q29 117 71 182q36 55 94 55q101 0 101 -100q0 -17 -32 -100l-40 -108l-55 -178l-297 -722
q-41 -119 -141 -346q-36 -67 -108 -67z" />
    <glyph glyph-name="X" unicode="X" horiz-adv-x="1482" 
d="M1379 1349q-134 -162 -206 -267l-125 -184q-73 -104 -137 -175l220 -322q131 -191 233 -312q27 -33 27 -69q0 -42 -30.5 -73t-72.5 -31q-38 0 -71 31q-74 70 -154 190l-134 206l-157 225l-344 -398l-184 -206q-33 -33 -73 -33q-41 0 -72 31t-31 73q0 36 26 68l180 201
l375 435q-110 147 -234 295l-116 157q-70 94 -130 144q-42 35 -42 81q0 41 29 73t72 32q85 0 217 -181q41 -61 125 -173q114 -136 217 -273l228 318q222 309 288 309q41 0 72 -31t31 -73q0 -35 -27 -68z" />
    <glyph glyph-name="Y" unicode="Y" horiz-adv-x="1301" 
d="M1172 1279q-24 -38 -64 -117l-172 -425q-100 -239 -188 -418l-125 -223l-53 -108q-33 -58 -89 -58q-39 0 -71 29t-32 72q0 34 94 213l123 225q-179 231 -232 364q-45 113 -150 271q-144 216 -169 261q-15 27 -15 54q0 43 31.5 72.5t71.5 29.5q49 0 82 -47l80 -124
q106 -157 140 -214q75 -123 117 -228q33 -83 141 -227l229 558q39 69 108 213q28 68 93 68q40 0 71.5 -28t31.5 -72q0 -46 -53 -141z" />
    <glyph glyph-name="Z" unicode="Z" horiz-adv-x="1420" 
d="M1266 1251l-135 -92q-182 -141 -412 -451l-351 -511q-25 -38 -49 -70l389 15q255 12 390 12q132 0 195 -12q81 -16 84 -82q2 -49 -32 -78q-30 -25 -75 -25q-29 0 -87 3.5t-87 3.5q-152 0 -456.5 -7.5t-456.5 -7.5q-115 0 -115 101q0 66 62 166l107 149l361 502
q223 295 415 458l-350 -20h-404q-11 0 -32.5 -1.5t-31.5 -1.5q-106 0 -106 103q0 68 54 90q33 14 109 14q69 0 205.5 -14.5t205.5 -14.5q77 0 230.5 10t231.5 10q257 0 257 -97q0 -66 -116 -152z" />
    <glyph glyph-name="bracketleft" unicode="[" horiz-adv-x="771" 
d="M440 -412q-22 0 -67 -2.5t-68 -2.5q-129 0 -129 117q0 183 14.5 703.5t14.5 703.5l-16 303l-1 14q-2 38 23.5 67t65.5 29q30 0 90.5 -2.5t90.5 -2.5q19 0 56.5 2.5t56.5 2.5q92 0 92 -97q0 -89 -84 -97t-203 -3q6 -90 6 -203l-13 -671l-16 -670l87 3q29 0 87.5 -2.5
t87.5 -2.5q40 0 63.5 -28.5t23.5 -68.5t-23.5 -68.5t-63.5 -28.5q-29 0 -87.5 2.5t-87.5 2.5z" />
    <glyph glyph-name="backslash" unicode="\" horiz-adv-x="1126" 
d="M920 -141q-50 0 -80 51q-38 63 -117 250l-291 745q-64 151 -239 469q-16 29 -16 53q0 39 29.5 68t67.5 29q45 0 76 -46q114 -171 247 -488l205 -515q107 -272 201 -473q12 -25 12 -47q0 -39 -28.5 -67.5t-66.5 -28.5z" />
    <glyph glyph-name="bracketright" unicode="]" horiz-adv-x="771" 
d="M438 -412q23 0 68 -2.5t67 -2.5q129 0 129 117q0 183 -14.5 703.5t-14.5 703.5l16 303l1 14q2 38 -23.5 67t-64.5 29q-31 0 -91.5 -2.5t-90.5 -2.5q-19 0 -56.5 2.5t-56.5 2.5q-92 0 -92 -97q0 -89 84 -97t204 -3q-7 -90 -7 -203l13 -671l16 -670l-87 3q-29 0 -87.5 -2.5
t-87.5 -2.5q-39 0 -63 -28.5t-24 -68.5t24 -68.5t63 -28.5q29 0 87.5 2.5t87.5 2.5z" />
    <glyph glyph-name="asciicircum" unicode="^" horiz-adv-x="1190" 
d="M594 1646q55 0 132 -68q24 -21 110 -111l158 -170q27 -30 27 -61q0 -37 -28 -64.5t-64 -27.5q-33 0 -63 29q-80 90 -251 260q-254 -311 -326 -311q-36 0 -63.5 28t-27.5 64q0 35 31 64q55 54 304 337q27 31 61 31z" />
    <glyph glyph-name="underscore" unicode="_" horiz-adv-x="1284" 
d="M973 -345q-71 0 -213 5t-213 5h-445q-23 0 -69 -5t-68 -5v185q100 0 300 1.5t300 1.5q71 0 211.5 -5.5t211.5 -5.5l335 8v-185h-350z" />
    <glyph glyph-name="grave" unicode="`" horiz-adv-x="1139" 
d="M577 1267q0 -36 -28.5 -62.5t-64.5 -26.5q-43 0 -72 42l-100 149q-53 73 -124 128q-39 30 -39 71q0 36 26.5 64.5t62.5 28.5q62 0 202 -166q137 -164 137 -228z" />
    <glyph glyph-name="a" unicode="a" horiz-adv-x="1048" 
d="M920 -66q-19 0 -69 44q-45 41 -67 73q-96 -52 -169 -78.5t-122 -26.5q-234 0 -341 132q-101 124 -101 380q0 242 166.5 414t397.5 172q87 0 195 -45q136 -56 136 -135q0 -27 -20 -48q-10 -38 -15.5 -125t-6.5 -223q-1 -124 17 -196q10 -44 63 -176q7 -18 23 -53l6 -17
q0 -40 -28 -66t-65 -26zM712 629q0 43 5.5 93.5t16.5 107.5q-37 19 -63.5 28t-42.5 9q-155 0 -267.5 -126.5t-112.5 -291.5q0 -164 58 -246t174 -82q96 0 163 35q36 19 101 76q-32 265 -32 397z" />
    <glyph glyph-name="b" unicode="b" horiz-adv-x="1215" 
d="M606 -42q-153 0 -278 60q-32 -48 -78 -48q-38 0 -64.5 26.5t-26.5 66.5q0 26 2.5 77t2.5 77q0 106 -5.5 317.5t-5.5 317.5q0 73 1 276.5t1 277.5q0 60 25 108q33 61 91 61q75 0 75 -87q0 -14 -5 -41t-5 -41l-3 -219l-2 -255q87 59 165.5 88.5t147.5 29.5q215 0 349 -165
q126 -155 126 -381q0 -228 -147 -387t-366 -159zM644 861q-82 0 -168 -46q-42 -23 -144 -99l-2 -173l1 -156l1 -164q48 -22 135 -56q62 -19 139 -19q145 0 238 102t93 254q0 149 -75 249q-81 108 -218 108z" />
    <glyph glyph-name="c" unicode="c" horiz-adv-x="1052" 
d="M591 -63q-205 0 -342 124q-144 130 -144 343q0 203 135 419q150 240 338 240q98 0 219 -46q153 -59 153 -144q0 -38 -25 -67.5t-62 -29.5q-29 0 -50.5 17.5t-41.5 34.5q-59 47 -193 47q-102 0 -202 -182q-91 -167 -91 -289q0 -132 90 -208q84 -71 216 -71q60 0 128 32
l116 62q30 16 43 16q37 0 64 -29.5t27 -67.5q0 -73 -154 -141q-135 -60 -224 -60z" />
    <glyph glyph-name="d" unicode="d" horiz-adv-x="1203" 
d="M1060 883q-12 -147 -12 -294q0 -333 31 -503q2 -14 2 -23q0 -40 -28 -66t-65 -26q-62 0 -91 90q-72 -53 -149.5 -80t-161.5 -27q-207 0 -343 138q-140 141 -140 362q0 267 141.5 428t367.5 161q116 0 179 -36l94 -69q14 421 33 567q13 89 91 89q91 0 91 -97
q0 -139 -40 -614zM616 857q-168 0 -252 -99.5t-84 -299.5q0 -129 91.5 -222t214.5 -93q84 0 142 31q34 18 111 83q15 13 29 31l-3 173l1 116l2 118q-38 81 -101 121.5t-151 40.5z" />
    <glyph glyph-name="e" unicode="e" horiz-adv-x="1122" 
d="M606 -46q-226 0 -366 113q-153 125 -153 350q0 260 126 436q137 192 366 192q166 0 271 -56q129 -69 129 -212q0 -100 -113 -182q-50 -36 -212 -112l-382 -181q56 -83 139.5 -125t194.5 -42q69 0 162 26q118 33 152 86.5t73 53.5q35 0 62.5 -26.5t27.5 -61.5
q0 -111 -179 -191q-153 -68 -298 -68zM579 865q-122 0 -203 -94.5t-121 -284.5l307 146q181 88 258 153q-86 80 -241 80z" />
    <glyph glyph-name="f" unicode="f" horiz-adv-x="1041" 
d="M811 1406q-242 0 -271 -336l-3 -62q170 12 220 12q159 0 159 -100q0 -73 -78 -87q-34 -6 -79.5 -4.5t-230.5 -13.5l-8 -228q0 -62 4 -186t4 -185q0 -190 -22 -296q-17 -80 -93 -80q-41 0 -70 26.5t-29 66.5q0 8 2 20q21 130 21 283l-3 273v290q-125 -10 -158 -10
q-101 0 -101 97q0 99 175 104l96 3q3 56 15 152q26 222 112 327q104 127 325 127q143 0 143 -97q0 -96 -130 -96z" />
    <glyph glyph-name="g" unicode="g" horiz-adv-x="1087" 
d="M962 431l-23 -336q-6 -200 -41 -327q-45 -162 -144 -239q-120 -93 -347 -93q-133 0 -223 18q-126 25 -126 104q0 89 87 89q36 0 120 -17.5t186 -15.5q192 3 265 186q48 122 51 375q-54 -100 -128.5 -150t-170.5 -50q-181 0 -294.5 123.5t-113.5 320.5q0 270 155 435
q160 170 436 170q93 0 156 -24t96 -72q107 -3 107 -119q0 -71 -21 -190q-23 -138 -27 -188zM641 864q-190 0 -294 -131q-93 -118 -93 -300q0 -145 55 -218t165 -73q101 0 196 114q86 105 98 208q21 108 45 339q-40 31 -83 46t-89 15z" />
    <glyph glyph-name="h" unicode="h" horiz-adv-x="1183" 
d="M976 -62q-71 0 -93 76q-23 82 -42 233q-18 145 -18 238q0 26 2.5 79t2.5 79q0 188 -94 188q-127 0 -227 -115q-51 -59 -140 -225q0 -381 -32 -451q-28 -62 -87 -62q-41 0 -72 28t-31 68q0 14 9 44q8 25 11 146l3 148l3 735q7 124 7 167q0 51 -9.5 96.5t-9.5 94.5
q0 42 29 69.5t71 27.5q82 0 96 -88q16 -97 16 -175q0 -105 -7 -219q-6 -109 -5 -219l1 -88q82 110 175.5 164.5t198.5 54.5q166 0 228 -108q44 -76 50 -256l8 -191l20 -208q14 -117 34 -206q4 -17 4 -29q0 -41 -30 -68.5t-72 -27.5z" />
    <glyph glyph-name="i" unicode="i" horiz-adv-x="574" 
d="M330 1266q-48 0 -83 34t-35 82t35 82t83 34t82.5 -34t34.5 -82t-34.5 -82t-82.5 -34zM375 454q0 -60 3.5 -179.5t3.5 -179.5q0 -44 -27 -72t-71 -28q-43 0 -70.5 28t-27.5 72q0 60 -3.5 179.5t-3.5 179.5q0 94 10 234.5t10 234.5q0 45 27.5 73t70.5 28t70.5 -28t27.5 -73
q0 -94 -10 -234.5t-10 -234.5z" />
    <glyph glyph-name="j" unicode="j" horiz-adv-x="826" 
d="M467 1265q-48 0 -82.5 34t-34.5 81q0 48 34.5 82t82.5 34t83 -34t35 -82q0 -47 -35 -81t-83 -34zM459 -232q1 117 -34 599l-34 551q0 50 28.5 89t72.5 39q34 0 68 -25t36 -51l33 -576l27 -616q0 -139 -83 -252q-90 -123 -219 -123q-215 0 -360 331q-12 27 -12 48
q0 40 31.5 69t71.5 29q59 0 123 -130q16 -34 56 -98q39 -50 90 -50q44 0 75 66q24 50 30 100z" />
    <glyph glyph-name="k" unicode="k" horiz-adv-x="1106" 
d="M972 -41q-55 0 -85 58q-52 101 -157 239l-177 241q-58 -46 -180 -129q-11 -155 -11 -302q0 -45 -27.5 -73t-70.5 -28q-101 0 -101 136q0 83 11.5 248.5t11.5 248.5q0 152 4.5 347.5t4.5 345.5q0 45 -4.5 106t-4.5 106t27.5 73t70.5 28t70.5 -28t27.5 -73q0 -46 5 -108.5
t5 -108.5l-7 -322q-5 -174 -3 -348q136 104 262 228l220 227q33 34 71 34q39 0 70.5 -31t31.5 -72q0 -34 -29 -67q-123 -144 -303 -309l218 -297q153 -209 153 -272q0 -40 -31.5 -69t-72.5 -29z" />
    <glyph glyph-name="l" unicode="l" horiz-adv-x="561" 
d="M393 786l-15 -497q0 -79 -8 -232q-10 -100 -98 -100q-98 0 -98 102q0 121 11 363.5t11 363.5q0 158 5 361.5t5 361.5q0 100 98 100q99 0 99 -100q0 -158 -5 -361.5t-5 -361.5z" />
    <glyph glyph-name="m" unicode="m" horiz-adv-x="1591" 
d="M1409 -83q-82 0 -96 87q-18 110 -36 310l-34 310q-10 69 -34 135q-34 90 -74 90q-37 0 -138 -63q-96 -58 -126 -93q-1 -94 5 -188l30 -267q19 -158 19 -261q0 -44 -27.5 -72.5t-70.5 -28.5t-70.5 28.5t-27.5 72.5q0 121 -24.5 357.5t-24.5 357.5q0 106 -30 165
q-70 -32 -142 -104l-118 -132q-16 -24 -51 -63q0 -60 -11 -177t-11 -173q0 -30 9.5 -84t9.5 -78q0 -41 -30.5 -69t-71.5 -28q-113 0 -113 257q0 60 11 179t11 179q0 53 -9.5 159t-9.5 160q0 227 102 227q39 0 71.5 -34t32.5 -74q0 -19 -5 -59t-5 -61l2 -105
q52 107 153 193.5t172 86.5q157 0 216 -156q55 73 131 109.5t174 36.5q167 0 228 -180q12 -36 41 -281q28 -172 72 -573q3 -40 -27 -68t-73 -28z" />
    <glyph glyph-name="n" unicode="n" horiz-adv-x="1072" 
d="M906 -71q-86 0 -97 94l-28 219q-14 117 -14 219q0 28 3.5 95t3.5 95q0 216 -80 216q-112 0 -214 -133q-92 -121 -144 -306q-2 -39 -9 -98q-6 -50 -6 -97q0 -30 6 -90t6 -90q0 -45 -27.5 -73t-70.5 -28q-44 0 -71 28t-27 73q0 30 -6.5 90t-6.5 90q0 103 14.5 285.5
t14.5 285.5q0 32 -3.5 95t-3.5 95q0 43 28.5 70.5t70.5 27.5q92 0 101 -130l3 -117q168 224 345 224q160 0 223 -141q43 -94 47 -278v-101l-1 -93q0 -83 21.5 -214.5t21.5 -213.5q0 -44 -28.5 -71.5t-71.5 -27.5z" />
    <glyph glyph-name="o" unicode="o" horiz-adv-x="1077" 
d="M514 -59q-168 0 -289 124q-135 138 -142 371q-6 226 114 398q140 203 390 203q200 0 303 -183q82 -148 79 -356q-3 -222 -116 -379q-128 -178 -339 -178zM574 834q-147 1 -229 -140q-65 -113 -65 -258t79 -226q66 -67 155 -67q104 0 179 76q85 84 90 227q14 387 -209 388
z" />
    <glyph glyph-name="p" unicode="p" horiz-adv-x="1095" 
d="M564 -35q-100 0 -220 32l-2 -478q0 -44 -27.5 -72t-70.5 -28t-70.5 28t-27.5 72l3 400v399q-3 219 -15 399l-15 203q0 71 26 120q30 59 87 59q39 0 65.5 -27.5t26.5 -67.5q0 -9 -3 -33q-5 -31 -7 -57q86 59 166 88.5t153 29.5q205 0 300 -182q75 -144 75 -381
q0 -216 -116 -356q-123 -148 -328 -148zM633 832q-92 0 -166 -41q-53 -29 -134 -106q13 -227 13 -477q109 -42 218 -42q125 0 191 93q57 81 57 210q0 182 -44.5 272.5t-134.5 90.5z" />
    <glyph glyph-name="q" unicode="q" 
d="M909 315l-46 -384q-25 -214 -25 -387q0 -44 -27 -72t-71 -28q-92 0 -98 101q-3 44 5 111l13 111l19 221q-86 -23 -121 -23q-218 0 -353 113q-145 121 -145 335q0 293 165 470q169 182 460 180q55 0 83 -43q43 38 76 38q40 0 69.5 -32t29.5 -73q0 -295 -34 -638zM614 890
q-184 -33 -278 -187q-76 -125 -76 -294q0 -118 72 -192q79 -82 219 -78q95 3 139 103q48 112 51 381l14 267q-20 -7 -70 -3q-55 6 -71 3z" />
    <glyph glyph-name="r" unicode="r" horiz-adv-x="984" 
d="M917 739q-7 -125 -100 -125q-86 0 -86 99q0 19 -3 70l-3 84q-158 -19 -253 -89q-89 -65 -148 -196l2 -548q0 -101 -99 -101q-88 0 -88 101v702q0 33 2.5 99t2.5 99q0 101 88 101q98 0 99 -166q192 185 426 185q81 0 121 -61t40 -184q0 -52 -1 -70z" />
    <glyph glyph-name="s" unicode="s" horiz-adv-x="997" 
d="M814 770q-55 0 -77 37q-15 26 -26 108q-75 -19 -231 -70q-161 -64 -162 -158q30 -11 59 -16q230 -41 342 -113q163 -105 163 -304q0 -163 -141 -246q-117 -68 -296 -68q-131 0 -250 44q-154 56 -154 156q0 40 31.5 70t71.5 30q31 0 80 -48q24 -23 108 -38q67 -12 113 -12
q84 0 148 20q93 29 93 92q0 136 -190 184l-104 23q-133 29 -189 68q-81 56 -81 169q0 209 197 298q60 27 192 64.5t189 63.5q41 18 89 18q43 0 70.5 -28t27.5 -73q0 -29 12.5 -85t12.5 -85q0 -45 -27.5 -73t-70.5 -28z" />
    <glyph glyph-name="t" unicode="t" horiz-adv-x="965" 
d="M808 852q-21 0 -49.5 2t-49.5 2q-23 0 -136 -15l19 -591l1 -44l1 -51q4 -219 -105 -219q-40 0 -69.5 26t-29.5 65q0 38 3 114t3 114l-20 584q-73 3 -222 17q-89 12 -89 99q0 44 27 73t69 29l210 -17q0 51 -4.5 136.5t-4.5 123.5q0 42 29 69.5t71 27.5q90 0 105 -147
q3 -37 3 -89l-2 -58l-1 -62q124 16 142 16q104 0 136 -10q61 -20 61 -94q0 -44 -27.5 -72.5t-70.5 -28.5z" />
    <glyph glyph-name="u" unicode="u" 
d="M955 584q0 -72 1 -216t1 -216q0 -22 3.5 -67t3.5 -67q0 -43 -29 -70.5t-71 -27.5q-77 0 -98 95q-125 -65 -288 -65q-131 0 -217 58q-95 64 -113 187q-39 265 -39 472q0 137 30 312q14 87 95 87q43 0 72 -27.5t29 -70.5q0 -46 -14.5 -147t-14.5 -154q0 -167 11 -286
t33 -191q33 -18 65 -27.5t63 -9.5q134 0 283 43l-1 203l-2 194q0 216 19 375q11 92 97 92q43 0 72 -28t27 -70z" />
    <glyph glyph-name="v" unicode="v" horiz-adv-x="996" 
d="M600 52q-3 -92 -91 -92q-73 0 -106 86l-153 406l-178 459q-10 26 -10 46q0 41 31 70t72 29q60 0 86 -61l254 -699q75 160 189 464q27 80 85 226q31 64 88 64q41 0 72 -29t31 -69q0 -38 -165 -428z" />
    <glyph glyph-name="w" unicode="w" horiz-adv-x="1401" 
d="M1336 895q-78 -326 -204 -737q-28 -91 -93 -187q-35 -53 -95 -52q-109 2 -170 271q-20 86 -41 234l-33 223l-82 -191l-152 -413q-13 -38 -38 -58q-30 -58 -96 -60q-76 -3 -147 298q-36 155 -72 420l-24 150q-13 90 -13 151q0 42 29.5 69.5t71.5 27.5q76 0 94 -83
q13 -59 21 -146l15 -147l59 -449q111 308 230 710q33 111 115 111q79 0 107 -124q26 -117 65 -360q40 -252 71 -393l73 272l129 545q15 61 86 61q42 0 73 -28.5t31 -68.5q0 -5 -10 -46z" />
    <glyph glyph-name="x" unicode="x" horiz-adv-x="1209" 
d="M1058 858l-146 -137l-178 -177l326 -426q25 -32 25 -63q0 -39 -30 -69t-68 -30t-69 37q-92 107 -324 412l-195 -201q-59 -53 -172 -165q-32 -36 -69 -36q-38 0 -67.5 30t-29.5 69q0 31 25 63q28 37 87 89q69 61 91 84l213 223l-131 189q-79 113 -138 165q-38 34 -38 74
t28.5 71t65.5 31q59 0 178 -154l173 -239l196 180q122 115 165 180q32 47 76 47q39 0 69 -29t30 -67q0 -55 -93 -151z" />
    <glyph glyph-name="y" unicode="y" horiz-adv-x="1066" 
d="M1011 892l-346 -748q-128 -273 -196 -457l-66 -194q-26 -72 -90 -72q-42 0 -72.5 27.5t-30.5 68.5q0 100 216 579l-358 689l-45 73q-27 46 -27 77q0 41 31.5 72t70.5 31q46 0 71 -35q170 -236 365 -672l148 345q80 179 154 308q32 56 84 56q41 0 72.5 -29t31.5 -69
q0 -22 -13 -50z" />
    <glyph glyph-name="z" unicode="z" horiz-adv-x="1102" 
d="M964 809q-89 -107 -228 -310q-161 -236 -236 -334q105 5 183 5q39 0 116 -15t116 -15q44 0 71.5 -28.5t27.5 -72.5q0 -45 -27.5 -73t-71.5 -28q-39 0 -116 15t-116 15q-225 0 -427 -41q-21 -4 -37 -4q-97 0 -97 85q0 50 50 96q261 236 568 735q-133 -8 -193 -8
q-148 0 -304 23q-89 13 -89 99q0 44 27 73.5t68 29.5q49 0 148 -11.5t150 -11.5q68 0 204 9.5t204 9.5q85 0 85 -70q0 -81 -76 -173z" />
    <glyph glyph-name="braceleft" unicode="{" horiz-adv-x="750" 
d="M259 573q55 27 98 106q41 75 41 135q0 43 -6.5 204t-6.5 204q0 197 140 212q34 1 101 10q71 16 71 70q0 52 -58 84q-48 27 -104 27q-63 0 -132 -29q-199 -87 -199 -403l5 -199l3 -199v-28q-50 -14 -124 -83q-82 -76 -82 -128q0 -45 94.5 -112.5t94.5 -149.5q0 -27 -8 -82
t-8 -82q0 -177 83 -330q100 -184 261 -184q74 0 105 12q51 21 51 84q0 66 -51 83q-23 8 -105 8q-69 0 -118 135q-39 108 -39 192q0 33 8 99t8 99q0 47 -45 129q-38 71 -78 116z" />
    <glyph glyph-name="bar" unicode="|" horiz-adv-x="863" 
d="M445 1715q86 0 86 -89v-1871q-2 -117 -87 -117q-59 0 -80 76q-11 40 -11 311v1601q0 39 26 64t66 25z" />
    <glyph glyph-name="braceright" unicode="}" horiz-adv-x="750" 
d="M444 573q-55 27 -98 106q-41 75 -41 135q0 43 6.5 204t6.5 204q0 197 -140 212q-34 1 -101 10q-71 16 -71 70q0 52 58 84q48 27 104 27q63 0 132 -29q199 -87 199 -403l-5 -199l-3 -199v-28q50 -14 124 -83q82 -76 82 -128q0 -45 -95 -112.5t-95 -149.5q0 -27 8.5 -82
t8.5 -82q0 -177 -83 -330q-100 -184 -261 -184q-74 0 -105 12q-51 21 -51 84q0 66 51 83q23 8 105 8q69 0 118 135q39 108 39 192q0 33 -8 99t-8 99q0 47 45 129q38 71 78 116z" />
    <glyph glyph-name="asciitilde" unicode="~" horiz-adv-x="1224" 
d="M467 934q87 0 158 -71l110 -133q66 -74 137 -80q41 -3 79.5 120t100.5 123q38 0 64 -24.5t26 -62.5q1 -132 -80 -234q-82 -105 -193 -105t-203 75q-52 43 -123 139q-55 75 -76 75q-87 0 -197 -189q-29 -51 -77 -51q-36 0 -64.5 25.5t-28.5 61.5q0 19 10 42
q54 117 141 196q103 93 216 93z" />
    <glyph glyph-name="Adieresis" unicode="&#xc4;" horiz-adv-x="1498" 
d="M1250 -30q-92 0 -160 236q-26 90 -65 315q-102 -14 -267 -50l-266 -55q-50 -131 -171 -383q-32 -56 -87 -56q-40 0 -71.5 29t-31.5 72q0 48 151 365q-17 26 -17 60q0 81 98 104q114 214 288 492q237 379 295 379q79 0 108 -110l63 -336l149 -695l57 -158q29 -81 29 -108
q0 -43 -31 -72t-71 -29zM897 1113l-286 -461q121 31 367 75zM702 1822q131 0 131 -105q0 -30 -44 -58q-40 -25 -75 -25q-123 0 -123 103q0 29 37.5 57t73.5 28zM1241 1830q34 0 69 -31.5t35 -61.5q0 -92 -143 -92q-41 0 -73 21q-36 24 -36 63q0 69 45 89q25 12 103 12z" />
    <glyph glyph-name="Aring" unicode="&#xc5;" horiz-adv-x="1498" 
d="M1250 -30q-92 0 -160 236q-26 90 -65 315q-102 -14 -267 -50l-266 -55q-50 -131 -171 -383q-32 -56 -87 -56q-40 0 -71.5 29t-31.5 72q0 48 151 365q-17 26 -17 60q0 81 98 104q114 214 288 492q237 379 295 379q79 0 108 -110l63 -336l149 -695l57 -158q29 -81 29 -108
q0 -43 -31 -72t-71 -29zM897 1113l-286 -461q121 31 367 75zM965 1576q86 3 126 24q67 36 67 132q0 58 -54 91q-45 29 -107 29q-217 0 -213 -160q1 -46 61 -82t120 -34zM634 1692q0 145 103 229q99 80 260 80q125 0 214 -70q97 -77 97 -199q0 -148 -89.5 -224t-268.5 -79
q-136 -2 -226 76q-90 77 -90 187z" />
    <glyph glyph-name="Ccedilla" unicode="&#xc7;" horiz-adv-x="1234" 
d="M792 -142q0 -165 -140 -225q-93 -40 -283 -40q-130 0 -130 78q0 75 73 75q18 0 56 -2t57 -2q217 0 217 116q0 68 -106 109l-161 56q-142 83 -213.5 202t-71.5 274q0 337 284 695q236 297 478 297q48 0 87.5 -4.5t69.5 -14.5q35 51 91 51q71 0 93 -116q10 -51 10 -174
q0 -46 -26 -77q-28 -34 -73 -34q-63 0 -96 75q-30 66 -56 79q-19 10 -100 10q-145 0 -322 -222q-240 -299 -240 -565q0 -125 81 -219q84 -99 207 -99q102 0 209 55q54 28 158 102q77 56 104 56q41 0 71 -32t30 -73q0 -77 -168 -179q-139 -84 -244 -112q54 -67 54 -140z" />
    <glyph glyph-name="Eacute" unicode="&#xc9;" horiz-adv-x="1279" 
d="M1115 1346q-14 0 -31 5q-169 48 -326 48q-82 0 -179 -15t-209 -46q9 -65 9 -104q0 -139 -17 -382l438 42q193 20 237 20t74 -28t30 -75q0 -91 -92 -102l-238 -21l-462 -42q-4 -71 -6.5 -134.5t-2.5 -118.5q0 -221 32 -260q24 -28 157 -28q62 0 186.5 3.5t187.5 3.5
q20 0 59 6.5t58 6.5q106 0 106 -104q0 -84 -85 -101q-94 -19 -407 -19q-310 0 -398 82q-96 89 -96 410q0 64 3 140t8 164q-11 23 -11 49q0 34 19 61q20 289 20 427q0 37 -10 108.5t-10 108.5q0 119 100 119q42 0 72 -29q120 32 226.5 48t200.5 16q243 0 388 -58
q67 -27 67 -96q0 -40 -26 -71q-29 -34 -72 -34zM747 1764q-36 0 -63.5 28t-27.5 64q0 34 31 65q43 42 131 159q66 86 147 143q27 19 53 19q36 0 63 -28.5t27 -64.5q0 -40 -38 -70q-70 -56 -135 -145q-68 -94 -129 -145q-28 -25 -59 -25z" />
    <glyph glyph-name="Ntilde" unicode="&#xd1;" horiz-adv-x="1632" 
d="M1541 222q0 -48 -16 -160q-16 -101 -107 -101q-55 0 -131 72q-407 385 -934 1111l-5 -227l-3 -228q0 -83 3.5 -249t3.5 -250q0 -269 -104 -269q-55 0 -87 35q-29 31 -29 74q0 42 6.5 127t6.5 127q0 62 4 185.5t4 185.5q0 66 -3 199.5t-3 199.5q0 63 -12 187.5t-12 187.5
q0 46 39.5 84t89.5 38q53 0 131 -116q249 -373 448 -620q237 -293 520 -560q3 43 0 127l-3 126q0 439 -34 699q-4 26 -27 105q-20 68 -20 106q0 116 106 116q174 0 174 -649q0 -111 -3 -331.5t-3 -331.5zM655 2024q100 0 161 -58l83 -106q47 -58 112 -58q57 0 85 37l46 88
l20 59q14 29 60 29q75 0 75 -74q0 -36 -43 -121q-40 -80 -69 -110q-56 -57 -143 -57q-131 0 -205 57q-27 21 -88 107q-42 57 -94 57q-31 0 -55.5 -11.5t-42.5 -34.5l-44 -85q-25 -45 -65 -45q-31 0 -54 20.5t-23 51.5q0 11 3 23q28 102 101 165q78 66 180 66z" />
    <glyph glyph-name="Odieresis" unicode="&#xd6;" horiz-adv-x="1635" 
d="M802 -61q-282 0 -478 169q-208 180 -208 464q0 346 205 629q229 314 571 314q329 0 489 -148q167 -154 167 -486q0 -346 -188 -624q-216 -318 -558 -318zM892 1310q-245 0 -415 -244q-157 -224 -157 -494q0 -193 143 -314q137 -114 339 -114q243 0 401 245
q141 219 141 492q0 239 -107 336q-102 93 -345 93zM682 1848q131 0 131 -105q0 -30 -44 -58q-40 -25 -75 -25q-123 0 -123 103q0 29 37.5 57t73.5 28zM1221 1856q34 0 69 -31.5t35 -61.5q0 -92 -143 -92q-41 0 -73 21q-36 24 -36 63q0 69 45 89q25 12 103 12z" />
    <glyph glyph-name="Udieresis" unicode="&#xdc;" horiz-adv-x="1509" 
d="M790 -40q-311 0 -464 179q-124 144 -156 426q-15 127 -15 507q0 140 6 226q6 91 18 127q25 73 90 73q92 0 92 -169v-587q0 -606 424 -606q399 0 399 1020v98q-1 60 -1 80q0 62 22 109q28 60 83 60q100 0 100 -137q0 -41 1 -124v-124q0 -1158 -599 -1158zM571 1825
q131 0 131 -105q0 -30 -44 -58q-40 -25 -75 -25q-123 0 -123 103q0 29 37.5 57t73.5 28zM1110 1833q34 0 69 -31.5t35 -61.5q0 -92 -143 -92q-41 0 -73 21q-36 24 -36 63q0 69 45 89q25 12 103 12z" />
    <glyph glyph-name="aacute" unicode="&#xe1;" horiz-adv-x="1048" 
d="M935 -66q-19 0 -69 44q-45 41 -67 73q-96 -52 -169 -78.5t-122 -26.5q-234 0 -341 132q-101 124 -101 380q0 242 166.5 414t397.5 172q87 0 195 -45q136 -56 136 -135q0 -27 -20 -48q-10 -38 -15.5 -125t-6.5 -223q-1 -124 17 -196q10 -44 63 -176q7 -18 23 -53l6 -17
q0 -40 -28 -66t-65 -26zM727 629q0 43 5.5 93.5t16.5 107.5q-37 19 -63.5 28t-42.5 9q-155 0 -267.5 -126.5t-112.5 -291.5q0 -164 58 -246t174 -82q96 0 163 35q36 19 101 76q-32 265 -32 397zM583 1187q-36 0 -63.5 28t-27.5 64q0 34 31 65q43 42 131 159q66 86 147 143
q27 19 53 19q36 0 63 -28.5t27 -64.5q0 -40 -38 -70q-70 -56 -135 -145q-68 -94 -129 -145q-28 -25 -59 -25z" />
    <glyph glyph-name="agrave" unicode="&#xe0;" horiz-adv-x="1048" 
d="M935 -66q-19 0 -69 44q-45 41 -67 73q-96 -52 -169 -78.5t-122 -26.5q-234 0 -341 132q-101 124 -101 380q0 242 166.5 414t397.5 172q87 0 195 -45q136 -56 136 -135q0 -27 -20 -48q-10 -38 -15.5 -125t-6.5 -223q-1 -124 17 -196q10 -44 63 -176q7 -18 23 -53l6 -17
q0 -40 -28 -66t-65 -26zM727 629q0 43 5.5 93.5t16.5 107.5q-37 19 -63.5 28t-42.5 9q-155 0 -267.5 -126.5t-112.5 -291.5q0 -164 58 -246t174 -82q96 0 163 35q36 19 101 76q-32 265 -32 397zM748 1260q0 -36 -28.5 -62.5t-64.5 -26.5q-43 0 -72 42l-100 149
q-53 73 -124 128q-39 30 -39 71q0 36 26.5 64.5t62.5 28.5q62 0 202 -166q137 -164 137 -228z" />
    <glyph glyph-name="acircumflex" unicode="&#xe2;" horiz-adv-x="1048" 
d="M935 -66q-19 0 -69 44q-45 41 -67 73q-96 -52 -169 -78.5t-122 -26.5q-234 0 -341 132q-101 124 -101 380q0 242 166.5 414t397.5 172q87 0 195 -45q136 -56 136 -135q0 -27 -20 -48q-10 -38 -15.5 -125t-6.5 -223q-1 -124 17 -196q10 -44 63 -176q7 -18 23 -53l6 -17
q0 -40 -28 -66t-65 -26zM727 629q0 43 5.5 93.5t16.5 107.5q-37 19 -63.5 28t-42.5 9q-155 0 -267.5 -126.5t-112.5 -291.5q0 -164 58 -246t174 -82q96 0 163 35q36 19 101 76q-32 265 -32 397zM559 1698q55 0 132 -67q24 -21 109 -112l159 -170q26 -30 26 -61
q0 -36 -27.5 -63.5t-64.5 -27.5q-33 0 -63 29q-80 90 -250 260q-254 -312 -326 -312q-36 0 -63.5 28t-27.5 64q0 35 30 65q56 54 305 336q27 31 61 31z" />
    <glyph glyph-name="adieresis" unicode="&#xe4;" horiz-adv-x="1048" 
d="M935 -66q-19 0 -69 44q-45 41 -67 73q-96 -52 -169 -78.5t-122 -26.5q-234 0 -341 132q-101 124 -101 380q0 242 166.5 414t397.5 172q87 0 195 -45q136 -56 136 -135q0 -27 -20 -48q-10 -38 -15.5 -125t-6.5 -223q-1 -124 17 -196q10 -44 63 -176q7 -18 23 -53l6 -17
q0 -40 -28 -66t-65 -26zM727 629q0 43 5.5 93.5t16.5 107.5q-37 19 -63.5 28t-42.5 9q-155 0 -267.5 -126.5t-112.5 -291.5q0 -164 58 -246t174 -82q96 0 163 35q36 19 101 76q-32 265 -32 397zM345 1372q131 0 131 -105q0 -30 -44 -58q-40 -25 -75 -25q-123 0 -123 103
q0 29 37.5 57t73.5 28zM884 1380q34 0 69 -31.5t35 -61.5q0 -92 -143 -92q-41 0 -73 21q-36 24 -36 63q0 69 45 89q25 12 103 12z" />
    <glyph glyph-name="atilde" unicode="&#xe3;" horiz-adv-x="1048" 
d="M935 -66q-19 0 -69 44q-45 41 -67 73q-96 -52 -169 -78.5t-122 -26.5q-234 0 -341 132q-101 124 -101 380q0 242 166.5 414t397.5 172q87 0 195 -45q136 -56 136 -135q0 -27 -20 -48q-10 -38 -15.5 -125t-6.5 -223q-1 -124 17 -196q10 -44 63 -176q7 -18 23 -53l6 -17
q0 -40 -28 -66t-65 -26zM727 629q0 43 5.5 93.5t16.5 107.5q-37 19 -63.5 28t-42.5 9q-155 0 -267.5 -126.5t-112.5 -291.5q0 -164 58 -246t174 -82q96 0 163 35q36 19 101 76q-32 265 -32 397zM425 1534q100 0 161 -58l83 -106q47 -58 112 -58q57 0 85 37l46 88l20 59
q14 29 60 29q75 0 75 -74q0 -36 -43 -121q-40 -80 -69 -110q-56 -57 -143 -57q-131 0 -205 57q-27 21 -88 107q-42 57 -94 57q-31 0 -55.5 -11.5t-42.5 -34.5l-44 -85q-25 -45 -65 -45q-31 0 -54 20.5t-23 51.5q0 11 3 23q28 102 101 165q78 66 180 66z" />
    <glyph glyph-name="aring" unicode="&#xe5;" horiz-adv-x="1048" 
d="M935 -66q-19 0 -69 44q-45 41 -67 73q-96 -52 -169 -78.5t-122 -26.5q-234 0 -341 132q-101 124 -101 380q0 242 166.5 414t397.5 172q87 0 195 -45q136 -56 136 -135q0 -27 -20 -48q-10 -38 -15.5 -125t-6.5 -223q-1 -124 17 -196q10 -44 63 -176q7 -18 23 -53l6 -17
q0 -40 -28 -66t-65 -26zM727 629q0 43 5.5 93.5t16.5 107.5q-37 19 -63.5 28t-42.5 9q-155 0 -267.5 -126.5t-112.5 -291.5q0 -164 58 -246t174 -82q96 0 163 35q36 19 101 76q-32 265 -32 397zM610 1333q86 3 126 24q67 36 67 132q0 58 -54 91q-45 29 -107 29
q-217 0 -213 -160q1 -46 61 -82t120 -34zM279 1449q0 145 103 229q99 80 260 80q125 0 214 -70q97 -77 97 -199q0 -148 -89.5 -224t-268.5 -79q-136 -2 -226 76q-90 77 -90 187z" />
    <glyph glyph-name="ccedilla" unicode="&#xe7;" horiz-adv-x="1052" 
d="M770 -196q0 -124 -60.5 -186.5t-181.5 -62.5q-85 0 -161 32q-96 42 -96 115q0 54 68 54q36 0 81.5 -24.5t96.5 -24.5q49 1 73 24t24 68q0 48 -37.5 86t-113.5 67q-159 36 -255 152q-103 123 -103 300q0 203 135 419q150 240 338 240q98 0 219 -46q153 -59 153 -144
q0 -38 -25 -67.5t-62 -29.5q-29 0 -50.5 17.5t-41.5 34.5q-59 47 -193 47q-102 0 -202 -182q-91 -167 -91 -289q0 -132 90 -208q84 -71 216 -71q60 0 128 32l116 62q30 16 43 16q37 0 64 -29.5t27 -67.5q0 -103 -256 -178q29 -38 43 -77t14 -79z" />
    <glyph glyph-name="eacute" unicode="&#xe9;" horiz-adv-x="1122" 
d="M606 -46q-226 0 -366 113q-153 125 -153 350q0 260 126 436q137 192 366 192q166 0 271 -56q129 -69 129 -212q0 -100 -113 -182q-50 -36 -212 -112l-382 -181q56 -83 139.5 -125t194.5 -42q69 0 162 26q118 33 152 86.5t73 53.5q35 0 62.5 -26.5t27.5 -61.5
q0 -111 -179 -191q-153 -68 -298 -68zM579 865q-122 0 -203 -94.5t-121 -284.5l307 146q181 88 258 153q-86 80 -241 80zM595 1187q-36 0 -63.5 28t-27.5 64q0 34 31 65q43 42 131 159q66 86 147 143q27 19 53 19q36 0 63 -28.5t27 -64.5q0 -40 -38 -70q-70 -56 -135 -145
q-68 -94 -129 -145q-28 -25 -59 -25z" />
    <glyph glyph-name="egrave" unicode="&#xe8;" horiz-adv-x="1122" 
d="M606 -46q-226 0 -366 113q-153 125 -153 350q0 260 126 436q137 192 366 192q166 0 271 -56q129 -69 129 -212q0 -100 -113 -182q-50 -36 -212 -112l-382 -181q56 -83 139.5 -125t194.5 -42q69 0 162 26q118 33 152 86.5t73 53.5q35 0 62.5 -26.5t27.5 -61.5
q0 -111 -179 -191q-153 -68 -298 -68zM579 865q-122 0 -203 -94.5t-121 -284.5l307 146q181 88 258 153q-86 80 -241 80zM735 1267q0 -36 -28.5 -62.5t-64.5 -26.5q-43 0 -72 42l-100 149q-53 73 -124 128q-39 30 -39 71q0 36 26.5 64.5t62.5 28.5q62 0 202 -166
q137 -164 137 -228z" />
    <glyph glyph-name="ecircumflex" unicode="&#xea;" horiz-adv-x="1122" 
d="M606 -46q-226 0 -366 113q-153 125 -153 350q0 260 126 436q137 192 366 192q166 0 271 -56q129 -69 129 -212q0 -100 -113 -182q-50 -36 -212 -112l-382 -181q56 -83 139.5 -125t194.5 -42q69 0 162 26q118 33 152 86.5t73 53.5q35 0 62.5 -26.5t27.5 -61.5
q0 -111 -179 -191q-153 -68 -298 -68zM579 865q-122 0 -203 -94.5t-121 -284.5l307 146q181 88 258 153q-86 80 -241 80zM585 1690q55 0 132 -67q24 -21 109 -112l159 -170q26 -30 26 -61q0 -36 -27.5 -63.5t-64.5 -27.5q-33 0 -63 29q-80 90 -250 260q-254 -312 -326 -312
q-36 0 -63.5 28t-27.5 64q0 35 30 65q56 54 305 336q27 31 61 31z" />
    <glyph glyph-name="edieresis" unicode="&#xeb;" horiz-adv-x="1122" 
d="M606 -46q-226 0 -366 113q-153 125 -153 350q0 260 126 436q137 192 366 192q166 0 271 -56q129 -69 129 -212q0 -100 -113 -182q-50 -36 -212 -112l-382 -181q56 -83 139.5 -125t194.5 -42q69 0 162 26q118 33 152 86.5t73 53.5q35 0 62.5 -26.5t27.5 -61.5
q0 -111 -179 -191q-153 -68 -298 -68zM579 865q-122 0 -203 -94.5t-121 -284.5l307 146q181 88 258 153q-86 80 -241 80zM378 1469q131 0 131 -105q0 -30 -44 -58q-40 -25 -75 -25q-123 0 -123 103q0 29 37.5 57t73.5 28zM917 1477q34 0 69 -31.5t35 -61.5q0 -92 -143 -92
q-41 0 -73 21q-36 24 -36 63q0 69 45 89q25 12 103 12z" />
    <glyph glyph-name="iacute" unicode="&#xed;" horiz-adv-x="574" 
d="M375 454q0 -60 3.5 -179.5t3.5 -179.5q0 -44 -27 -72t-71 -28q-43 0 -70.5 28t-27.5 72q0 60 -3.5 179.5t-3.5 179.5q0 94 10 234.5t10 234.5q0 45 27.5 73t70.5 28t70.5 -28t27.5 -73q0 -94 -10 -234.5t-10 -234.5zM187 1187q-36 0 -63.5 28t-27.5 64q0 34 31 65
q43 42 131 159q66 86 147 143q27 19 53 19q36 0 63 -28.5t27 -64.5q0 -40 -38 -70q-70 -56 -135 -145q-68 -94 -129 -145q-28 -25 -59 -25z" />
    <glyph glyph-name="igrave" unicode="&#xec;" horiz-adv-x="574" 
d="M375 454q0 -60 3.5 -179.5t3.5 -179.5q0 -44 -27 -72t-71 -28q-43 0 -70.5 28t-27.5 72q0 60 -3.5 179.5t-3.5 179.5q0 94 10 234.5t10 234.5q0 45 27.5 73t70.5 28t70.5 -28t27.5 -73q0 -94 -10 -234.5t-10 -234.5zM453 1267q0 -36 -28.5 -62.5t-64.5 -26.5
q-43 0 -72 42l-100 149q-53 73 -124 128q-39 30 -39 71q0 36 26.5 64.5t62.5 28.5q62 0 202 -166q137 -164 137 -228z" />
    <glyph glyph-name="icircumflex" unicode="&#xee;" horiz-adv-x="574" 
d="M375 454q0 -60 3.5 -179.5t3.5 -179.5q0 -44 -27 -72t-71 -28q-43 0 -70.5 28t-27.5 72q0 60 -3.5 179.5t-3.5 179.5q0 94 10 234.5t10 234.5q0 45 27.5 73t70.5 28t70.5 -28t27.5 -73q0 -94 -10 -234.5t-10 -234.5zM254 1640q55 0 132 -67q24 -21 109 -112l159 -170
q26 -30 26 -61q0 -36 -27.5 -63.5t-64.5 -27.5q-33 0 -63 29q-80 90 -250 260q-254 -312 -326 -312q-36 0 -63.5 28t-27.5 64q0 35 30 65q56 54 305 336q27 31 61 31z" />
    <glyph glyph-name="idieresis" unicode="&#xef;" horiz-adv-x="574" 
d="M375 454q0 -60 3.5 -179.5t3.5 -179.5q0 -44 -27 -72t-71 -28q-43 0 -70.5 28t-27.5 72q0 60 -3.5 179.5t-3.5 179.5q0 94 10 234.5t10 234.5q0 45 27.5 73t70.5 28t70.5 -28t27.5 -73q0 -94 -10 -234.5t-10 -234.5zM-11 1372q131 0 131 -105q0 -30 -44 -58
q-40 -25 -75 -25q-123 0 -123 103q0 29 37.5 57t73.5 28zM528 1380q34 0 69 -31.5t35 -61.5q0 -92 -143 -92q-41 0 -73 21q-36 24 -36 63q0 69 45 89q25 12 103 12z" />
    <glyph glyph-name="ntilde" unicode="&#xf1;" horiz-adv-x="1072" 
d="M906 -71q-86 0 -97 94l-28 219q-14 117 -14 219q0 28 3.5 95t3.5 95q0 216 -80 216q-112 0 -214 -133q-92 -121 -144 -306q-2 -39 -9 -98q-6 -50 -6 -97q0 -30 6 -90t6 -90q0 -45 -27.5 -73t-70.5 -28q-44 0 -71 28t-27 73q0 30 -6.5 90t-6.5 90q0 103 14.5 285.5
t14.5 285.5q0 32 -3.5 95t-3.5 95q0 43 28.5 70.5t70.5 27.5q92 0 101 -130l3 -117q168 224 345 224q160 0 223 -141q43 -94 47 -278v-101l-1 -93q0 -83 21.5 -214.5t21.5 -213.5q0 -44 -28.5 -71.5t-71.5 -27.5zM432 1554q100 0 161 -58l83 -106q47 -58 112 -58q57 0 85 37
l46 88l20 59q14 29 60 29q75 0 75 -74q0 -36 -43 -121q-40 -80 -69 -110q-56 -57 -143 -57q-131 0 -205 57q-27 21 -88 107q-42 57 -94 57q-31 0 -55.5 -11.5t-42.5 -34.5l-44 -85q-25 -45 -65 -45q-31 0 -54 20.5t-23 51.5q0 11 3 23q28 102 101 165q78 66 180 66z" />
    <glyph glyph-name="oacute" unicode="&#xf3;" horiz-adv-x="1077" 
d="M520 -59q-168 0 -289 124q-135 138 -142 371q-6 226 114 398q140 203 390 203q200 0 303 -183q82 -148 79 -356q-3 -222 -116 -379q-128 -178 -339 -178zM580 834q-147 1 -229 -140q-65 -113 -65 -258t79 -226q66 -67 155 -67q104 0 179 76q85 84 90 227q14 387 -209 388
zM582 1187q-36 0 -63.5 28t-27.5 64q0 34 31 65q43 42 131 159q66 86 147 143q27 19 53 19q36 0 63 -28.5t27 -64.5q0 -40 -38 -70q-70 -56 -135 -145q-68 -94 -129 -145q-28 -25 -59 -25z" />
    <glyph glyph-name="ograve" unicode="&#xf2;" horiz-adv-x="1077" 
d="M520 -59q-168 0 -289 124q-135 138 -142 371q-6 226 114 398q140 203 390 203q200 0 303 -183q82 -148 79 -356q-3 -222 -116 -379q-128 -178 -339 -178zM580 834q-147 1 -229 -140q-65 -113 -65 -258t79 -226q66 -67 155 -67q104 0 179 76q85 84 90 227q14 387 -209 388
zM808 1267q0 -36 -28.5 -62.5t-64.5 -26.5q-43 0 -72 42l-100 149q-53 73 -124 128q-39 30 -39 71q0 36 26.5 64.5t62.5 28.5q62 0 202 -166q137 -164 137 -228z" />
    <glyph glyph-name="ocircumflex" unicode="&#xf4;" horiz-adv-x="1077" 
d="M520 -59q-168 0 -289 124q-135 138 -142 371q-6 226 114 398q140 203 390 203q200 0 303 -183q82 -148 79 -356q-3 -222 -116 -379q-128 -178 -339 -178zM580 834q-147 1 -229 -140q-65 -113 -65 -258t79 -226q66 -67 155 -67q104 0 179 76q85 84 90 227q14 387 -209 388
zM568 1690q55 0 132 -67q24 -21 109 -112l159 -170q26 -30 26 -61q0 -36 -27.5 -63.5t-64.5 -27.5q-33 0 -63 29q-80 90 -250 260q-254 -312 -326 -312q-36 0 -63.5 28t-27.5 64q0 35 30 65q56 54 305 336q27 31 61 31z" />
    <glyph glyph-name="odieresis" unicode="&#xf6;" horiz-adv-x="1077" 
d="M520 -59q-168 0 -289 124q-135 138 -142 371q-6 226 114 398q140 203 390 203q200 0 303 -183q82 -148 79 -356q-3 -222 -116 -379q-128 -178 -339 -178zM580 834q-147 1 -229 -140q-65 -113 -65 -258t79 -226q66 -67 155 -67q104 0 179 76q85 84 90 227q14 387 -209 388
zM376 1372q131 0 131 -105q0 -30 -44 -58q-40 -25 -75 -25q-123 0 -123 103q0 29 37.5 57t73.5 28zM915 1380q34 0 69 -31.5t35 -61.5q0 -92 -143 -92q-41 0 -73 21q-36 24 -36 63q0 69 45 89q25 12 103 12z" />
    <glyph glyph-name="otilde" unicode="&#xf5;" horiz-adv-x="1077" 
d="M520 -59q-168 0 -289 124q-135 138 -142 371q-6 226 114 398q140 203 390 203q200 0 303 -183q82 -148 79 -356q-3 -222 -116 -379q-128 -178 -339 -178zM580 834q-147 1 -229 -140q-65 -113 -65 -258t79 -226q66 -67 155 -67q104 0 179 76q85 84 90 227q14 387 -209 388
zM451 1554q100 0 161 -58l83 -106q47 -58 112 -58q57 0 85 37l46 88l20 59q14 29 60 29q75 0 75 -74q0 -36 -43 -121q-40 -80 -69 -110q-56 -57 -143 -57q-131 0 -205 57q-27 21 -88 107q-42 57 -94 57q-31 0 -55.5 -11.5t-42.5 -34.5l-44 -85q-25 -45 -65 -45
q-31 0 -54 20.5t-23 51.5q0 11 3 23q28 102 101 165q78 66 180 66z" />
    <glyph glyph-name="uacute" unicode="&#xfa;" 
d="M955 584q0 -72 1 -216t1 -216q0 -22 3.5 -67t3.5 -67q0 -43 -29 -70.5t-71 -27.5q-77 0 -98 95q-125 -65 -288 -65q-131 0 -217 58q-95 64 -113 187q-39 265 -39 472q0 137 30 312q14 87 95 87q43 0 72 -27.5t29 -70.5q0 -46 -14.5 -147t-14.5 -154q0 -167 11 -286
t33 -191q33 -18 65 -27.5t63 -9.5q134 0 283 43l-1 203l-2 194q0 216 19 375q11 92 97 92q43 0 72 -28t27 -70zM570 1187q-36 0 -63.5 28t-27.5 64q0 34 31 65q43 42 131 159q66 86 147 143q27 19 53 19q36 0 63 -28.5t27 -64.5q0 -40 -38 -70q-70 -56 -135 -145
q-68 -94 -129 -145q-28 -25 -59 -25z" />
    <glyph glyph-name="ugrave" unicode="&#xf9;" 
d="M955 584q0 -72 1 -216t1 -216q0 -22 3.5 -67t3.5 -67q0 -43 -29 -70.5t-71 -27.5q-77 0 -98 95q-125 -65 -288 -65q-131 0 -217 58q-95 64 -113 187q-39 265 -39 472q0 137 30 312q14 87 95 87q43 0 72 -27.5t29 -70.5q0 -46 -14.5 -147t-14.5 -154q0 -167 11 -286
t33 -191q33 -18 65 -27.5t63 -9.5q134 0 283 43l-1 203l-2 194q0 216 19 375q11 92 97 92q43 0 72 -28t27 -70zM766 1275q0 -36 -28.5 -62.5t-64.5 -26.5q-43 0 -72 42l-100 149q-53 73 -124 128q-39 30 -39 71q0 36 26.5 64.5t62.5 28.5q62 0 202 -166q137 -164 137 -228z
" />
    <glyph glyph-name="ucircumflex" unicode="&#xfb;" 
d="M955 584q0 -72 1 -216t1 -216q0 -22 3.5 -67t3.5 -67q0 -43 -29 -70.5t-71 -27.5q-77 0 -98 95q-125 -65 -288 -65q-131 0 -217 58q-95 64 -113 187q-39 265 -39 472q0 137 30 312q14 87 95 87q43 0 72 -27.5t29 -70.5q0 -46 -14.5 -147t-14.5 -154q0 -167 11 -286
t33 -191q33 -18 65 -27.5t63 -9.5q134 0 283 43l-1 203l-2 194q0 216 19 375q11 92 97 92q43 0 72 -28t27 -70zM520 1690q55 0 132 -67q24 -21 109 -112l159 -170q26 -30 26 -61q0 -36 -27.5 -63.5t-64.5 -27.5q-33 0 -63 29q-80 90 -250 260q-254 -312 -326 -312
q-36 0 -63.5 28t-27.5 64q0 35 30 65q56 54 305 336q27 31 61 31z" />
    <glyph glyph-name="udieresis" unicode="&#xfc;" 
d="M955 584q0 -72 1 -216t1 -216q0 -22 3.5 -67t3.5 -67q0 -43 -29 -70.5t-71 -27.5q-77 0 -98 95q-125 -65 -288 -65q-131 0 -217 58q-95 64 -113 187q-39 265 -39 472q0 137 30 312q14 87 95 87q43 0 72 -27.5t29 -70.5q0 -46 -14.5 -147t-14.5 -154q0 -167 11 -286
t33 -191q33 -18 65 -27.5t63 -9.5q134 0 283 43l-1 203l-2 194q0 216 19 375q11 92 97 92q43 0 72 -28t27 -70zM331 1464q131 0 131 -105q0 -30 -44 -58q-40 -25 -75 -25q-123 0 -123 103q0 29 37.5 57t73.5 28zM870 1472q34 0 69 -31.5t35 -61.5q0 -92 -143 -92
q-41 0 -73 21q-36 24 -36 63q0 69 45 89q25 12 103 12z" />
    <glyph glyph-name="dagger" unicode="&#x2020;" horiz-adv-x="1222" 
d="M667 -109q-1 -43 -28.5 -71t-71.5 -28q-97 0 -99 99v577l12 515l-137 -2q-146 0 -179 6q-113 20 -113 102q0 42 27.5 71.5t68.5 29.5q32 0 97 -5t98 -5l147 2l12 415q0 44 28 72t71 28q44 0 71.5 -28t27.5 -72l-12 -420q101 -5 155 -5q37 0 110.5 9t108.5 9q42 0 69 -30
t27 -71q0 -82 -120 -105q-51 -10 -187 -10l-171 5l-10 -517z" />
    <glyph glyph-name="degree" unicode="&#xb0;" horiz-adv-x="838" 
d="M413 1680q155 0 254 -104.5t99 -264.5q0 -142 -115 -242q-110 -95 -256 -95q-153 0 -244 109q-83 101 -83 252q0 149 105 250q101 95 240 95zM218 1335q0 -85 42 -144q49 -68 135 -68q84 0 151 52q71 56 71 136q0 98 -55.5 159t-148.5 61q-75 0 -133 -54
q-62 -58 -62 -142z" />
    <glyph glyph-name="cent" unicode="&#xa2;" horiz-adv-x="1276" 
d="M1107 609q-131 -327 -450 -334l1 -57q0 -186 -92 -186q-84 0 -84 88q0 87 4 184q-210 70 -291 211q-70 122 -70 358q0 189 121 362.5t300 225.5q-2 71 4 211q8 68 76 68q35 0 61.5 -25t26.5 -61l-2 -177q110 -11 204 -69q30 66 104 66q63 0 63 -65q0 -54 -31 -149
q-36 -111 -76 -111q-17 0 -45 25q-77 70 -99 86q-57 40 -123 48q-4 -173 -21 -433l-28 -432q120 5 186 74l110 161q34 48 72 48q34 0 60 -23.5t26 -57.5q0 -17 -7 -36zM291 873q0 -172 31 -242q40 -92 172 -151l49 801q-107 -52 -179.5 -170.5t-72.5 -237.5z" />
    <glyph glyph-name="sterling" unicode="&#xa3;" horiz-adv-x="1625" 
d="M234 890l72 1q-2 28 -2 55q0 274 141 458q158 206 437 206q161 0 294 -69q161 -84 161 -229q0 -36 -28 -61t-65 -25q-51 0 -81 60q-45 89 -119 123q-63 28 -175 28q-193 0 -297 -152q-90 -133 -90 -339q0 -21 1 -42q150 12 231 12q58 0 174 -6t174 -6q39 0 64 -25t25 -64
t-25 -64t-64 -25q-58 0 -174 6t-174 6q-79 0 -203 -10q61 -266 61 -351q0 -124 -40 -231h27q97 2 233 -58t232 -60q170 0 224 70q18 24 37 130q13 71 84 71q90 0 90 -96q0 -53 -21 -119q-76 -234 -414 -234q-98 0 -237 59t-237 59q-72 0 -158.5 -42t-100.5 -42
q-35 0 -61 26.5t-26 61.5q0 30 49 81q66 67 91 114q50 88 50 210q0 88 -58 338q-73 -4 -151 -4q-148 0 -148 93q0 38 25 64t62 26q19 0 55.5 -2t54.5 -2z" />
    <glyph glyph-name="section" unicode="&#xa7;" horiz-adv-x="1300" 
d="M1005 517q93 -104 93 -238q0 -179 -140 -274q-122 -82 -313 -82q-230 0 -368 94q-160 109 -160 321q0 90 89 90q59 0 83 -55l31 -105q61 -186 326 -186q111 0 184 42q90 52 90 155q0 136 -187 198l-348 112q-94 49 -141 129t-47 191q0 67 28.5 124.5t85.5 106.5
q-48 78 -48 181q0 154 134 243q116 77 278 77q233 0 383 -160q34 -37 34 -74q0 -35 -24 -62.5t-59 -27.5q-26 0 -133.5 79t-197.5 79q-78 0 -146 -36q-84 -43 -84 -117q0 -118 182 -209l292 -131q178 -107 178 -309q0 -48 -29 -97.5t-66 -58.5zM375 909q0 -108 103 -169
q64 -38 224.5 -79t213.5 -72q1 7 6.5 33t5.5 42q0 108 -196 211l-291 139q-22 -9 -44 -44.5t-22 -60.5z" />
    <glyph glyph-name="bullet" unicode="&#x2022;" horiz-adv-x="793" 
d="M183 758q0 83 58.5 142t141.5 59t141.5 -59t58.5 -142t-58.5 -141.5t-141.5 -58.5t-141.5 58.5t-58.5 141.5z" />
    <glyph glyph-name="paragraph" unicode="&#xb6;" horiz-adv-x="1421" 
d="M1326 1249q0 -173 -87 -706q-90 -560 -148 -668q-31 -59 -80 -59q-37 0 -65 25t-28 61q0 14 6 35q75 238 148 653q76 434 76 659q0 51 -15.5 151.5t-15.5 150.5q0 86 91 86q65 0 87 -77q31 -115 31 -311zM819 1428q-266 -63 -402 -178q-168 -144 -168 -392
q0 -135 144 -219q122 -71 269 -71q42 0 102 20q57 327 57 688zM995 1477l3 -97q0 -377 -50 -793q-63 -524 -131 -724q-22 -59 -81 -59q-37 0 -65 24.5t-28 61.5q0 11 4 28q23 92 44 238l35 240q-33 -6 -64 -6q-224 0 -397 120q-194 134 -194 348q0 251 142 433
q136 174 379 260l357 99q21 7 35 7q37 0 62 -28.5t25 -65.5q0 -64 -76 -86z" />
    <glyph glyph-name="germandbls" unicode="&#xdf;" horiz-adv-x="908" 
d="M502 1379q-100 0 -158.5 -95.5t-75.5 -286.5q-18 -209 -18 -451q0 -61 3.5 -183t3.5 -184q0 -154 -8 -201q-22 -135 -105 -135q-40 0 -69 26t-29 65q0 7 2 20q20 137 20 264q0 53 5 159t5 159q0 39 -1 116.5t-1 115.5q0 347 58 517q97 285 372 285q162 0 254 -126
q81 -112 81 -280q0 -145 -206 -349q125 -85 187.5 -220.5t62.5 -320.5q0 -174 -85 -261t-255 -87q-90 0 -160 46q-80 53 -80 138q0 77 65 77q30 0 79.5 -36.5t90.5 -36.5q83 0 118 31q39 34 39 118q0 191 -78 306q-40 58 -145 136q-78 58 -78 108q0 43 63 103l117 110
q63 72 63 144q0 105 -34 157t-103 52z" />
    <glyph glyph-name="registered" unicode="&#xae;" horiz-adv-x="1629" 
d="M269 844q0 -231 145 -351q131 -108 355 -108q220 0 394 148q194 165 195 421q1 200 -121 346q-129 154 -325 154q-321 0 -482 -152.5t-161 -457.5zM929 1631q261 0 439 -209q171 -200 171 -465q0 -328 -248 -547q-229 -203 -522 -203q-298 0 -481 159q-197 171 -197 478
q0 367 209 572q218 215 629 215zM664 1011q156 20 191 29q136 34 136 100q-45 33 -221 33h-39q-28 0 -46 -5q-5 -52 -21 -157zM851 858q57 -66 73 -81q42 -39 93 -57q70 -25 70 -85q0 -37 -25 -64.5t-61 -27.5q-74 0 -143 55q-41 32 -115 118q-72 82 -112 112
q-11 -71 -40 -211q-19 -73 -86 -73q-37 0 -64 24.5t-27 61.5q0 8 2 19l87 503q24 174 108 176q15 0 52.5 11.5t69.5 11.5q185 0 275 -26q162 -47 162 -184q0 -226 -319 -283z" />
    <glyph glyph-name="copyright" unicode="&#xa9;" horiz-adv-x="1629" 
d="M945 1438q-301 2 -491 -148q-186 -148 -186 -379q0 -265 147 -380q131 -104 403 -102q221 1 382 201q143 177 143 363q0 198 -93 314q-104 130 -305 131zM903 1620q289 0 458 -186q161 -177 161 -461q0 -248 -202 -475q-218 -244 -502 -247q-728 -8 -728 660
q0 272 248 490.5t565 218.5zM893 1139q-114 0 -204 -55q-93 -58 -93 -140q0 -57 65 -96q57 -34 118 -34q74 0 151.5 61.5t98.5 61.5q37 0 64 -28.5t27 -64.5q0 -70 -113.5 -138t-227.5 -70q-136 -3 -245 83q-116 91 -116 225q0 157 159 270q146 104 309 104q56 0 97 -28
q47 -32 47 -85q0 -77 -78 -77q-11 0 -30 5.5t-29 5.5z" />
    <glyph glyph-name="trademark" unicode="&#x2122;" horiz-adv-x="1808" 
d="M1745 920q0 -30 -24 -52t-54 -22q-72 0 -129 203l-65 272q-73 -201 -101 -262q-89 -195 -157 -195q-47 0 -67 66.5t-39 193.5q-21 137 -36 195q-129 -449 -233 -449q-30 0 -53.5 23t-23.5 53q0 22 18 48q70 98 119 268l84 281q20 52 69 52q96 0 146 -194l51 -272
q17 29 57 164q44 148 73 211q48 105 97 105q55 0 71 -61l67 -231l46 -182q27 -92 72 -175q12 -22 12 -40zM152 1592q36 0 108 -7t109 -7l325 6l78 5q48 3 78 3q79 0 79 -75q0 -68 -70 -74q-91 -8 -311 -13q-4 -62 3 -167q10 -124 10 -168q0 -31 13.5 -91.5t13.5 -82.5
q0 -31 -23.5 -51.5t-54.5 -20.5q-68 0 -82 72l-10 188l-14 163q-9 94 -6 157q-43 0 -124 7t-122 7q-75 0 -75 75q0 74 75 74z" />
    <glyph glyph-name="acute" unicode="&#xb4;" horiz-adv-x="1139" 
d="M304 1187q-36 0 -63.5 28t-27.5 64q0 34 31 65q43 42 131 159q66 86 147 143q27 19 53 19q36 0 63 -28.5t27 -64.5q0 -40 -38 -70q-70 -56 -135 -145q-68 -94 -129 -145q-28 -25 -59 -25z" />
    <glyph glyph-name="dieresis" unicode="&#xa8;" horiz-adv-x="1139" 
d="M332 1372q131 0 131 -105q0 -30 -44 -58q-40 -25 -75 -25q-123 0 -123 103q0 29 37.5 57t73.5 28zM871 1380q34 0 69 -31.5t35 -61.5q0 -92 -143 -92q-41 0 -73 21q-36 24 -36 63q0 69 45 89q25 12 103 12z" />
    <glyph glyph-name="notequal" unicode="&#x2260;" horiz-adv-x="1045" 
d="M328 83q-37 0 -64.5 24.5t-27.5 60.5q0 19 37 110q-43 -2 -71 -2q-92 0 -92 89q0 70 93 90q45 10 148 7l147 358l-175 1q-23 0 -68.5 -2.5t-67.5 -2.5q-38 0 -63 26t-25 64q0 94 156 94l306 -1l52 133q46 92 105 91q83 -1 83 -83q0 -39 -48 -142q127 0 127 -89
q0 -71 -71 -86q-15 -3 -126 -3l-142 -360l236 -4q38 0 63.5 -25.5t25.5 -63.5t-25.5 -63.5t-63.5 -25.5l-309 5l-50 -124q-40 -76 -90 -76z" />
    <glyph glyph-name="AE" unicode="&#xc6;" horiz-adv-x="2226" 
d="M1152 672q-106 -3 -272 -19l-272 -25q-87 -119 -257 -385l-121 -185q-33 -46 -80 -46q-40 0 -72 29.5t-32 69.5q0 27 19 57q311 508 539 774l272 346q180 219 316 282q34 16 70 16q42 0 72 -29q120 32 226.5 48t200.5 16q262 0 388 -58q67 -31 67 -96q0 -42 -28.5 -73.5
t-69.5 -31.5q-12 0 -31 5q-187 48 -326 48q-82 0 -179 -15t-209 -46q9 -63 9 -104q0 -140 -17 -382l438 42q186 20 237 20q45 0 74 -29.5t29 -74.5q0 -84 -91 -102l-238 -20l-462 -43q-9 -142 -9 -252q0 -226 32 -260q27 -28 157 -28q62 0 186.5 3.5t187.5 3.5q19 0 58 6
t59 6q106 0 106 -103q0 -79 -85 -101t-216 -23l-218 2q-291 0 -381 97q-86 93 -86 397q0 114 9 263zM781 844q245 24 384 27q17 242 17 379q0 30 -5 68q-92 -84 -206 -230z" />
    <glyph glyph-name="Oslash" unicode="&#xd8;" horiz-adv-x="1635" 
d="M1328 1099q-115 -108 -275 -280l-266 -288l-280 -295q131 -92 309 -92q250 0 407 253q135 219 135 484q0 132 -30 218zM388 363l414 442l418 437q-103 68 -314 68q-250 0 -420 -251q-152 -225 -152 -487q0 -115 54 -209zM177 -90q-37 0 -65.5 27.5t-28.5 64.5
q0 25 70 103l94 101q-117 158 -117 366q0 351 209 633q229 310 567 310q299 0 458 -122q146 149 173 149q37 0 65.5 -26t28.5 -62q0 -38 -150 -197q81 -144 81 -376q0 -352 -192 -630q-216 -312 -554 -312q-261 0 -452 148l-92 -102q-69 -75 -95 -75z" />
    <glyph glyph-name="infinity" unicode="&#x221e;" horiz-adv-x="1714" 
d="M953 648q143 -202 299 -193q88 5 124 58q32 46 32 146q0 73 -49.5 109.5t-149.5 36.5q-91 0 -157 -52q-25 -19 -99 -105zM854 770q86 98 161 137q84 44 205 44q153 0 246 -82q99 -86 99 -239q0 -154 -91 -239q-92 -85 -247 -82q-125 3 -220 76l-138 136l-8 7
q-77 -114 -149 -162q-88 -60 -214 -60q-140 0 -243 94q-108 98 -108 241q0 140 97.5 230.5t243.5 90.5q111 0 216 -68q52 -33 150 -124zM763 650q-83 82 -109 101q-83 61 -166 61q-84 0 -137.5 -52t-53.5 -133q0 -77 66 -122q58 -39 138 -39q135 0 262 184z" />
    <glyph glyph-name="plusminus" unicode="&#xb1;" horiz-adv-x="984" 
d="M913 643q0 -37 -24.5 -64.5t-61.5 -27.5q-12 0 -36.5 4t-36.5 4l-100 -2q-61 -2 -100 0q2 -41 2 -78q0 -123 -6 -153q-19 -94 -95 -94q-79 0 -79 90l-1 116l-1 115q-118 -7 -171 -7q-155 0 -155 92q0 64 51 80q21 6 104 6q54 0 171 7l-1 151q-1 164 94 164q37 0 64 -25
t27 -62q0 -18 -3.5 -54.5t-3.5 -55.5l1 -114l75 -3q20 0 61 2.5t61 2.5q164 0 164 -94zM755 -114q12 0 36 -4t36 -4q37 0 61.5 27.5t24.5 64.5q0 93 -164 93q-33 0 -98.5 -1t-98.5 -1q-65 0 -196 -5t-197 -5q-111 0 -111 -87q0 -92 155 -92q92 0 276 7t276 7z" />
    <glyph glyph-name="lessequal" unicode="&#x2264;" horiz-adv-x="781" 
d="M298 614q56 -41 138 -127q97 -101 133 -132t36 -68t-27 -65t-63 -28q-28 0 -56 21q-40 29 -171 166q-100 105 -193 141q-76 28 -76 83q0 50 69 83q93 45 204 162q155 162 184.5 186.5t59.5 24.5q36 0 63.5 -27.5t27.5 -64.5q0 -34 -30 -64q-96 -102 -299 -291zM639 -120
q39 0 77 29t38 64q0 58 -55 74q-25 8 -104 8q-74 0 -224.5 -2t-224.5 -2q-111 0 -111 -87q0 -92 155 -92q80 0 225 4t224 4z" />
    <glyph glyph-name="greaterequal" unicode="&#x2265;" horiz-adv-x="781" 
d="M736 663q0 -36 -37 -71q-239 -221 -499 -388q-28 -18 -53 -18q-36 0 -62.5 28.5t-26.5 64.5q0 40 39 70l388 296q-89 59 -220 181q-160 151 -160 209q0 36 28 63t64 27q37 0 67 -34q228 -255 413 -351q59 -30 59 -77zM639 -120q39 0 77 29t38 64q0 58 -55 74
q-25 8 -104 8q-74 0 -224.5 -2t-224.5 -2q-111 0 -111 -87q0 -92 155 -92q80 0 225 4t224 4z" />
    <glyph glyph-name="yen" unicode="&#xa5;" horiz-adv-x="1302" 
d="M575 573v36q-28 40 -91 140q-33 0 -223 20q-78 8 -78 83q0 78 84 78q56 0 119 -6q-253 434 -253 451q0 34 26.5 58.5t59.5 24.5q42 0 69 -41q83 -128 123 -207q52 -106 119 -215l123 -207q130 154 275 458q30 50 82 152q24 54 75 54q34 0 60.5 -23.5t26.5 -58.5
q0 -29 -103 -214l-130 -233l111 13q83 0 83 -83q0 -84 -83 -84q-35 0 -103 -10t-101 -11q-38 -46 -110 -144v-46q44 -2 120 -2q19 0 56.5 5.5t56.5 5.5q35 0 57.5 -25t22.5 -60q0 -66 -67 -81q-49 -11 -246 -3v-203q0 -29 4.5 -82.5t4.5 -81.5q0 -84 -82 -84q-83 0 -83 84
q0 31 -3 94.5t-3 94.5v180q-72 7 -128 8q-170 2 -171 92q-2 80 103 80q17 0 47.5 -2t41.5 -2q78 0 108 -3z" />
    <glyph glyph-name="mu1" unicode="&#xb5;" 
d="M318 -24l-113 -319q-26 -63 -85 -63q-39 0 -68.5 26t-29.5 65q0 23 77 240q82 228 92 287l11 136q18 173 49 319q35 162 96 312q35 87 114 87q82 0 82 -76q0 -38 -41 -155q-48 -138 -54 -168q-59 -271 -59 -437q0 -22 1 -40q29 -18 59 -27.5t61 -9.5q134 0 293 43l77 389
q48 231 103 383q33 92 116 92q82 0 82 -73q0 -26 -45 -190l-57 -213l-90 -432q-5 -45 -21 -134q-24 -98 -121 -98q-77 0 -78 95q-138 -65 -302 -65q-43 0 -80 6.5t-69 19.5z" />
    <glyph glyph-name="partialdiff" unicode="&#x2202;" horiz-adv-x="1042" 
d="M364 359q0 -87 62 -154.5t131 -67.5q128 0 192 102t64 306q0 56 -57 218l-149 -44q-107 -39 -165 -110q-78 -95 -78 -250zM689 924q-124 265 -247 372l-83 66q-50 46 -50 84q0 36 27 64t64 28q29 0 58 -24q185 -150 353 -441q180 -312 180 -528q0 -239 -95 -396
q-115 -190 -339 -190q-151 0 -263 126q-109 121 -109 274q0 213 149 372q142 152 355 193z" />
    <glyph glyph-name="summation" unicode="&#x2211;" horiz-adv-x="1530" 
d="M269 -280q-21 0 -62 -7t-59 -7q-41 0 -72 31t-31 71q0 42 101 148l138 147l128 205q121 179 281 322q-62 58 -132 176q-63 105 -218 250q-172 162 -229 240q-28 37 -28 74q0 59 60 91q48 25 113 25q168 0 505.5 -7t505.5 -7q41 0 68.5 -29.5t27.5 -71.5q0 -104 -183 -104
q-74 0 -219.5 8.5t-219.5 8.5l-345 -1l180 -179q100 -107 153.5 -198.5t85.5 -119.5l101 -87q35 -34 35 -73q0 -51 -59 -92q-136 -96 -274 -293l-234 -327q247 -16 500 -16q79 0 235 -6t234 -6q44 0 72 -28t28 -72q0 -43 -28 -71t-72 -28q-181 0 -543.5 16.5t-543.5 16.5z
" />
    <glyph glyph-name="product" unicode="&#x220f;" horiz-adv-x="1860" 
d="M1546 1355q-14 -160 -14 -456q0 -146 10.5 -439t10.5 -440q0 -33 9 -99t9 -99q0 -43 -28.5 -70.5t-71.5 -27.5q-86 0 -98 93q-19 147 -19 203q0 147 -10 440t-10 439q0 297 13 466q-12 0 -35 -4l-36 -5l-205 -3l-524 9l13 -165l16 -777q0 -49 -6 -136q-7 -96 -8 -137
v-106l1 -107q0 -107 -7 -136q-20 -75 -95 -75q-43 0 -71.5 27t-28.5 70l2 332l8 134q6 85 6 134l-16 771l-13 176l-144 -2q-43 0 -71 28t-28 71q0 104 160 104q17 0 46 -1t41 -1q78 0 235 -6.5t236 -6.5l833 -2q44 0 72 -28t28 -71q0 -100 -131 -100z" />
    <glyph glyph-name="pi" unicode="&#x3c0;" horiz-adv-x="1286" 
d="M1048 847l-61 -413q-18 -146 -18 -244q10 -17 66 -60q44 -34 44 -69q0 -94 -94 -94q-81 0 -145 57.5t-64 136.5q0 105 19 259l64 428l-310 10l-63 -452q-4 -125 -30 -371q-13 -77 -90 -77q-40 0 -68.5 26t-28.5 65l90 811q-88 -3 -143 -48.5t-81 -45.5q-38 0 -68 28.5
t-30 66.5q0 27 20 57q88 130 354 130q80 0 275 -4t275 -4q32 0 96.5 2t97.5 2q99 0 99 -95q0 -70 -75 -91q-38 -11 -131 -11z" />
    <glyph glyph-name="integral" unicode="&#x222b;" horiz-adv-x="1433" 
d="M865 609q0 -54 -21 -284.5t-30 -286.5q-38 -212 -94 -306q-82 -136 -245 -136q-156 0 -273 105q-122 109 -122 262q0 114 99 114q100 0 100 -113q0 -84 66 -129q58 -40 143 -38l5 -1q161 -1 161 1022q0 415 34 561q78 341 352 341q84 0 174 -59q99 -64 99 -143
q0 -40 -31.5 -69.5t-72.5 -29.5q-43 0 -83.5 51t-85.5 51q-94 0 -141 -124.5t-47 -374.5q0 -69 6.5 -206.5t6.5 -206.5z" />
    <glyph glyph-name="ordfeminine" unicode="&#xaa;" horiz-adv-x="1079" 
d="M649 1479l-178 4q-64 4 -117.5 -54.5t-53.5 -122.5q0 -47 27 -115q31 -78 66 -78q116 1 185 114q59 97 71 252zM861 1532l49 -538q2 -48 -28 -75.5t-71 -27.5q-95 0 -99 95l-5 90q-123 -167 -314 -167q-114 0 -208 148q-84 131 -84 249q0 149 115 263t268 112
q156 -1 187 -5q122 -16 160 -81q25 -24 30 -63z" />
    <glyph glyph-name="ordmasculine" unicode="&#xba;" horiz-adv-x="920" 
d="M861 1348q0 -228 -105.5 -342t-317.5 -114q-173 0 -292 136q-106 122 -106 264q0 147 140 278.5t299 130.5q124 -1 256 -129q126 -123 126 -224zM451 1494q-77 0 -144.5 -68.5t-67.5 -133.5q0 -87 62.5 -152t148.5 -65q93 0 156 92q57 82 57 181q0 52 -59 97
q-64 49 -153 49z" />
    <glyph glyph-name="Omega" unicode="&#x3a9;" horiz-adv-x="1966" 
d="M161 -140q-41 0 -68.5 30t-27.5 72q0 75 80 95q66 17 362 50l-144 352q-60 178 -60 380q0 329 313 569q290 222 630 222q298 0 421 -176q100 -144 100 -443q0 -270 -92 -494q-84 -205 -269 -423q321 0 408 -17t87 -97q0 -42 -27.5 -71.5t-69.5 -29.5q-56 0 -171.5 8.5
t-173.5 8.5q-31 0 -92.5 -2.5t-91.5 -2.5q-48 0 -87 53q-37 49 -37 99q0 53 99 174l140 167q179 256 179 713q0 173 -74 253q-77 81 -249 81q-255 0 -489 -166q-255 -182 -255 -426q0 -173 55 -332l124 -309q5 -13 42 -74q28 -47 28 -72q0 -111 -89 -127q-369 -65 -501 -65z
" />
    <glyph glyph-name="ae" unicode="&#xe6;" horiz-adv-x="1867" 
d="M1289 865q-245 0 -324 -379l292 133q173 82 273 166q-86 80 -241 80zM806 54q-42 -40 -114 -71q-76 -32 -136 -32q-217 0 -355 147q-134 143 -134 362q0 235 179 405q175 167 412 167q103 0 242 -49q32 -11 39 -113q56 82 156 130q94 45 194 45q160 0 265 -53
q135 -70 135 -215q0 -102 -117 -185q-47 -33 -208 -109l-382 -181q112 -167 334 -167q81 0 169 27q105 32 145 85.5t73 53.5q35 0 62.5 -26.5t27.5 -61.5q0 -116 -188 -195q-153 -64 -289 -64q-232 0 -339 113q5 -20 10 -68q4 -41 -77 -41q-53 0 -75 26q-13 15 -29 70z
M790 828l-70 35q-19 7 -77 7q-158 0 -272 -134q-108 -127 -108 -288q0 -126 86 -228q91 -107 215 -107q67 0 123.5 25.5t102.5 76.5q-22 126 -22 168q0 281 22 445z" />
    <glyph glyph-name="oslash" unicode="&#xf8;" horiz-adv-x="1077" 
d="M767 662l-405 -455q66 -64 152 -64q104 0 179 76q85 85 90 227q5 130 -16 216zM301 304q126 141 412 471q-51 58 -139 59q-147 1 -228 -140q-66 -113 -66 -258q0 -74 21 -132zM125 -52q-26 0 -49 17t-22 40q3 51 84 126q9 8 21 20q-71 121 -76 285q-6 226 114 398
q140 203 390 203q156 0 254 -113l16 18q90 104 113 104q24 0 42 -19t18 -43q0 -20 -87 -123q-4 -5 -36 -41q65 -140 62 -322q-3 -222 -116 -379q-128 -178 -339 -178q-163 0 -282 117q-20 -22 -23 -26q-62 -84 -84 -84z" />
    <glyph glyph-name="questiondown" unicode="&#xbf;" horiz-adv-x="1073" 
d="M642 1097q41 0 72 -31t31 -72q0 -68 -128 -169l-239 -181q-129 -111 -129 -203q0 -116 109 -214q105 -95 223 -95q63 0 160 64.5t120 64.5q41 0 70.5 -33t29.5 -74q0 -79 -153 -157q-137 -69 -227 -69q-201 0 -365 156.5t-164 356.5q0 146 94 259q56 68 208.5 177.5
t212.5 178.5q35 41 75 41zM697 1478q44 0 79.5 -29.5t35.5 -72.5q0 -62 -33 -112q-37 -56 -95 -56q-96 0 -96 118q0 55 26 100q32 52 83 52z" />
    <glyph glyph-name="exclamdown" unicode="&#xa1;" horiz-adv-x="487" 
d="M122 23v1112q0 90 89 90t89 -90q0 -40 2 -121.5t2 -121.5q0 -145 -2 -434.5t-2 -434.5q0 -89 -89 -89t-89 89zM120 1516q0 36 28.5 62.5t65.5 26.5q39 0 80 -52q38 -49 38 -90q0 -36 -28.5 -62t-64.5 -26q-39 0 -80 52q-39 49 -39 89z" />
    <glyph glyph-name="logicalnot" unicode="&#xac;" horiz-adv-x="984" 
d="M905 337q0 -44 -22 -66.5t-67 -22.5q-89 0 -89 89l-1 115l-1 116q-376 -22 -522 -22q-155 0 -155 92q0 65 55 81q19 5 100 5q70 0 211.5 4t212.5 4q20 0 61 2.5t61 2.5q82 0 123 -23.5t41 -70.5q2 -43 -3 -153z" />
    <glyph glyph-name="radical" unicode="&#x221a;" horiz-adv-x="1244" 
d="M283 -31q-75 57 -157 235q-76 166 -76 239q0 42 30.5 69t71.5 27q71 0 96 -80q33 -108 83 -200l120 358q65 207 94 367l49 288q33 175 76 280q28 68 91 68q56 0 169 5t169 5q104 0 104 -100q0 -67 -58 -90q-35 -13 -115 -13q-31 0 -93 6t-94 5q-37 -128 -102 -489
q-39 -218 -205 -705l-78 -242q-27 -71 -93 -71q-50 0 -82 38z" />
    <glyph glyph-name="florin" unicode="&#x192;" horiz-adv-x="874" 
d="M-12 -361q-39 0 -65 28.5t-26 68.5q0 70 74 90q161 42 234 140q58 79 97 258l81 415q-118 -9 -146 -9q-82 0 -82 72q0 92 104 115l176 13q93 346 176 483q149 248 414 248q122 0 122 -70q0 -120 -150 -120q-161 0 -260 -192q-55 -105 -110 -334q162 11 205 11
q136 0 136 -74q0 -119 -163 -119q-15 0 -44 1t-42 1l-141 -10l-72 -368q-41 -226 -99 -359q-46 -109 -163 -188q-103 -70 -232 -98q-12 -3 -24 -3z" />
    <glyph glyph-name="approxequal" unicode="&#x2248;" horiz-adv-x="1269" 
d="M564 1199q82 0 150 -67l104 -127q62 -70 130 -76q39 -3 75.5 114t95.5 117q36 0 61 -23.5t25 -59.5q0 -125 -76 -222q-79 -100 -184 -100t-192 71q-50 41 -117 132q-52 72 -72 72q-83 0 -187 -180q-28 -48 -74 -48q-34 0 -61 24t-27 59q0 18 10 39q50 112 133 187
q98 88 206 88zM471 690q83 0 150 -67l105 -127q62 -71 130 -76q39 -3 75.5 114t95.5 117q36 0 60.5 -23.5t25.5 -59.5q0 -125 -76 -222q-79 -100 -184 -100t-192 71q-50 41 -117 132q-53 71 -73 71q-82 0 -186 -179q-28 -48 -74 -48q-34 0 -61 24t-27 58q0 19 10 40
q50 112 133 187q98 88 205 88z" />
    <glyph glyph-name="uni0394" unicode="&#x394;" horiz-adv-x="1627" 
d="M862 1663q61 0 113 -101l66 -158l255 -560q147 -328 238 -568q67 -176 67 -230q0 -118 -155 -118q-68 0 -172 11l-172 18q-100 8 -227 8q-74 0 -221 -2t-221 -2q-42 0 -127 -7t-127 -7q-81 0 -81 71q0 44 126 310l159 338l235 586q33 99 112 291q57 120 132 120z
M1398 125q-92 257 -254 607l-280 596q-137 -368 -261 -662l-110 -256q-68 -154 -122 -251l506 4q175 0 295 -12q75 -11 226 -26z" />
    <glyph glyph-name="guillemotleft" unicode="&#xab;" horiz-adv-x="1183" 
d="M298 614q56 -41 138 -127q97 -101 133 -132t36 -68t-27 -65t-63 -28q-28 0 -56 21q-40 29 -171 166q-100 105 -193 141q-76 28 -76 83q0 50 69 83q93 45 204 162q155 162 184.5 186.5t59.5 24.5q36 0 63.5 -27.5t27.5 -64.5q0 -34 -30 -64q-96 -102 -299 -291zM752 592
q56 -41 138 -126q96 -101 132 -132.5t36 -68.5q0 -36 -27 -64.5t-63 -28.5q-27 0 -55 21q-40 29 -172 167q-100 105 -193 140q-75 29 -75 83q0 51 68 84q94 44 205 161q154 162 184 187t60 25q36 0 63.5 -28t27.5 -64q0 -34 -31 -65q-96 -102 -298 -291z" />
    <glyph glyph-name="guillemotright" unicode="&#xbb;" horiz-adv-x="1183" 
d="M802 614q-56 -41 -138 -127q-97 -101 -132.5 -132t-35.5 -68t27 -65t63 -28q27 0 55 21q40 29 171 166q101 105 193 141q76 28 76 83q0 50 -69 83q-93 45 -204 162q-155 162 -184.5 186.5t-59.5 24.5q-36 0 -63.5 -27.5t-27.5 -64.5q0 -34 31 -64q95 -102 298 -291z
M348 592q-56 -41 -137 -126q-97 -101 -133 -132.5t-36 -68.5q0 -36 27 -64.5t63 -28.5q27 0 55 21q40 29 172 167q100 105 193 140q75 29 75 83q0 51 -68 84q-94 44 -205 161q-154 162 -184 187t-60 25q-36 0 -63.5 -28t-27.5 -64q0 -34 31 -65q96 -102 298 -291z" />
    <glyph glyph-name="ellipsis" unicode="&#x2026;" horiz-adv-x="1383" 
d="M1131 -59q-37 0 -66 18q-34 21 -34 56q0 15 8 39.5t9 35.5q9 71 96 71q98 0 98 -76q0 -144 -111 -144zM696 -56q-97 0 -97 74v65q0 74 97 74q96 0 96 -74v-65q0 -74 -96 -74zM275 -67q-97 0 -97 74v56q0 75 97 75t97 -75v-56q0 -74 -97 -74z" />
    <glyph glyph-name="nonbreakingspace" unicode="&#xa0;" horiz-adv-x="612" 
 />
    <glyph glyph-name="Agrave" unicode="&#xc0;" horiz-adv-x="1498" 
d="M1250 -30q-92 0 -160 236q-26 90 -65 315q-102 -14 -267 -50l-266 -55q-50 -131 -171 -383q-32 -56 -87 -56q-40 0 -71.5 29t-31.5 72q0 48 151 365q-17 26 -17 60q0 81 98 104q114 214 288 492q237 379 295 379q79 0 108 -110l63 -336l149 -695l57 -158q29 -81 29 -108
q0 -43 -31 -72t-71 -29zM897 1113l-286 -461q121 31 367 75zM1099 1727q0 -36 -28.5 -62.5t-64.5 -26.5q-43 0 -72 42l-100 149q-53 73 -124 128q-39 30 -39 71q0 36 26.5 64.5t62.5 28.5q62 0 202 -166q137 -164 137 -228z" />
    <glyph glyph-name="Atilde" unicode="&#xc3;" horiz-adv-x="1498" 
d="M1250 -30q-92 0 -160 236q-26 90 -65 315q-102 -14 -267 -50l-266 -55q-50 -131 -171 -383q-32 -56 -87 -56q-40 0 -71.5 29t-31.5 72q0 48 151 365q-17 26 -17 60q0 81 98 104q114 214 288 492q237 379 295 379q79 0 108 -110l63 -336l149 -695l57 -158q29 -81 29 -108
q0 -43 -31 -72t-71 -29zM897 1113l-286 -461q121 31 367 75zM805 2005q100 0 161 -58l83 -106q47 -58 112 -58q57 0 85 37l46 88l20 59q14 29 60 29q75 0 75 -74q0 -36 -43 -121q-40 -80 -69 -110q-56 -57 -143 -57q-131 0 -205 57q-27 21 -88 107q-42 57 -94 57
q-31 0 -55.5 -11.5t-42.5 -34.5l-44 -85q-25 -45 -65 -45q-31 0 -54 20.5t-23 51.5q0 11 3 23q28 102 101 165q78 66 180 66z" />
    <glyph glyph-name="Otilde" unicode="&#xd5;" horiz-adv-x="1635" 
d="M802 -61q-282 0 -478 169q-208 180 -208 464q0 346 205 629q229 314 571 314q329 0 489 -148q167 -154 167 -486q0 -346 -188 -624q-216 -318 -558 -318zM892 1310q-245 0 -415 -244q-157 -224 -157 -494q0 -193 143 -314q137 -114 339 -114q243 0 401 245
q141 219 141 492q0 239 -107 336q-102 93 -345 93zM811 2007q100 0 161 -58l83 -106q47 -58 112 -58q57 0 85 37l46 88l20 59q14 29 60 29q75 0 75 -74q0 -36 -43 -121q-40 -80 -69 -110q-56 -57 -143 -57q-131 0 -205 57q-27 21 -88 107q-42 57 -94 57q-31 0 -55.5 -11.5
t-42.5 -34.5l-44 -85q-25 -45 -65 -45q-31 0 -54 20.5t-23 51.5q0 11 3 23q28 102 101 165q78 66 180 66z" />
    <glyph glyph-name="OE" unicode="&#x152;" horiz-adv-x="2445" 
d="M906 1310q-245 0 -415 -244q-157 -224 -157 -494q0 -193 143 -314q137 -114 339 -114q243 0 401 245q141 219 141 492q0 239 -107 336q-102 93 -345 93zM2332 1369q-14 0 -31 5q-169 48 -327 48q-164 0 -388 -61q5 -33 7 -59t2 -45q0 -140 -16 -382l438 41q192 20 237 20
q44 0 73.5 -28t29.5 -75q0 -90 -91 -102l-239 -20l-462 -43q-8 -143 -8 -253q0 -220 32 -259q23 -28 156 -28q62 0 187 3.5t187 3.5q20 0 59 6t58 6q107 0 107 -103q0 -84 -86 -101q-94 -19 -406 -19q-270 0 -362 54q-105 63 -125 264q-107 -151 -244 -227t-304 -76
q-282 0 -478 169q-208 180 -208 464q0 346 205 629q229 314 571 314q159 0 278.5 -34.5t199.5 -103.5q-8 61 -8 96q0 120 99 120q43 0 72 -30q240 65 427 65q243 0 389 -59q67 -27 67 -95q0 -40 -26 -71q-29 -34 -72 -34z" />
    <glyph glyph-name="oe" unicode="&#x153;" horiz-adv-x="1837" 
d="M876 153q-129 -212 -362 -212q-168 0 -289 124q-135 138 -142 371q-6 226 114 398q140 203 390 203q219 0 319 -216q138 224 388 224q166 0 271 -56q129 -70 129 -212q0 -100 -113 -182q-50 -36 -212 -112l-382 -181q112 -167 334 -167q69 0 162 26q118 33 152 86.5
t73 53.5q35 0 62.5 -26.5t27.5 -61.5q0 -111 -179 -191q-153 -68 -298 -68q-310 0 -445 199zM1535 785q-86 80 -241 80q-244 0 -324 -379l307 146q181 88 258 153zM783 446q14 387 -209 388q-147 1 -228 -140q-66 -113 -66 -258t79 -226q66 -67 155 -67q104 0 179 76
q85 84 90 227z" />
    <glyph glyph-name="endash" unicode="&#x2013;" horiz-adv-x="904" 
d="M397 759q56 0 166.5 -8.5t165.5 -8.5q43 0 71 -28t28 -71t-28 -71t-71 -28q-55 0 -165.5 8t-166.5 8q-132 0 -237 -15q-9 -1 -17 -1q-43 0 -71 28t-28 73q0 78 82 96t271 18z" />
    <glyph glyph-name="emdash" unicode="&#x2014;" horiz-adv-x="1808" 
d="M391 747q122 0 366.5 -6.5t366.5 -6.5l234 6l205 8l57 -1q88 0 88 -91q0 -111 -174 -111q-27 0 -88.5 3t-88.5 3q-198 0 -594 -2.5t-594 -2.5q-102 0 -102 99q0 93 96 99q41 3 228 3z" />
    <glyph glyph-name="quotedblleft" unicode="&#x201c;" horiz-adv-x="806" 
d="M575 1089q-67 0 -88 67q-106 342 -106 370q0 39 28 64t67 25q71 0 88 -74l59 -191q45 -141 45 -171q0 -38 -27.5 -64t-65.5 -26zM254 1092q-60 0 -84 58q-14 32 -56 178q-43 150 -43 171q0 38 28.5 63.5t67.5 25.5q64 0 85 -66l51 -178l45 -161q0 -38 -28.5 -64.5
t-65.5 -26.5z" />
    <glyph glyph-name="quotedblright" unicode="&#x201d;" horiz-adv-x="806" 
d="M542 998q-40 0 -67 25.5t-27 65.5q0 112 97 423q22 68 86 68q39 0 67.5 -26t28.5 -64l-59 -220q-23 -87 -36 -187q-10 -85 -90 -85zM198 998q-40 0 -67 25.5t-27 65.5q0 112 97 423q22 68 86 68q39 0 67.5 -26t28.5 -64l-59 -220q-23 -87 -36 -187q-10 -85 -90 -85z" />
    <glyph glyph-name="quoteleft" unicode="&#x2018;" horiz-adv-x="369" 
d="M200 1094q-75 0 -89 101q-34 248 -34 289q0 103 82 103q76 0 89 -95q35 -245 35 -295q0 -103 -83 -103z" />
    <glyph glyph-name="quoteright" unicode="&#x2019;" horiz-adv-x="369" 
d="M138 1094q-77 0 -80 92q-1 36 23 144l38 175q14 79 76 79q36 0 58.5 -27t22.5 -64q2 -84 -53 -304q-24 -95 -85 -95z" />
    <glyph glyph-name="quoteright" unicode="&#x201b;" horiz-adv-x="369" 
d="M138 1094q-77 0 -80 92q-1 36 23 144l38 175q14 79 76 79q36 0 58.5 -27t22.5 -64q2 -84 -53 -304q-24 -95 -85 -95z" />
    <glyph glyph-name="divide" unicode="&#xf7;" horiz-adv-x="984" 
d="M627 732q20 0 61 2.5t61 2.5q164 0 164 -94q0 -37 -25 -64.5t-61 -27.5q-12 0 -36 4t-37 4q-92 0 -275.5 -6.5t-275.5 -6.5q-155 0 -155 92q0 63 51 79q22 7 104 7q58 0 175 6.5t176 6.5q12 0 36.5 -2.5t36.5 -2.5zM453 1140q89 0 89 -89t-91 -89q-90 0 -90 89t92 89z
M380 276q0 37 26 63.5t63 26.5t63 -26.5t26 -63.5q0 -36 -26 -62.5t-63 -26.5t-63 26.5t-26 62.5z" />
    <glyph glyph-name="lozenge" unicode="&#x25ca;" horiz-adv-x="1479" 
d="M764 206l213 310q125 179 201 270q-176 168 -372 430l-111 155l-97 -135l-308 -508q217 -189 474 -522zM1430 793q0 -54 -45 -97q-151 -140 -469 -634q-92 -144 -144 -144q-46 0 -82 48q-345 467 -584 652q-46 36 -46 86q0 26 14 50q292 523 523 815q52 66 109 66
q33 0 64 -34q58 -64 145 -181q97 -130 178 -224l202 -220q135 -151 135 -183z" />
    <glyph glyph-name="ydieresis" unicode="&#xff;" horiz-adv-x="883" 
d="M1011 892l-346 -748q-128 -273 -196 -457l-66 -194q-26 -72 -90 -72q-42 0 -72.5 27.5t-30.5 68.5q0 100 216 579l-358 689l-45 73q-27 46 -27 77q0 41 31.5 72t70.5 31q46 0 71 -35q170 -236 365 -672l148 345q80 179 154 308q32 56 84 56q41 0 72.5 -29t31.5 -69
q0 -22 -13 -50zM243 1372q131 0 131 -105q0 -30 -44 -58q-40 -25 -75 -25q-123 0 -123 103q0 29 37.5 57t73.5 28zM782 1380q34 0 69 -31.5t35 -61.5q0 -92 -143 -92q-41 0 -73 21q-36 24 -36 63q0 69 45 89q25 12 103 12z" />
    <glyph glyph-name="Ydieresis" unicode="&#x178;" horiz-adv-x="1301" 
d="M1172 1279q-24 -38 -64 -117l-172 -425q-100 -239 -188 -418l-125 -223l-53 -108q-33 -58 -89 -58q-39 0 -71 29t-32 72q0 34 94 213l123 225q-179 231 -232 364q-45 113 -150 271q-144 216 -169 261q-15 27 -15 54q0 43 31.5 72.5t71.5 29.5q49 0 82 -47l80 -124
q106 -157 140 -214q75 -123 117 -228q33 -83 141 -227l229 558q39 69 108 213q28 68 93 68q40 0 71.5 -28t31.5 -72q0 -46 -53 -141zM417 1827q131 0 131 -105q0 -30 -44 -58q-40 -25 -75 -25q-123 0 -123 103q0 29 37.5 57t73.5 28zM956 1835q34 0 69 -31.5t35 -61.5
q0 -92 -143 -92q-41 0 -73 21q-36 24 -36 63q0 69 45 89q25 12 103 12z" />
    <glyph glyph-name="fraction" unicode="&#x2044;" horiz-adv-x="1661" 
d="M127 -54q-40 0 -70.5 31t-30.5 72q0 36 35 72l209 211l207 230q122 135 216 222q131 122 329 387q210 279 323 392l69 86q43 51 84 51t72.5 -29t31.5 -69q0 -25 -14 -52q-26 -47 -88 -109q-76 -77 -96 -102l-308 -391q-176 -215 -333 -370q-63 -61 -283 -313
q-181 -206 -287 -292q-33 -27 -66 -27z" />
    <glyph glyph-name="fraction" unicode="&#x2215;" horiz-adv-x="1661" 
d="M127 -54q-40 0 -70.5 31t-30.5 72q0 36 35 72l209 211l207 230q122 135 216 222q131 122 329 387q210 279 323 392l69 86q43 51 84 51t72.5 -29t31.5 -69q0 -25 -14 -52q-26 -47 -88 -109q-76 -77 -96 -102l-308 -391q-176 -215 -333 -370q-63 -61 -283 -313
q-181 -206 -287 -292q-33 -27 -66 -27z" />
    <glyph glyph-name="Euro" unicode="&#x20ac;" horiz-adv-x="1250" 
d="M1247 1296q0 -46 -25 -77q-28 -34 -73 -34q-63 0 -96 75q-30 68 -56 82q-21 12 -100 12q-200 0 -382 -325l447 -1q39 0 64 -25t25 -64q0 -38 -25 -63.5t-64 -25.5h-525q-37 -108 -43 -170l354 -4q38 0 63.5 -25t25.5 -64t-25.5 -64t-63.5 -25q-43 0 -370 4
q7 -168 64 -245q65 -86 214 -86q94 0 174 50q26 16 114 92q58 50 98 50q41 0 71 -32t30 -73q0 -43 -38 -79q-123 -112 -202 -155q-109 -58 -247 -58q-229 0 -358 154q-120 144 -120 383q-15 -1 -66 -4q-40 -3 -65 -3q-92 0 -92 89q0 72 89 90q22 4 147 6q13 85 37 169
q-184 -4 -186 -4q-37 0 -62 26t-25 64q0 72 101 89q24 4 237 4q234 522 604 522q96 0 156 -19q35 51 92 51q71 0 93 -115q9 -51 9 -172z" />
    <glyph glyph-name="guilsinglleft" unicode="&#x2039;" horiz-adv-x="781" 
d="M385 614q56 -41 138 -127q96 -101 132 -132t36 -68t-27 -65t-63 -28q-27 0 -55 21q-40 29 -171 166q-101 105 -194 141q-75 28 -75 83q0 50 68 83q94 45 205 162q154 162 184 186.5t60 24.5q36 0 63.5 -27.5t27.5 -64.5q0 -34 -31 -64q-96 -102 -298 -291z" />
    <glyph glyph-name="guilsinglright" unicode="&#x203a;" horiz-adv-x="781" 
d="M435 614q-56 -41 -138 -127q-97 -101 -132.5 -132t-35.5 -68t27 -65t63 -28q27 0 55 21q40 29 171 166q101 105 194 141q75 28 75 83q0 50 -69 83q-93 45 -204 162q-155 162 -184.5 186.5t-59.5 24.5q-36 0 -63.5 -27.5t-27.5 -64.5q0 -34 31 -64q95 -102 298 -291z" />
    <glyph glyph-name="fi" unicode="&#xfb01;" horiz-adv-x="1349" 
d="M1105 1266q-48 0 -83 34t-35 82t35 82t83 34t82.5 -34t34.5 -82t-34.5 -82t-82.5 -34zM1150 454q0 -60 3.5 -179.5t3.5 -179.5q0 -44 -27 -72t-71 -28q-43 0 -70.5 28t-27.5 72q0 60 -3.5 179.5t-3.5 179.5q0 90 7 199l11 184l-75 2q-62 0 -369 -24l-8 -228q0 -62 4 -186
t4 -185q0 -190 -22 -296q-17 -80 -93 -80q-41 0 -70 26.5t-29 66.5q0 8 2 20q21 130 21 283l-3 273v290q-125 -10 -158 -10q-101 0 -101 97q0 99 175 104l96 3q3 56 15 152q26 222 112 327q104 127 325 127q143 0 143 -97q0 -96 -130 -96q-242 0 -271 -336l-3 -62
q360 25 458 25q175 0 175 -110q0 -94 -10 -234.5t-10 -234.5z" />
    <glyph glyph-name="fl" unicode="&#xfb02;" horiz-adv-x="1343" 
d="M1041 1446q-47 5 -52 5q-279 0 -369 -98q-62 -67 -80 -283q-5 -54 -8 -177q170 12 220 12q159 0 159 -100q0 -102 -158 -97l-77 3l-153 -11q-3 -62 -3 -113q0 -62 4 -186t4 -185q0 -190 -22 -296q-17 -80 -93 -80q-41 0 -70 26.5t-29 66.5q0 8 2 20q21 130 21 283l-5 215
l-3 233q-125 -10 -158 -10q-101 0 -101 97q0 99 175 104l96 3l20 267q27 232 130 328q138 130 494 143q25 1 77 -3q58 -4 77 -4q99 0 99 -100q0 -158 -5 -361.5t-5 -361.5l-15 -497q0 -79 -8 -232q-10 -100 -98 -100q-98 0 -98 102q0 121 11 363.5t11 363.5l5 341z" />
    <glyph glyph-name="daggerdbl" unicode="&#x2021;" horiz-adv-x="1222" 
d="M470 665l18 468l-138 -1q-146 0 -179 6q-113 19 -113 101q0 43 27.5 72.5t69.5 29.5q31 0 96 -5.5t98 -5.5l147 2l5 265q0 44 28 72t71 28q44 0 71.5 -28t27.5 -72l-5 -270q101 -5 155 -5q37 0 110.5 9.5t109.5 9.5q41 0 68.5 -30t27.5 -72q0 -81 -121 -105
q-50 -9 -187 -9l-171 4l-18 -469q208 0 308 -10q92 -10 92 -98q0 -43 -27.5 -71.5t-69.5 -28.5q-51 0 -152 5l-152 5v-571q0 -43 -28 -71t-72 -28q-43 0 -71 28t-28 71v577q-37 2 -66 2q-86 0 -161 -16q-15 -3 -26 -3q-41 0 -68 30.5t-27 71.5q0 115 250 115z" />
    <glyph glyph-name="periodcentered" unicode="&#xb7;" horiz-adv-x="510" 
d="M267 592q-52 0 -88 36t-36 88q0 51 36 87.5t88 36.5q51 0 87.5 -36.5t36.5 -87.5q0 -52 -36.5 -88t-87.5 -36z" />
    <glyph glyph-name="periodcentered" unicode="&#x2219;" horiz-adv-x="510" 
d="M267 592q-52 0 -88 36t-36 88q0 51 36 87.5t88 36.5q51 0 87.5 -36.5t36.5 -87.5q0 -52 -36.5 -88t-87.5 -36z" />
    <glyph glyph-name="quotesinglbase" unicode="&#x201a;" horiz-adv-x="612" 
d="M171 -194q-90 0 -90 94q0 65 86 192q89 132 147 132q36 0 64 -27t28 -63t-70 -118q-72 -86 -77 -125q-10 -85 -88 -85z" />
    <glyph glyph-name="quotedblbase" unicode="&#x201e;" horiz-adv-x="843" 
d="M171 -194q-90 0 -90 94q0 65 86 192q89 132 147 132q36 0 64 -27t28 -63t-70 -118q-72 -86 -77 -125q-10 -85 -88 -85zM526 -194q-90 0 -90 94q0 65 86 192q89 132 147 132q36 0 64 -27t28 -63t-70 -118q-72 -86 -77 -125q-10 -85 -88 -85z" />
    <glyph glyph-name="perthousand" unicode="&#x2030;" horiz-adv-x="2542" 
d="M443 1041q-139 0 -220 97q-76 91 -76 232q0 98 101 186q98 86 198 86q145 0 230 -96q83 -92 83 -239q0 -121 -100 -196q-92 -70 -216 -70zM443 1474q-45 0 -85 -29q-44 -32 -44 -75q0 -80 32.5 -120.5t96.5 -40.5q52 0 95 22q53 28 53 76q0 84 -37 125.5t-111 41.5z
M486 -30q-34 0 -60 24t-26 58q0 14 6 33q49 138 157 353q133 265 169 349l270 600q27 65 42 95q27 55 57.5 88t63.5 33q34 0 60.5 -25.5t26.5 -59.5q0 -20 -18 -50q-36 -61 -79 -159l-71 -162l-198 -425l-224 -472q-31 -77 -101 -227q-29 -53 -75 -53zM1260 -19
q-137 0 -227 82q-93 84 -93 220q0 148 84 246q89 103 234 103q137 0 239 -77q112 -85 112 -217q0 -153 -98 -255t-251 -102zM1258 464q-73 0 -114 -55q-36 -50 -36 -126q0 -67 43.5 -101t130.5 -34q80 0 119.5 47.5t39.5 142.5q0 60 -64 96q-54 30 -119 30zM2022 -16
q-137 0 -227 82q-93 85 -93 220q0 149 83 246q89 103 235 103q136 0 238 -77q112 -85 112 -217q0 -153 -98 -255t-250 -102zM2020 468q-74 0 -115 -56q-36 -50 -36 -126q0 -67 44 -101t131 -34q80 0 119.5 47.5t39.5 142.5q0 60 -64 96q-54 31 -119 31z" />
    <glyph glyph-name="Acircumflex" unicode="&#xc2;" horiz-adv-x="1498" 
d="M1250 -30q-92 0 -160 236q-26 90 -65 315q-102 -14 -267 -50l-266 -55q-50 -131 -171 -383q-32 -56 -87 -56q-40 0 -71.5 29t-31.5 72q0 48 151 365q-17 26 -17 60q0 81 98 104q114 214 288 492q237 379 295 379q79 0 108 -110l63 -336l149 -695l57 -158q29 -81 29 -108
q0 -43 -31 -72t-71 -29zM897 1113l-286 -461q121 31 367 75zM913 2090q55 0 132 -67q24 -21 109 -112l159 -170q26 -30 26 -61q0 -36 -27.5 -63.5t-64.5 -27.5q-33 0 -63 29q-80 90 -250 260q-254 -312 -326 -312q-36 0 -63.5 28t-27.5 64q0 35 30 65q56 54 305 336
q27 31 61 31z" />
    <glyph glyph-name="Ecircumflex" unicode="&#xca;" horiz-adv-x="1279" 
d="M1115 1346q-14 0 -31 5q-169 48 -326 48q-82 0 -179 -15t-209 -46q9 -65 9 -104q0 -139 -17 -382l438 42q193 20 237 20t74 -28t30 -75q0 -91 -92 -102l-238 -21l-462 -42q-4 -71 -6.5 -134.5t-2.5 -118.5q0 -221 32 -260q24 -28 157 -28q62 0 186.5 3.5t187.5 3.5
q20 0 59 6.5t58 6.5q106 0 106 -104q0 -84 -85 -101q-94 -19 -407 -19q-310 0 -398 82q-96 89 -96 410q0 64 3 140t8 164q-11 23 -11 49q0 34 19 61q20 289 20 427q0 37 -10 108.5t-10 108.5q0 119 100 119q42 0 72 -29q120 32 226.5 48t200.5 16q243 0 388 -58
q67 -27 67 -96q0 -40 -26 -71q-29 -34 -72 -34zM751 2257q55 0 132 -67q24 -21 109 -112l159 -170q26 -30 26 -61q0 -36 -27.5 -63.5t-64.5 -27.5q-33 0 -63 29q-80 90 -250 260q-254 -312 -326 -312q-36 0 -63.5 28t-27.5 64q0 35 30 65q56 54 305 336q27 31 61 31z" />
    <glyph glyph-name="Aacute" unicode="&#xc1;" horiz-adv-x="1498" 
d="M1250 -30q-92 0 -160 236q-26 90 -65 315q-102 -14 -267 -50l-266 -55q-50 -131 -171 -383q-32 -56 -87 -56q-40 0 -71.5 29t-31.5 72q0 48 151 365q-17 26 -17 60q0 81 98 104q114 214 288 492q237 379 295 379q79 0 108 -110l63 -336l149 -695l57 -158q29 -81 29 -108
q0 -43 -31 -72t-71 -29zM897 1113l-286 -461q121 31 367 75zM931 1630q-36 0 -63.5 28t-27.5 64q0 34 31 65q43 42 131 159q66 86 147 143q27 19 53 19q36 0 63 -28.5t27 -64.5q0 -40 -38 -70q-70 -56 -135 -145q-68 -94 -129 -145q-28 -25 -59 -25z" />
    <glyph glyph-name="Edieresis" unicode="&#xcb;" horiz-adv-x="1279" 
d="M1115 1346q-14 0 -31 5q-169 48 -326 48q-82 0 -179 -15t-209 -46q9 -65 9 -104q0 -139 -17 -382l438 42q193 20 237 20t74 -28t30 -75q0 -91 -92 -102l-238 -21l-462 -42q-4 -71 -6.5 -134.5t-2.5 -118.5q0 -221 32 -260q24 -28 157 -28q62 0 186.5 3.5t187.5 3.5
q20 0 59 6.5t58 6.5q106 0 106 -104q0 -84 -85 -101q-94 -19 -407 -19q-310 0 -398 82q-96 89 -96 410q0 64 3 140t8 164q-11 23 -11 49q0 34 19 61q20 289 20 427q0 37 -10 108.5t-10 108.5q0 119 100 119q42 0 72 -29q120 32 226.5 48t200.5 16q243 0 388 -58
q67 -27 67 -96q0 -40 -26 -71q-29 -34 -72 -34zM522 1940q131 0 131 -105q0 -30 -44 -58q-40 -25 -75 -25q-123 0 -123 103q0 29 37.5 57t73.5 28zM1061 1948q34 0 69 -31.5t35 -61.5q0 -92 -143 -92q-41 0 -73 21q-36 24 -36 63q0 69 45 89q25 12 103 12z" />
    <glyph glyph-name="Egrave" unicode="&#xc8;" horiz-adv-x="1279" 
d="M1115 1346q-14 0 -31 5q-169 48 -326 48q-82 0 -179 -15t-209 -46q9 -65 9 -104q0 -139 -17 -382l438 42q193 20 237 20t74 -28t30 -75q0 -91 -92 -102l-238 -21l-462 -42q-4 -71 -6.5 -134.5t-2.5 -118.5q0 -221 32 -260q24 -28 157 -28q62 0 186.5 3.5t187.5 3.5
q20 0 59 6.5t58 6.5q106 0 106 -104q0 -84 -85 -101q-94 -19 -407 -19q-310 0 -398 82q-96 89 -96 410q0 64 3 140t8 164q-11 23 -11 49q0 34 19 61q20 289 20 427q0 37 -10 108.5t-10 108.5q0 119 100 119q42 0 72 -29q120 32 226.5 48t200.5 16q243 0 388 -58
q67 -27 67 -96q0 -40 -26 -71q-29 -34 -72 -34zM955 1836q0 -36 -28.5 -62.5t-64.5 -26.5q-43 0 -72 42l-100 149q-53 73 -124 128q-39 30 -39 71q0 36 26.5 64.5t62.5 28.5q62 0 202 -166q137 -164 137 -228z" />
    <glyph glyph-name="Iacute" unicode="&#xcd;" horiz-adv-x="1119" 
d="M957 1246q-64 0 -161 13l-161 21q-23 -291 -23 -556q0 -70 4 -173t4 -173q0 -94 -7 -171l315 4q42 0 70.5 -29.5t28.5 -72.5q0 -44 -28.5 -73.5t-70.5 -29.5q-56 0 -168 -2.5t-168 -2.5q-66 0 -197.5 -18.5t-198.5 -18.5q-42 0 -70.5 29.5t-28.5 72.5t28.5 73t70.5 30
q65 0 215 21q10 81 10 185q0 69 -6.5 168.5t-6.5 167.5q0 231 28 577l-130 -4l-130 -3q-43 0 -72 29t-29 74q0 93 94 102q81 8 303 8q199 0 499 -43q89 -13 89 -107q0 -47 -34 -75q-30 -23 -69 -23zM524 1657q-36 0 -63.5 28t-27.5 64q0 34 31 65q43 42 131 159
q66 86 147 143q27 19 53 19q36 0 63 -28.5t27 -64.5q0 -40 -38 -70q-70 -56 -135 -145q-68 -94 -129 -145q-28 -25 -59 -25z" />
    <glyph glyph-name="Icircumflex" unicode="&#xce;" horiz-adv-x="1119" 
d="M957 1246q-64 0 -161 13l-161 21q-23 -291 -23 -556q0 -70 4 -173t4 -173q0 -94 -7 -171l315 4q42 0 70.5 -29.5t28.5 -72.5q0 -44 -28.5 -73.5t-70.5 -29.5q-56 0 -168 -2.5t-168 -2.5q-66 0 -197.5 -18.5t-198.5 -18.5q-42 0 -70.5 29.5t-28.5 72.5t28.5 73t70.5 30
q65 0 215 21q10 81 10 185q0 69 -6.5 168.5t-6.5 167.5q0 231 28 577l-130 -4l-130 -3q-43 0 -72 29t-29 74q0 93 94 102q81 8 303 8q199 0 499 -43q89 -13 89 -107q0 -47 -34 -75q-30 -23 -69 -23zM574 2177q55 0 132 -67q24 -21 109 -112l159 -170q26 -30 26 -61
q0 -36 -27.5 -63.5t-64.5 -27.5q-33 0 -63 29q-80 90 -250 260q-254 -312 -326 -312q-36 0 -63.5 28t-27.5 64q0 35 30 65q56 54 305 336q27 31 61 31z" />
    <glyph glyph-name="Idieresis" unicode="&#xcf;" horiz-adv-x="1119" 
d="M957 1246q-64 0 -161 13l-161 21q-23 -291 -23 -556q0 -70 4 -173t4 -173q0 -94 -7 -171l315 4q42 0 70.5 -29.5t28.5 -72.5q0 -44 -28.5 -73.5t-70.5 -29.5q-56 0 -168 -2.5t-168 -2.5q-66 0 -197.5 -18.5t-198.5 -18.5q-42 0 -70.5 29.5t-28.5 72.5t28.5 73t70.5 30
q65 0 215 21q10 81 10 185q0 69 -6.5 168.5t-6.5 167.5q0 231 28 577l-130 -4l-130 -3q-43 0 -72 29t-29 74q0 93 94 102q81 8 303 8q199 0 499 -43q89 -13 89 -107q0 -47 -34 -75q-30 -23 -69 -23zM334 1842q131 0 131 -105q0 -30 -44 -58q-40 -25 -75 -25q-123 0 -123 103
q0 29 37.5 57t73.5 28zM873 1850q34 0 69 -31.5t35 -61.5q0 -92 -143 -92q-41 0 -73 21q-36 24 -36 63q0 69 45 89q25 12 103 12z" />
    <glyph glyph-name="Igrave" unicode="&#xcc;" horiz-adv-x="1119" 
d="M957 1246q-64 0 -161 13l-161 21q-23 -291 -23 -556q0 -70 4 -173t4 -173q0 -94 -7 -171l315 4q42 0 70.5 -29.5t28.5 -72.5q0 -44 -28.5 -73.5t-70.5 -29.5q-56 0 -168 -2.5t-168 -2.5q-66 0 -197.5 -18.5t-198.5 -18.5q-42 0 -70.5 29.5t-28.5 72.5t28.5 73t70.5 30
q65 0 215 21q10 81 10 185q0 69 -6.5 168.5t-6.5 167.5q0 231 28 577l-130 -4l-130 -3q-43 0 -72 29t-29 74q0 93 94 102q81 8 303 8q199 0 499 -43q89 -13 89 -107q0 -47 -34 -75q-30 -23 -69 -23zM754 1767q0 -36 -28.5 -62.5t-64.5 -26.5q-43 0 -72 42l-100 149
q-53 73 -124 128q-39 30 -39 71q0 36 26.5 64.5t62.5 28.5q62 0 202 -166q137 -164 137 -228z" />
    <glyph glyph-name="Oacute" unicode="&#xd3;" horiz-adv-x="1635" 
d="M802 -61q-282 0 -478 169q-208 180 -208 464q0 346 205 629q229 314 571 314q329 0 489 -148q167 -154 167 -486q0 -346 -188 -624q-216 -318 -558 -318zM892 1310q-245 0 -415 -244q-157 -224 -157 -494q0 -193 143 -314q137 -114 339 -114q243 0 401 245
q141 219 141 492q0 239 -107 336q-102 93 -345 93zM969 1637q-36 0 -63.5 28t-27.5 64q0 34 31 65q43 42 131 159q66 86 147 143q27 19 53 19q36 0 63 -28.5t27 -64.5q0 -40 -38 -70q-70 -56 -135 -145q-68 -94 -129 -145q-28 -25 -59 -25z" />
    <glyph glyph-name="Ocircumflex" unicode="&#xd4;" horiz-adv-x="1635" 
d="M802 -61q-282 0 -478 169q-208 180 -208 464q0 346 205 629q229 314 571 314q329 0 489 -148q167 -154 167 -486q0 -346 -188 -624q-216 -318 -558 -318zM892 1310q-245 0 -415 -244q-157 -224 -157 -494q0 -193 143 -314q137 -114 339 -114q243 0 401 245
q141 219 141 492q0 239 -107 336q-102 93 -345 93zM980 2140q55 0 132 -67q24 -21 109 -112l159 -170q26 -30 26 -61q0 -36 -27.5 -63.5t-64.5 -27.5q-33 0 -63 29q-80 90 -250 260q-254 -312 -326 -312q-36 0 -63.5 28t-27.5 64q0 35 30 65q56 54 305 336q27 31 61 31z" />
    <glyph glyph-name="Ograve" unicode="&#xd2;" horiz-adv-x="1635" 
d="M802 -61q-282 0 -478 169q-208 180 -208 464q0 346 205 629q229 314 571 314q329 0 489 -148q167 -154 167 -486q0 -346 -188 -624q-216 -318 -558 -318zM892 1310q-245 0 -415 -244q-157 -224 -157 -494q0 -193 143 -314q137 -114 339 -114q243 0 401 245
q141 219 141 492q0 239 -107 336q-102 93 -345 93zM1221 1737q0 -36 -28.5 -62.5t-64.5 -26.5q-43 0 -72 42l-100 149q-53 73 -124 128q-39 30 -39 71q0 36 26.5 64.5t62.5 28.5q62 0 202 -166q137 -164 137 -228z" />
    <glyph glyph-name="Uacute" unicode="&#xda;" horiz-adv-x="1509" 
d="M790 -40q-311 0 -464 179q-124 144 -156 426q-15 127 -15 507q0 140 6 226q6 91 18 127q25 73 90 73q92 0 92 -169v-587q0 -606 424 -606q399 0 399 1020v98q-1 60 -1 80q0 62 22 109q28 60 83 60q100 0 100 -137q0 -41 1 -124v-124q0 -1158 -599 -1158zM767 1643
q-36 0 -63.5 28t-27.5 64q0 34 31 65q43 42 131 159q66 86 147 143q27 19 53 19q36 0 63 -28.5t27 -64.5q0 -40 -38 -70q-70 -56 -135 -145q-68 -94 -129 -145q-28 -25 -59 -25z" />
    <glyph glyph-name="Ucircumflex" unicode="&#xdb;" horiz-adv-x="1509" 
d="M790 -40q-311 0 -464 179q-124 144 -156 426q-15 127 -15 507q0 140 6 226q6 91 18 127q25 73 90 73q92 0 92 -169v-587q0 -606 424 -606q399 0 399 1020v98q-1 60 -1 80q0 62 22 109q28 60 83 60q100 0 100 -137q0 -41 1 -124v-124q0 -1158 -599 -1158zM818 2146
q55 0 132 -67q24 -21 109 -112l159 -170q26 -30 26 -61q0 -36 -27.5 -63.5t-64.5 -27.5q-33 0 -63 29q-80 90 -250 260q-254 -312 -326 -312q-36 0 -63.5 28t-27.5 64q0 35 30 65q56 54 305 336q27 31 61 31z" />
    <glyph glyph-name="Ugrave" unicode="&#xd9;" horiz-adv-x="1509" 
d="M790 -40q-311 0 -464 179q-124 144 -156 426q-15 127 -15 507q0 140 6 226q6 91 18 127q25 73 90 73q92 0 92 -169v-587q0 -606 424 -606q399 0 399 1020v98q-1 60 -1 80q0 62 22 109q28 60 83 60q100 0 100 -137q0 -41 1 -124v-124q0 -1158 -599 -1158zM927 1723
q0 -36 -28.5 -62.5t-64.5 -26.5q-43 0 -72 42l-100 149q-53 73 -124 128q-39 30 -39 71q0 36 26.5 64.5t62.5 28.5q62 0 202 -166q137 -164 137 -228z" />
    <glyph glyph-name="dotlessi" unicode="&#x131;" horiz-adv-x="574" 
d="M375 454q0 -60 3.5 -179.5t3.5 -179.5q0 -44 -27 -72t-71 -28q-43 0 -70.5 28t-27.5 72q0 60 -3.5 179.5t-3.5 179.5q0 94 10 234.5t10 234.5q0 45 27.5 73t70.5 28t70.5 -28t27.5 -73q0 -94 -10 -234.5t-10 -234.5z" />
    <glyph glyph-name="circumflex" unicode="&#x2c6;" horiz-adv-x="1139" 
d="M590 1690q55 0 132 -67q24 -21 109 -112l159 -170q26 -30 26 -61q0 -36 -27.5 -63.5t-64.5 -27.5q-33 0 -63 29q-80 90 -250 260q-254 -312 -326 -312q-36 0 -63.5 28t-27.5 64q0 35 30 65q56 54 305 336q27 31 61 31z" />
    <glyph glyph-name="tilde" unicode="&#x2dc;" horiz-adv-x="1139" 
d="M454 1554q100 0 161 -58l83 -106q47 -58 112 -58q57 0 85 37l46 88l20 59q14 29 60 29q75 0 75 -74q0 -36 -43 -121q-40 -80 -69 -110q-56 -57 -143 -57q-131 0 -205 57q-27 21 -88 107q-42 57 -94 57q-31 0 -55.5 -11.5t-42.5 -34.5l-44 -85q-25 -45 -65 -45
q-31 0 -54 20.5t-23 51.5q0 11 3 23q28 102 101 165q78 66 180 66z" />
    <glyph glyph-name="macron" unicode="&#x2c9;" horiz-adv-x="1139" 
d="M413 1344q39 0 118.5 -4.5t118.5 -4.5q41 0 122 2t121 2q78 0 78 -75q0 -60 -65 -73l-112 -5h-155q-48 0 -144 3t-145 3q-72 0 -72 76q0 51 46 67q24 9 89 9z" />
    <glyph glyph-name="breve" unicode="&#x2d8;" horiz-adv-x="1139" 
d="M572 1329q293 0 336 160q17 63 72 63q32 0 55.5 -21t21.5 -52l-2 -14q-12 -152 -176 -228q-128 -58 -307 -58q-142 0 -249 96q-110 98 -110 239q0 75 74 75q75 0 75 -75q0 -78 67 -133q63 -52 143 -52z" />
    <glyph glyph-name="dotaccent" unicode="&#x2d9;" horiz-adv-x="1139" 
d="M560 1278q0 -36 -34 -65.5t-71 -29.5q-32 0 -85.5 48t-53.5 79q0 37 36 66q33 28 70 28q31 0 84.5 -48.5t53.5 -77.5z" />
    <glyph glyph-name="ring" unicode="&#x2da;" horiz-adv-x="1139" 
d="M594 1333q86 3 126 24q67 36 67 132q0 58 -54 91q-45 29 -107 29q-217 0 -213 -160q1 -46 61 -82t120 -34zM263 1449q0 145 103 229q99 80 260 80q125 0 214 -70q97 -77 97 -199q0 -148 -89.5 -224t-268.5 -79q-136 -2 -226 76q-90 77 -90 187z" />
    <glyph glyph-name="cedilla" unicode="&#xb8;" horiz-adv-x="1139" 
d="M865 -196q0 -124 -60.5 -186.5t-181.5 -62.5q-85 0 -161 32q-96 42 -96 115q0 54 68 54q36 0 81.5 -24.5t96.5 -24.5q49 1 73 24t24 68q0 60 -70 110q-56 40 -125 57q-65 15 -65 73q0 76 72 76q120 0 230 -95q114 -98 114 -216z" />
    <glyph glyph-name="hungarumlaut" unicode="&#x2dd;" horiz-adv-x="1139" 
d="M539 1595q30 0 53.5 -23t23.5 -53q0 -25 -20 -49q-39 -47 -125 -129q-89 -84 -126 -128q-26 -30 -58 -30q-30 0 -53.5 22.5t-23.5 53.5q0 37 117 156l156 153q26 27 56 27zM875 1564q30 0 52 -23.5t22 -54.5t-37 -62l-149 -142q-105 -99 -142 -99q-30 0 -52.5 24
t-22.5 54q0 33 31 58l147 142q108 103 151 103z" />
    <glyph glyph-name="ogonek" unicode="&#x2db;" horiz-adv-x="1139" 
d="M447 -77q0 -36 26 -75q27 -43 62 -43q101 0 173 37q22 12 39 12q31 0 52.5 -24t21.5 -55q0 -63 -116 -96q-82 -23 -170 -23q-98 0 -169 86q-68 81 -68 181q0 82 73 164.5t154 82.5q31 0 51.5 -23t20.5 -54q0 -44 -75 -81t-75 -89z" />
    <glyph glyph-name="caron" unicode="&#x2c7;" horiz-adv-x="1139" 
d="M609 1359l220 197q24 20 49 20q30 0 53 -23.5t23 -53.5t-26 -55q-285 -268 -328 -268q-31 0 -66 37l-50 62l-117 134q-83 103 -83 144q0 30 24 52t55 22q39 0 63 -40q33 -55 183 -228z" />
    <glyph glyph-name="Lslash" unicode="&#x141;" horiz-adv-x="1128" 
d="M335 746l-16 -335l-12 -138q-8 -84 -7 -138v-23h16q231 -2 644 123q17 5 32 5q41 0 69 -31.5t28 -73.5q0 -64 -64 -94q-112 -53 -352 -95q-223 -39 -367 -39q-107 0 -153 37q-52 42 -52 148q0 96 12 251l17 251q-124 -91 -160 -91q-40 0 -69.5 31.5t-29.5 72.5
q0 47 45 80l223 161l8 591q0 43 28.5 73t70.5 30q43 0 71.5 -30t28.5 -73l-5 -453q130 77 174 77q41 0 69 -31.5t28 -72.5q0 -58 -60 -88q-121 -58 -217 -125z" />
    <glyph glyph-name="lslash" unicode="&#x142;" horiz-adv-x="465" 
d="M338 683l-12 -436q0 -64 -6 -190q-12 -92 -94 -92q-95 0 -95 96q0 91 7 234l10 234q-103 -67 -143 -67q-38 0 -65 30t-27 68q0 52 53 82q100 54 184 125l5 329l3 329q0 41 26.5 67.5t67.5 26.5t67.5 -26.5t26.5 -67.5l-5 -470l53 62q34 33 69 33q38 0 68 -28.5t30 -66.5
q0 -64 -223 -272z" />
    <glyph glyph-name="Scaron" unicode="&#x160;" horiz-adv-x="1420" 
d="M135 249q-1 42 28.5 68.5t72.5 26.5q49 0 86 -56q51 -76 91 -103q85 -56 247 -56q155 0 288 67q170 86 170 239q0 126 -143 199q-121 63 -299 68q-158 6 -269 69q-142 81 -142 232q0 178 202 325q193 139 399 139q97 0 219 -33q162 -43 162 -110q0 -88 -90 -88
q-40 0 -140 21.5t-155 20.5q-156 -2 -265 -77q-112 -77 -112 -187q0 -83 148 -117q55 -13 213 -24q229 -17 358 -144q118 -116 118 -283q0 -238 -220 -380q-191 -123 -443 -123q-183 0 -335 70q-186 86 -189 236zM882 1810l220 197q24 20 49 20q30 0 53 -23.5t23 -53.5
t-26 -55q-285 -268 -328 -268q-31 0 -66 37l-50 62l-117 134q-83 103 -83 144q0 30 24 52t55 22q39 0 63 -40q33 -55 183 -228z" />
    <glyph glyph-name="scaron" unicode="&#x161;" horiz-adv-x="826" 
d="M816 770q-55 0 -77 37q-15 26 -26 108q-75 -19 -231 -70q-161 -64 -162 -158q30 -11 59 -16q230 -41 342 -113q163 -105 163 -304q0 -163 -141 -246q-117 -68 -296 -68q-131 0 -250 44q-154 56 -154 156q0 40 31.5 70t71.5 30q31 0 80 -48q24 -23 108 -38q67 -12 113 -12
q84 0 148 20q93 29 93 92q0 136 -190 184l-104 23q-133 29 -189 68q-81 56 -81 169q0 209 197 298q60 27 192 64.5t189 63.5q41 18 89 18q43 0 70.5 -28t27.5 -73q0 -29 12.5 -85t12.5 -85q0 -45 -27.5 -73t-70.5 -28zM514 1359l220 197q24 20 49 20q30 0 53 -23.5t23 -53.5
t-26 -55q-285 -268 -328 -268q-31 0 -66 37l-50 62l-117 134q-83 103 -83 144q0 30 24 52t55 22q39 0 63 -40q33 -55 183 -228z" />
    <glyph glyph-name="Zcaron" unicode="&#x17d;" horiz-adv-x="1420" 
d="M1266 1251l-135 -92q-182 -141 -412 -451l-351 -511q-25 -38 -49 -70l389 15q255 12 390 12q132 0 195 -12q81 -16 84 -82q2 -49 -32 -78q-30 -25 -75 -25q-29 0 -87 3.5t-87 3.5q-152 0 -456.5 -7.5t-456.5 -7.5q-115 0 -115 101q0 66 62 166l107 149l361 502
q223 295 415 458l-350 -20h-404q-11 0 -32.5 -1.5t-31.5 -1.5q-106 0 -106 103q0 68 54 90q33 14 109 14q69 0 205.5 -14.5t205.5 -14.5q77 0 230.5 10t231.5 10q257 0 257 -97q0 -66 -116 -152zM764 1907l220 197q24 20 49 20q30 0 53 -23.5t23 -53.5t-26 -55
q-285 -268 -328 -268q-31 0 -66 37l-50 62l-117 134q-83 103 -83 144q0 30 24 52t55 22q39 0 63 -40q33 -55 183 -228z" />
    <glyph glyph-name="zcaron" unicode="&#x17e;" horiz-adv-x="1102" 
d="M964 809q-89 -107 -228 -310q-161 -236 -236 -334q105 5 183 5q39 0 116 -15t116 -15q44 0 71.5 -28.5t27.5 -72.5q0 -45 -27.5 -73t-71.5 -28q-39 0 -116 15t-116 15q-225 0 -427 -41q-21 -4 -37 -4q-97 0 -97 85q0 50 50 96q261 236 568 735q-133 -8 -193 -8
q-148 0 -304 23q-89 13 -89 99q0 44 27 73.5t68 29.5q49 0 148 -11.5t150 -11.5q68 0 204 9.5t204 9.5q85 0 85 -70q0 -81 -76 -173zM507 1359l220 197q24 20 49 20q30 0 53 -23.5t23 -53.5t-26 -55q-285 -268 -328 -268q-31 0 -66 37l-50 62l-117 134q-83 103 -83 144
q0 30 24 52t55 22q39 0 63 -40q33 -55 183 -228z" />
    <glyph glyph-name="brokenbar" unicode="&#xa6;" horiz-adv-x="828" 
d="M484 1620l-3 -456q2 -76 -2 -227q-4 -61 -76 -61q-71 0 -71 88q0 109 1.5 328t1.5 328q0 75 75 75q74 0 74 -75zM479 641q0 -13 -1.5 -40.5t-1.5 -41.5q0 -88 7.5 -264t7.5 -264q0 -75 -75 -75t-75 75q0 88 -7 264t-7 264q0 157 81 157q71 0 71 -75z" />
    <glyph glyph-name="Eth" unicode="&#xd0;" horiz-adv-x="1478" 
d="M631 -99q-80 0 -176 25q-106 27 -161 68h-10q-101 0 -101 103q0 97 7 249l10 249q-13 0 -45.5 -1.5t-50.5 -1.5q-148 0 -148 103q0 102 149 102q18 0 51 -1.5t46 -1.5l-5 315l-4 316q0 42 42 86.5t84 44.5q24 0 160 -66q158 -77 178 -84q297 -109 490 -304
q229 -232 229 -515q0 -171 -80 -327q-81 -159 -220 -253q-156 -106 -445 -106zM395 1295l8 -501q43 0 130.5 -8.5t131.5 -8.5t72 -27.5t28 -71.5q0 -43 -28 -71t-71 -28q-45 0 -133 8t-132 8l-14 -421q132 -72 243 -72q227 0 332 70q98 66 155 178t57 232q0 189 -133 337
q-104 117 -306 221q-54 29 -340 155z" />
    <glyph glyph-name="eth" unicode="&#xf0;" horiz-adv-x="1042" 
d="M364 359q0 -78 56 -148q60 -74 137 -74q144 0 208 141q48 104 48 267q0 57 -57 218q-53 -13 -157 -46q-235 -93 -235 -358zM459 1280l-91 75q-59 51 -59 91q0 36 27.5 64t63.5 28q61 0 208 -174q174 91 238 91q41 0 67.5 -26.5t26.5 -67.5q0 -35 -29 -57l-65 -37
l-122 -56q267 -389 267 -666q0 -239 -95 -396q-115 -190 -339 -190q-151 0 -263 126q-109 121 -109 274q0 212 149 372q142 152 355 193q-53 113 -112 205l-117 -71q-93 -54 -120 -54q-38 0 -65.5 30t-27.5 69q0 45 47 78q26 18 165 99z" />
    <glyph glyph-name="Yacute" unicode="&#xdd;" horiz-adv-x="1301" 
d="M1172 1279q-24 -38 -64 -117l-172 -425q-100 -239 -188 -418l-125 -223l-53 -108q-33 -58 -89 -58q-39 0 -71 29t-32 72q0 34 94 213l123 225q-179 231 -232 364q-45 113 -150 271q-144 216 -169 261q-15 27 -15 54q0 43 31.5 72.5t71.5 29.5q49 0 82 -47l80 -124
q106 -157 140 -214q75 -123 117 -228q33 -83 141 -227l229 558q39 69 108 213q28 68 93 68q40 0 71.5 -28t31.5 -72q0 -46 -53 -141zM666 1728q-36 0 -63.5 28t-27.5 64q0 34 31 65q43 42 131 159q66 86 147 143q27 19 53 19q36 0 63 -28.5t27 -64.5q0 -40 -38 -70
q-70 -56 -135 -145q-68 -94 -129 -145q-28 -25 -59 -25z" />
    <glyph glyph-name="Thorn" unicode="&#xde;" horiz-adv-x="1066" 
d="M323 1169l-33 -586q103 -17 129 -17q168 0 283 85q126 94 126 251q0 112 -120 193q-111 74 -239 74h-146zM325 1371v-21l167 8q150 7 311 -93q208 -131 208 -363q0 -248 -188 -395q-168 -131 -404 -131q-37 0 -134 16l-2 -321q0 -40 -26 -67.5t-65 -27.5q-40 0 -66 27.5
t-26 67.5v294q0 147 18 414q20 289 22 414v138q0 99 12 144q21 77 98 76q79 -1 79 -126q0 -28 -4 -54z" />
    <glyph glyph-name="thorn" unicode="&#xfe;" horiz-adv-x="1095" 
d="M564 -35q-100 0 -220 32l-2 -478q0 -44 -27.5 -72t-70.5 -28t-70.5 28t-27.5 72l3 400v399q-3 219 -15 399q-22 334 -22 597q0 72 26 121q30 59 87 59q38 0 64.5 -27.5t26.5 -67.5l-2 -485q172 118 319 118q205 0 300 -182q75 -144 75 -381q0 -216 -116 -356
q-123 -148 -328 -148zM633 832q-92 0 -166 -41q-53 -29 -134 -106q13 -227 13 -477q109 -42 218 -42q125 0 191 93q57 81 57 210q0 363 -179 363z" />
    <glyph glyph-name="minus" unicode="&#x2212;" horiz-adv-x="984" 
d="M627 732q20 0 61 2.5t61 2.5q164 0 164 -94q0 -37 -24.5 -64.5t-61.5 -27.5q-12 0 -36 4t-37 4q-92 0 -275.5 -6.5t-275.5 -6.5q-155 0 -155 92q0 63 51 79q21 7 104 7q58 0 175.5 6.5t175.5 6.5q12 0 36.5 -2.5t36.5 -2.5z" />
    <glyph glyph-name="onesuperior" unicode="&#xb9;" horiz-adv-x="1333" 
d="M518 1035h86v453q-70 -43 -120 -43q-72 0 -72 68q0 57 56 77q26 10 118 76q81 58 108 58q45 0 56 -42q3 -12 3 -78v-569l45 1q81 2 98 0q62 -9 62 -54q0 -32 -21.5 -55.5t-53.5 -23.5h-408q-31 0 -52 22.5t-21 53.5q0 44 40 54q10 2 76 2z" />
    <glyph glyph-name="twosuperior" unicode="&#xb2;" horiz-adv-x="1333" 
d="M551 1056l84 -2l84 -2q33 0 97.5 10t95.5 10t51.5 -23t20.5 -54q0 -92 -268 -92q-34 0 -100.5 2t-100.5 2q-53 0 -90 23q-44 28 -44 78q0 132 106 226l196 133q106 70 106 144q0 29 -38 65t-68 36q-69 0 -108 -41l-48 -78q-25 -41 -63 -41q-31 0 -54 20.5t-23 51.5
q0 96 103 163q92 61 197 61q94 0 172.5 -73.5t78.5 -163.5q0 -129 -70 -207q-37 -42 -156 -115q-112 -68 -161 -133z" />
    <glyph glyph-name="threesuperior" unicode="&#xb3;" horiz-adv-x="1333" 
d="M852 1314q95 -69 95 -231q0 -114 -112 -177q-92 -51 -217 -51q-204 0 -204 97q0 31 22 54.5t52 23.5q10 0 54 -12.5t76 -12.5q54 0 106 15q74 23 74 63q0 101 -64 126l-118 14q-64 9 -64 70q0 56 104.5 83.5t104.5 89.5q0 85 -153 85q-14 0 -42 -8.5t-43 -8.5
q-63 0 -63 59q0 52 50 82q43 26 98 26q123 0 206 -54q96 -64 96 -181q0 -91 -58 -152z" />
    <glyph glyph-name="onehalf" unicode="&#xbd;" horiz-adv-x="1333" 
d="M518 1035h86v453q-70 -43 -120 -43q-72 0 -72 68q0 57 56 77q26 10 118 76q81 58 108 58q46 0 56 -45q3 -10 3 -82v-562l45 1q81 2 98 0q62 -9 62 -54q0 -32 -21.5 -55.5t-53.5 -23.5h-408q-31 0 -52 22.5t-21 53.5q0 44 40 54q10 2 76 2zM509 741l464 -14q57 1 167 -9
q71 -13 71 -74q0 -75 -79 -75l-204 11q-212 11 -419 11q-45 0 -136 -3t-136 -3q-75 0 -75 75t75 75q45 0 136 3t136 3zM551 -205l84 -2l84 -2q33 0 97.5 10t95.5 10t51.5 -23t20.5 -54q0 -92 -268 -92q-33 0 -100 2t-101 2q-53 0 -90 23q-44 28 -44 78q0 132 106 226
l196 133q106 70 106 144q0 29 -38 65t-68 36q-69 0 -108 -41l-48 -77q-25 -42 -63 -42q-32 0 -54.5 20.5t-22.5 51.5q0 96 103 164q92 60 197 60q94 0 172.5 -73.5t78.5 -163.5q0 -129 -70 -207q-37 -42 -156 -115q-112 -68 -161 -133z" />
    <glyph glyph-name="onequarter" unicode="&#xbc;" horiz-adv-x="1333" 
d="M518 1035h86v453q-70 -43 -120 -43q-72 0 -72 68q0 57 56 77q26 10 118 76q81 58 108 58q45 0 56 -42q3 -12 3 -78v-569l45 1q81 2 98 0q62 -9 62 -54q0 -32 -21.5 -55.5t-53.5 -23.5h-408q-31 0 -52 22.5t-21 53.5q0 44 40 54q10 2 76 2zM509 741l464 -14q57 1 167 -9
q71 -13 71 -74q0 -75 -79 -75l-204 11q-212 11 -419 11q-45 0 -136 -3t-136 -3q-75 0 -75 75t75 75q45 0 136 3t136 3zM673 18l2 225q-118 -137 -200 -224q31 3 72 3zM813 306l4 -291l57 1q127 1 127 -73q0 -48 -65 -48q-23 0 -59 4l-58 7l2 -173q0 -75 -75 -75t-75 75
l1 171l-323 -16q-79 0 -79 77q0 47 43 91q67 67 178 202q117 144 175 204q38 40 94 40q30 0 54 -21.5t24 -51.5q0 -21 -12.5 -61.5t-12.5 -61.5z" />
    <glyph glyph-name="threequarters" unicode="&#xbe;" horiz-adv-x="1333" 
d="M852 1314q95 -69 95 -231q0 -114 -112 -177q-92 -51 -217 -51q-204 0 -204 97q0 31 22 54.5t52 23.5q10 0 54 -12.5t76 -12.5q54 0 106 15q74 23 74 63q0 101 -64 126l-118 14q-64 9 -64 70q0 56 104.5 83.5t104.5 89.5q0 85 -153 85q-14 0 -42 -8.5t-43 -8.5
q-63 0 -63 59q0 52 50 82q43 26 98 26q123 0 206 -54q96 -64 96 -181q0 -91 -58 -152zM509 741q200 0 464 -14q57 -1 167 -9q71 -8 71 -74q0 -75 -79 -75l-204 11q-232 11 -419 11q-45 0 -136 -3t-136 -3q-75 0 -75 75t75 75q45 0 136 3t136 3zM673 18l2 225
q-118 -137 -200 -224q30 3 72 3zM813 306l4 -291l48 1q136 1 136 -73q0 -48 -65 -48q-22 0 -59 4q-44 6 -58 7l2 -173q0 -75 -75 -75t-75 75l1 171l-323 -16q-79 0 -79 77q0 51 43 91q81 74 182 198l171 208q34 40 94 40q30 0 54 -21t24 -52q0 -15 -12.5 -55.5t-12.5 -67.5z
" />
    <glyph glyph-name="yacute" unicode="&#xfd;" horiz-adv-x="1066" 
d="M1011 892l-346 -748q-128 -273 -196 -457l-66 -194q-26 -72 -90 -72q-42 0 -72.5 27.5t-30.5 68.5q0 100 216 579l-358 689l-45 73q-27 46 -27 77q0 41 31.5 72t70.5 31q46 0 71 -35q170 -236 365 -672l148 345q80 179 154 308q32 56 84 56q41 0 72.5 -29t31.5 -69
q0 -22 -13 -50zM427 1187q-36 0 -63.5 28t-27.5 64q0 34 31 65q43 42 131 159q66 86 147 143q27 19 53 19q36 0 63 -28.5t27 -64.5q0 -40 -38 -70q-70 -56 -135 -145q-68 -94 -129 -145q-28 -25 -59 -25z" />
    <glyph glyph-name="multiply" unicode="&#xd7;" horiz-adv-x="984" 
d="M601 638q69 -51 136 -124q90 -98 90 -153q0 -40 -22 -71q-25 -34 -63 -34q-73 0 -155 132q-30 49 -96 93q-72 -89 -148 -186q-25 -71 -95 -71q-42 0 -71 26.5t-29 67.5q0 58 51 116q82 93 84 97q16 27 50 81q-71 71 -104 101q-60 55 -114 91q-48 32 -48 81
q0 41 29.5 72.5t69.5 31.5q68 0 286 -216q78 93 165 160q20 15 56 48q33 39 75 39q40 0 71.5 -30.5t31.5 -70.5q0 -49 -69 -108l-108 -88q-35 -36 -73 -85z" />
    <glyph glyph-name="sfthyphen" horiz-adv-x="853" 
d="M679 475q-136 -14 -484 -14q-84 0 -84 78t84 78q79 0 237 7t237 7q89 0 89 -78q0 -69 -79 -78z" />
    <glyph glyph-name="franc" unicode="&#x20a3;" horiz-adv-x="2026" 
d="M1106 1314q-18 0 -38 8q-124 46 -328 46q-66 0 -154.5 -9.5t-198.5 -29.5l-2 -432q193 51 290 51q154 0 319 -18q94 -10 94 -102q0 -45 -29 -74.5t-72 -29.5q-52 0 -156 9t-156 9q-68 0 -294 -58l-9 -688q0 -43 -28 -72.5t-71 -29.5t-71.5 29.5t-28.5 72.5
q0 197 7.5 591.5t7.5 591.5q0 44 -1.5 132.5t-1.5 132.5t27.5 74t71.5 30q33 0 59 -18q124 22 223 32.5t174 10.5q115 0 263 -33q201 -46 201 -120q0 -40 -26 -71q-29 -35 -72 -35zM1959 739q-7 -125 -100 -125q-86 0 -86 99q0 19 -3 70l-3 84q-158 -19 -253 -89
q-89 -65 -148 -196l2 -548q0 -101 -99 -101q-88 0 -88 101v702q0 33 2.5 99t2.5 99q0 101 88 101q98 0 99 -166q192 185 426 185q81 0 121 -61t40 -184q0 -52 -1 -70z" />
    <glyph glyph-name="Gbreve" unicode="&#x11e;" horiz-adv-x="1392" 
d="M1300 605q-62 -307 -260.5 -490.5t-468.5 -183.5q-246 0 -369 137.5t-123 412.5q0 259 122.5 533.5t314.5 443.5q128 113 271 113q91 0 240 -60q182 -72 182 -159q0 -41 -30 -73t-72 -32q-22 0 -62 25q-153 93 -258 93q-75 0 -157 -78q-41 -39 -118 -142
q-231 -306 -231 -664q0 -188 58 -263q63 -82 232 -82q179 0 311 113q139 120 194 343q-277 -14 -475 -107q-23 -11 -45 -11q-44 0 -73 34q-27 31 -27 72q0 55 53 88q216 132 745 132q43 0 72 -29t29 -73q0 -65 -55 -93zM762 1779q293 0 336 160q17 63 72 63q32 0 55.5 -21
t21.5 -52l-2 -14q-12 -152 -176 -228q-128 -58 -307 -58q-142 0 -249 96q-110 98 -110 239q0 75 74 75q75 0 75 -75q0 -78 67 -133q63 -52 143 -52z" />
    <glyph glyph-name="gbreve" unicode="&#x11f;" horiz-adv-x="1087" 
d="M962 431l-23 -336q-6 -200 -41 -327q-45 -162 -144 -239q-120 -93 -347 -93q-133 0 -223 18q-126 25 -126 104q0 89 87 89q36 0 120 -17.5t186 -15.5q192 3 265 186q48 122 51 375q-54 -100 -128.5 -150t-170.5 -50q-181 0 -294.5 123.5t-113.5 320.5q0 270 155 435
q160 170 436 170q93 0 156 -24t96 -72q107 -3 107 -119q0 -71 -21 -190q-23 -138 -27 -188zM641 864q-190 0 -294 -131q-93 -118 -93 -300q0 -145 55 -218t165 -73q101 0 196 114q86 105 98 208q21 108 45 339q-40 31 -83 46t-89 15zM572 1329q293 0 336 160q17 63 72 63
q32 0 55.5 -21t21.5 -52l-2 -14q-12 -152 -176 -228q-128 -58 -307 -58q-142 0 -249 96q-110 98 -110 239q0 75 74 75q75 0 75 -75q0 -78 67 -133q63 -52 143 -52z" />
    <glyph glyph-name="Idotaccent" unicode="&#x130;" horiz-adv-x="1119" 
d="M957 1246q-64 0 -161 13l-161 21q-23 -291 -23 -556q0 -70 4 -173t4 -173q0 -94 -7 -171l315 4q42 0 70.5 -29.5t28.5 -72.5q0 -44 -28.5 -73.5t-70.5 -29.5q-56 0 -168 -2.5t-168 -2.5q-66 0 -197.5 -18.5t-198.5 -18.5q-42 0 -70.5 29.5t-28.5 72.5t28.5 73t70.5 30
q65 0 215 21q10 81 10 185q0 69 -6.5 168.5t-6.5 167.5q0 231 28 577l-130 -4l-130 -3q-43 0 -72 29t-29 74q0 93 94 102q81 8 303 8q199 0 499 -43q89 -13 89 -107q0 -47 -34 -75q-30 -23 -69 -23zM680 1728q0 -36 -34 -65.5t-71 -29.5q-32 0 -85.5 48t-53.5 79q0 37 36 66
q33 28 70 28q31 0 84.5 -48.5t53.5 -77.5z" />
    <glyph glyph-name="Scedilla" unicode="&#x15e;" horiz-adv-x="1420" 
d="M1321 446q0 -200 -159 -335q-138 -117 -352 -154q55 -75 55 -153q0 -249 -242 -249q-85 0 -161 32q-96 42 -96 115q0 54 68 54q36 0 81.5 -24.5t96.5 -24.5q97 1 97 92t-143 150q-170 19 -287 87q-142 83 -145 213q-1 42 28.5 68.5t72.5 26.5q49 0 86 -56q51 -76 91 -103
q85 -56 247 -56q155 0 288 67q170 86 170 239q0 126 -143 199q-121 63 -299 68q-158 6 -269 69q-142 81 -142 232q0 178 202 325q193 139 399 139q97 0 219 -33q162 -43 162 -110q0 -88 -90 -88q-40 0 -140.5 21.5t-154.5 20.5q-156 -2 -265 -77q-112 -77 -112 -187
q0 -83 148 -117q55 -13 213 -24q229 -17 358 -144q118 -116 118 -283z" />
    <glyph glyph-name="scedilla" unicode="&#x15f;" horiz-adv-x="997" 
d="M912 871q0 -45 -27.5 -73t-70.5 -28q-55 0 -77 37q-15 26 -26 108q-75 -19 -231 -70q-161 -64 -162 -158q30 -11 59 -16q230 -41 342 -113q163 -105 163 -304q0 -246 -299 -302q52 -73 52 -148q0 -249 -242 -249q-85 0 -161 32q-96 42 -96 115q0 54 68 54
q36 0 81.5 -24.5t96.5 -24.5q97 1 97 92q0 92 -145 150q-293 45 -293 191q0 40 31.5 70t71.5 30q31 0 80 -48q24 -23 108 -38q67 -12 113 -12q84 0 148 20q93 29 93 92q0 136 -190 184q-17 4 -104 23q-133 29 -189 68q-81 56 -81 169q0 209 197 298q60 27 192 64.5t189 63.5
q41 18 89 18q43 0 70.5 -28t27.5 -73q0 -29 12.5 -85t12.5 -85z" />
    <glyph glyph-name="Cacute" unicode="&#x106;" horiz-adv-x="1234" 
d="M1104 1122q-64 0 -96 75q-28 64 -52 78q-21 11 -104 11q-145 0 -322 -222q-240 -298 -240 -565q0 -129 83 -222q85 -96 205 -96q103 0 207 53q58 30 178 118q57 42 86 42q43 0 72 -32.5t29 -72.5q0 -45 -38 -79q-264 -234 -534 -234q-207 0 -350 159q-138 154 -138 364
q0 339 284 695q237 297 478 297q49 0 88 -4.5t69 -14.5q35 51 91 51q69 0 87 -91q16 -81 16 -199q0 -41 -22 -72q-27 -39 -77 -39zM734 1637q-36 0 -63.5 28t-27.5 64q0 34 31 65q43 42 131 159q66 86 147 143q27 19 53 19q36 0 63 -28.5t27 -64.5q0 -40 -38 -70
q-70 -56 -135 -145q-68 -94 -129 -145q-28 -25 -59 -25z" />
    <glyph glyph-name="cacute" unicode="&#x107;" horiz-adv-x="1052" 
d="M591 -63q-205 0 -342 124q-144 130 -144 343q0 203 135 419q150 240 338 240q98 0 219 -46q153 -59 153 -144q0 -38 -25 -67.5t-62 -29.5q-29 0 -50.5 17.5t-41.5 34.5q-59 47 -193 47q-102 0 -202 -182q-91 -167 -91 -289q0 -132 90 -208q84 -71 216 -71q60 0 128 32
l116 62q30 16 43 16q37 0 64 -29.5t27 -67.5q0 -73 -154 -141q-135 -60 -224 -60zM514 1187q-36 0 -63.5 28t-27.5 64q0 34 31 65q43 42 131 159q66 86 147 143q27 19 53 19q36 0 63 -28.5t27 -64.5q0 -40 -38 -70q-70 -56 -135 -145q-68 -94 -129 -145q-28 -25 -59 -25z
" />
    <glyph glyph-name="Ccaron" unicode="&#x10c;" horiz-adv-x="1234" 
d="M1104 1122q-64 0 -96 75q-28 64 -52 78q-21 11 -104 11q-145 0 -322 -222q-240 -298 -240 -565q0 -129 83 -222q85 -96 205 -96q103 0 207 53q58 30 178 118q57 42 86 42q43 0 72 -32.5t29 -72.5q0 -45 -38 -79q-264 -234 -534 -234q-207 0 -350 159q-138 154 -138 364
q0 339 284 695q237 297 478 297q49 0 88 -4.5t69 -14.5q35 51 91 51q69 0 87 -91q16 -81 16 -199q0 -41 -22 -72q-27 -39 -77 -39zM819 1809l220 197q24 20 49 20q30 0 53 -23.5t23 -53.5t-26 -55q-285 -268 -328 -268q-31 0 -66 37l-50 62l-117 134q-83 103 -83 144
q0 30 24 52t55 22q39 0 63 -40q33 -55 183 -228z" />
    <glyph glyph-name="ccaron" unicode="&#x10d;" horiz-adv-x="1234" 
d="M591 -63q-205 0 -342 124q-144 130 -144 343q0 203 135 419q150 240 338 240q98 0 219 -46q153 -59 153 -144q0 -38 -25 -67.5t-62 -29.5q-29 0 -50.5 17.5t-41.5 34.5q-59 47 -193 47q-102 0 -202 -182q-91 -167 -91 -289q0 -132 90 -208q84 -71 216 -71q60 0 128 32
l116 62q30 16 43 16q37 0 64 -29.5t27 -67.5q0 -73 -154 -141q-135 -60 -224 -60zM609 1359l220 197q24 20 49 20q30 0 53 -23.5t23 -53.5t-26 -55q-285 -268 -328 -268q-31 0 -66 37l-50 62l-117 134q-83 103 -83 144q0 30 24 52t55 22q39 0 63 -40q33 -55 183 -228z" />
    <glyph glyph-name="dcroat" unicode="&#x111;" horiz-adv-x="1234" 
d="M1221 1264q0 -79 -136 -78q-37 -501 -37 -597q0 -323 31 -503q2 -14 2 -23q0 -39 -27 -65.5t-66 -26.5q-62 0 -91 90q-144 -107 -311 -107q-213 0 -348 143t-135 357q0 249 128 412q139 177 381 177q111 0 157 -25l116 -80q5 138 10 248h-295q-31 0 -51.5 25t-20.5 57
q0 51 46 67q24 9 89 9q40 0 119.5 -4.5t120.5 -4.5q10 146 12 159q22 100 94 100q91 0 91 -97q0 -70 -5 -158h48q78 1 78 -75zM868 288q-2 47 0 407q-76 162 -252 162q-336 0 -336 -399q0 -126 90 -220.5t216 -94.5q171 0 282 145z" />
    <glyph glyph-name="mu" unicode="&#x3bc;" 
d="M302 -15q2 -38 14 -132q11 -84 11 -132q0 -122 -102 -122q-103 0 -98 165l12 494q-30 227 -30 409q0 133 30 312q15 87 95 87q43 0 72 -27.5t29 -70.5q0 -50 -14.5 -150t-14.5 -151q0 -333 44 -477q68 -37 128 -37q134 0 283 43l-3 397q-2 199 19 375q11 92 97 92
q43 0 72 -27.5t27 -70.5l-18 -378q0 -9 1 -216l1 -216q0 -22 3.5 -67t3.5 -67q0 -43 -28.5 -70.5t-71.5 -27.5q-77 0 -98 95q-125 -65 -288 -65q-102 0 -176 35z" />
    <glyph glyph-name="Ohm" unicode="&#x2126;" horiz-adv-x="1966" 
d="M161 -140q-41 0 -68.5 30t-27.5 72q0 75 80 95q66 17 362 50l-144 352q-60 178 -60 380q0 329 313 569q290 222 630 222q298 0 421 -176q100 -144 100 -443q0 -270 -92 -494q-84 -205 -269 -423q321 0 408 -17t87 -97q0 -42 -27.5 -71.5t-69.5 -29.5q-56 0 -171.5 8.5
t-173.5 8.5q-31 0 -92.5 -2.5t-91.5 -2.5q-48 0 -87 53q-37 49 -37 99q0 53 99 174l140 167q179 256 179 713q0 173 -74 253q-77 81 -249 81q-255 0 -489 -166q-255 -182 -255 -426q0 -173 55 -332l124 -309q5 -13 42 -74q28 -47 28 -72q0 -111 -89 -127q-369 -65 -501 -65z
" />
    <glyph glyph-name="Delta" unicode="&#x2206;" horiz-adv-x="1627" 
d="M862 1663q61 0 113 -101l66 -158l255 -560q147 -328 238 -568q67 -176 67 -230q0 -118 -155 -118q-68 0 -172 11l-172 18q-100 8 -227 8q-74 0 -221 -2t-221 -2q-42 0 -127 -7t-127 -7q-81 0 -81 71q0 44 126 310l159 338l235 586q33 99 112 291q57 120 132 120z
M1398 125q-92 257 -254 607l-280 596q-137 -368 -261 -662l-110 -256q-68 -154 -122 -251l506 4q175 0 295 -12q75 -11 226 -26z" />
    <glyph glyph-name="hyphenminus" unicode="&#xad;" horiz-adv-x="853" 
d="M679 475q-136 -14 -484 -14q-84 0 -84 78t84 78q79 0 237 7t237 7q89 0 89 -78q0 -69 -79 -78z" />
    <glyph glyph-name="overscore" unicode="&#xaf;" horiz-adv-x="1284" 
d="M973 1703q-71 0 -213 5t-213 5h-445q-23 0 -69 -5t-68 -5v185q100 0 300 1.5t300 1.5q71 0 211.5 -5.5t211.5 -5.5l335 8v-185h-350z" />
    <glyph glyph-name="middot" horiz-adv-x="510" 
d="M391 716q0 -51 -36.5 -87.5t-87.5 -36.5q-52 0 -88 36.5t-36 87.5t36 87.5t88 36.5q51 0 87.5 -36.5t36.5 -87.5z" />
    <glyph glyph-name="Abreve" unicode="&#x102;" horiz-adv-x="1498" 
d="M1250 -30q-92 0 -160 236q-26 90 -65 315q-102 -14 -267 -50l-266 -55q-50 -131 -171 -383q-32 -56 -87 -56q-40 0 -71.5 29t-31.5 72q0 48 151 365q-17 26 -17 60q0 81 98 104q114 214 288 492q237 379 295 379q79 0 108 -110l63 -336l149 -695l57 -158q29 -81 29 -108
q0 -43 -31 -72t-71 -29zM897 1113l-286 -461q121 31 367 75zM872 1779q293 0 336 160q17 63 72 63q32 0 55.5 -21t21.5 -52l-2 -14q-12 -152 -176 -228q-128 -58 -307 -58q-142 0 -249 96q-110 98 -110 239q0 75 74 75q75 0 75 -75q0 -78 67 -133q63 -52 143 -52z" />
    <glyph glyph-name="abreve" unicode="&#x103;" horiz-adv-x="1048" 
d="M920 -66q-19 0 -69 44q-45 41 -67 73q-96 -52 -169 -78.5t-122 -26.5q-234 0 -341 132q-101 124 -101 380q0 242 166.5 414t397.5 172q87 0 195 -45q136 -56 136 -135q0 -27 -20 -48q-10 -38 -15.5 -125t-6.5 -223q-1 -124 17 -196q10 -44 63 -176q7 -18 23 -53l6 -17
q0 -40 -28 -66t-65 -26zM712 629q0 43 5.5 93.5t16.5 107.5q-37 19 -63.5 28t-42.5 9q-155 0 -267.5 -126.5t-112.5 -291.5q0 -164 58 -246t174 -82q96 0 163 35q36 19 101 76q-32 265 -32 397zM502 1329q293 0 336 160q17 63 72 63q32 0 55.5 -21t21.5 -52l-2 -14
q-12 -152 -176 -228q-128 -58 -307 -58q-142 0 -249 96q-110 98 -110 239q0 75 74 75q75 0 75 -75q0 -78 67 -133q63 -52 143 -52z" />
    <glyph glyph-name="Aogonek" unicode="&#x104;" horiz-adv-x="1498" 
d="M1571 -225q0 -63 -116 -96q-82 -23 -170 -23q-98 0 -169 86q-68 81 -68 181q0 88 80 173q-49 113 -103 425q-102 -14 -267 -50q-200 -43 -266 -55q-50 -131 -171 -383q-32 -56 -87 -56q-40 0 -71.5 29t-31.5 72q0 48 151 365q-17 26 -17 60q0 81 98 104q114 214 288 492
q237 379 295 379q79 0 108 -110q20 -112 63 -336q64 -318 149 -695q1 -6 57 -158q29 -81 29 -108q0 -43 -31 -72t-71 -29q-16 0 -32 7q-21 -22 -21 -54q0 -36 26 -75q27 -43 62 -43q101 0 173 37q22 12 39 12q31 0 52.5 -24t21.5 -55zM978 727q-27 129 -81 386
q-99 -151 -286 -461q121 31 367 75z" />
    <glyph glyph-name="aogonek" unicode="&#x105;" horiz-adv-x="1048" 
d="M1310 -225q0 -63 -116 -96q-82 -23 -170 -23q-98 0 -169 86q-68 81 -68 181q0 58 13 108q-10 11 -16 20q-193 -105 -291 -105q-234 0 -341 132q-101 124 -101 380q0 242 166.5 414t397.5 172q87 0 195 -45q136 -56 136 -135q0 -27 -20 -48q-20 -77 -22 -348
q-1 -124 17 -196q10 -44 63 -176q7 -18 23 -53q6 -14 6 -17q0 -76 -76 -90l-1 -13q0 -36 25 -75q28 -43 63 -43q101 0 173 37q22 12 39 12q31 0 52.5 -24t21.5 -55zM744 232q-32 265 -32 397q0 86 22 201q-75 37 -106 37q-155 0 -267.5 -126.5t-112.5 -291.5
q0 -328 232 -328q96 0 163 35q36 19 101 76z" />
    <glyph glyph-name="Dcaron" unicode="&#x10e;" horiz-adv-x="1478" 
d="M1076 7q-155 -106 -445 -106q-73 0 -167 23q-113 27 -170 70h-10q-43 0 -72 30t-29 73q0 105 9.5 314.5t9.5 314.5q0 117 -4.5 349.5t-4.5 349.5q0 41 42 86t84 45q24 0 160 -67q154 -75 178 -83q284 -97 484 -298q235 -237 235 -521q0 -171 -80.5 -328t-219.5 -252z
M866 1065q-102 67 -471 230l5 -288l3 -287l-16 -546q7 -3 21 -13q88 -59 222 -59q228 0 332 70q97 66 154.5 177.5t57.5 232.5q0 282 -308 483zM669 1809l220 197q24 20 49 20q30 0 53 -23.5t23 -53.5t-26 -55q-285 -268 -328 -268q-31 0 -66 37l-50 62l-117 134
q-83 103 -83 144q0 30 24 52t55 22q39 0 63 -40q33 -55 183 -228z" />
    <glyph glyph-name="dcaron" unicode="&#x10f;" horiz-adv-x="1698" 
d="M1060 883q-12 -147 -12 -294q0 -333 31 -503q2 -14 2 -23q0 -40 -28 -66t-65 -26q-62 0 -91 90q-72 -53 -149.5 -80t-161.5 -27q-207 0 -343 138q-140 141 -140 362q0 267 141.5 428t367.5 161q116 0 179 -36l94 -69q14 421 33 567q13 89 91 89q91 0 91 -97
q0 -139 -40 -614zM616 857q-168 0 -252 -99.5t-84 -299.5q0 -129 91.5 -222t214.5 -93q84 0 142 31q34 18 111 83q15 13 29 31l-3 173l1 116l2 118q-38 81 -101 121.5t-151 40.5zM1507 1440q0 -97 -51 -208q-59 -129 -138 -129q-71 0 -71 73q0 28 23 63q20 29 40 57
q15 24 24 53q-87 51 -87 130q0 54 36.5 89t91.5 35q132 0 132 -163z" />
    <glyph glyph-name="Dslash" unicode="&#x110;" horiz-adv-x="1478" 
d="M631 -99q-80 0 -176 25q-106 27 -161 68h-10q-101 0 -101 103q0 97 7 249l10 249q-13 0 -45.5 -1.5t-50.5 -1.5q-148 0 -148 103q0 102 149 102q18 0 51 -1.5t46 -1.5l-5 315l-4 316q0 42 42 86.5t84 44.5q24 0 160 -66q158 -77 178 -84q297 -109 490 -304
q229 -232 229 -515q0 -171 -80 -327q-81 -159 -220 -253q-156 -106 -445 -106zM395 1295l8 -501q43 0 130.5 -8.5t131.5 -8.5t72 -27.5t28 -71.5q0 -43 -28 -71t-71 -28q-45 0 -133 8t-132 8l-14 -421q132 -72 243 -72q227 0 332 70q98 66 155 178t57 232q0 189 -133 337
q-104 117 -306 221q-54 29 -340 155z" />
    <glyph glyph-name="Eogonek" unicode="&#x118;" horiz-adv-x="1279" 
d="M1273 1451q0 -40 -26 -71q-29 -34 -72 -34q-14 0 -31 5q-169 48 -326 48q-164 0 -388 -61q9 -65 9 -104q0 -139 -17 -382q82 5 438 42q193 20 237 20t74 -28t30 -75q0 -91 -92 -102q-80 -7 -238 -21q-154 -18 -462 -42q-9 -143 -9 -253q0 -221 32 -260q24 -28 157 -28
q62 0 186.5 3.5t187.5 3.5q20 0 59 6.5t58 6.5q106 0 106 -104q0 -84 -85 -101q-88 -17 -208 -19q-16 -20 -16 -48q0 -36 26 -75q27 -43 62 -43q101 0 173 37q22 12 39 12q31 0 52.5 -24t21.5 -55q0 -63 -116 -96q-82 -23 -170 -23q-98 0 -169 86q-68 81 -68 181q0 23 7 48
h-41q-311 2 -398 83q-96 89 -96 409q0 127 11 304q-11 23 -11 49q0 34 19 61q20 289 20 427q0 37 -10 108.5t-10 108.5q0 119 100 119q42 0 72 -29q239 64 427 64q243 0 388 -58q67 -27 67 -96z" />
    <glyph glyph-name="eogonek" unicode="&#x119;" horiz-adv-x="1122" 
d="M1083 213q0 -84 -106 -152q-89 -57 -223 -88q-77 -38 -77 -90q0 -36 26 -75q27 -43 62 -43q101 0 173 37q22 12 39 12q31 0 52.5 -24t21.5 -55q0 -63 -116 -96q-82 -23 -170 -23q-98 0 -169 86q-68 81 -68 181q0 34 16 73q-203 17 -324 129q-133 123 -133 332
q0 260 126 436q137 192 366 192q166 0 271 -56q129 -70 129 -212q0 -100 -113 -182q-50 -36 -212 -112l-382 -181q112 -167 334 -167q69 0 162 26q118 33 152 86.5t73 53.5q35 0 62.5 -26.5t27.5 -61.5zM820 785q-86 80 -241 80q-244 0 -324 -379q107 50 307 146
q181 88 258 153z" />
    <glyph glyph-name="Ecaron" unicode="&#x11a;" horiz-adv-x="1279" 
d="M1115 1346q-14 0 -31 5q-169 48 -326 48q-82 0 -179 -15t-209 -46q9 -65 9 -104q0 -139 -17 -382l438 42q193 20 237 20t74 -28t30 -75q0 -91 -92 -102l-238 -21l-462 -42q-4 -71 -6.5 -134.5t-2.5 -118.5q0 -221 32 -260q24 -28 157 -28q62 0 186.5 3.5t187.5 3.5
q20 0 59 6.5t58 6.5q106 0 106 -104q0 -84 -85 -101q-94 -19 -407 -19q-310 0 -398 82q-96 89 -96 410q0 64 3 140t8 164q-11 23 -11 49q0 34 19 61q20 289 20 427q0 37 -10 108.5t-10 108.5q0 119 100 119q42 0 72 -29q120 32 226.5 48t200.5 16q243 0 388 -58
q67 -27 67 -96q0 -40 -26 -71q-29 -34 -72 -34zM749 1839l220 197q24 20 49 20q30 0 53 -23.5t23 -53.5t-26 -55q-285 -268 -328 -268q-31 0 -66 37l-50 62l-117 134q-83 103 -83 144q0 30 24 52t55 22q39 0 63 -40q33 -55 183 -228z" />
    <glyph glyph-name="ecaron" unicode="&#x11b;" horiz-adv-x="1122" 
d="M606 -46q-226 0 -366 113q-153 125 -153 350q0 260 126 436q137 192 366 192q166 0 271 -56q129 -69 129 -212q0 -100 -113 -182q-50 -36 -212 -112l-382 -181q56 -83 139.5 -125t194.5 -42q69 0 162 26q118 33 152 86.5t73 53.5q35 0 62.5 -26.5t27.5 -61.5
q0 -111 -179 -191q-153 -68 -298 -68zM579 865q-122 0 -203 -94.5t-121 -284.5l307 146q181 88 258 153q-86 80 -241 80zM609 1359l220 197q24 20 49 20q30 0 53 -23.5t23 -53.5t-26 -55q-285 -268 -328 -268q-31 0 -66 37l-50 62l-117 134q-83 103 -83 144q0 30 24 52
t55 22q39 0 63 -40q33 -55 183 -228z" />
    <glyph glyph-name="Lacute" unicode="&#x139;" horiz-adv-x="1128" 
d="M1025 41q-113 -53 -355 -95q-223 -39 -364 -39q-101 0 -145 31q-60 42 -60 154l20 331q26 458 26 1016q0 43 28.5 73t70.5 30q43 0 71.5 -30t28.5 -73q0 -565 -27 -1028l-13 -152q-8 -83 -6 -147q261 -3 660 123q17 5 32 5q43 0 72 -34q25 -31 25 -71q0 -64 -64 -94z
M494 1637q-36 0 -63.5 28t-27.5 64q0 34 31 65q43 42 131 159q66 86 147 143q27 19 53 19q36 0 63 -28.5t27 -64.5q0 -40 -38 -70q-70 -56 -135 -145q-68 -94 -129 -145q-28 -25 -59 -25z" />
    <glyph glyph-name="lacute" unicode="&#x13a;" horiz-adv-x="561" 
d="M393 786l-15 -497q0 -79 -8 -232q-10 -100 -98 -100q-98 0 -98 102q0 121 11 363.5t11 363.5q0 158 5 361.5t5 361.5q0 100 98 100q99 0 99 -100q0 -158 -5 -361.5t-5 -361.5zM304 1687q-36 0 -63.5 28t-27.5 64q0 34 31 65q43 42 131 159q66 86 147 143q27 19 53 19
q36 0 63 -28.5t27 -64.5q0 -40 -38 -70q-70 -56 -135 -145q-68 -94 -129 -145q-28 -25 -59 -25z" />
    <glyph glyph-name="Lcaron" unicode="&#x13d;" horiz-adv-x="1128" 
d="M1025 41q-113 -53 -355 -95q-223 -39 -364 -39q-101 0 -145 31q-60 42 -60 154l20 331q26 458 26 1016q0 43 28.5 73t70.5 30q43 0 71.5 -30t28.5 -73q0 -565 -27 -1028l-13 -152q-8 -83 -6 -147q261 -3 660 123q17 5 32 5q43 0 72 -34q25 -31 25 -71q0 -64 -64 -94z
M913 1370q0 -97 -51 -208q-59 -129 -138 -129q-71 0 -71 73q0 28 23 63q20 29 40 57q15 24 24 53q-87 51 -87 130q0 54 36.5 89t91.5 35q132 0 132 -163z" />
    <glyph glyph-name="lcaron" unicode="&#x13e;" horiz-adv-x="951" 
d="M393 786l-15 -497q0 -79 -8 -232q-10 -100 -98 -100q-98 0 -98 102q0 121 11 363.5t11 363.5q0 158 5 361.5t5 361.5q0 100 98 100q99 0 99 -100q0 -158 -5 -361.5t-5 -361.5zM793 1440q0 -97 -51 -208q-59 -129 -138 -129q-71 0 -71 73q0 28 23 63q20 29 40 57
q15 24 24 53q-87 51 -87 130q0 54 36.5 89t91.5 35q132 0 132 -163z" />
    <glyph glyph-name="Ldot" unicode="&#x13f;" horiz-adv-x="1128" 
d="M1025 41q-113 -53 -355 -95q-223 -39 -364 -39q-101 0 -145 31q-60 42 -60 154l20 331q26 458 26 1016q0 43 28.5 73t70.5 30q43 0 71.5 -30t28.5 -73q0 -565 -27 -1028l-13 -152q-8 -83 -6 -147q261 -3 660 123q17 5 32 5q43 0 72 -34q25 -31 25 -71q0 -64 -64 -94z
M941 716q0 -51 -36.5 -87.5t-87.5 -36.5q-52 0 -88 36.5t-36 87.5t36 87.5t88 36.5q51 0 87.5 -36.5t36.5 -87.5z" />
    <glyph glyph-name="ldot" unicode="&#x140;" horiz-adv-x="809" 
d="M393 786l-15 -497q0 -79 -8 -232q-10 -100 -98 -100q-98 0 -98 102q0 121 11 363.5t11 363.5q0 158 5 361.5t5 361.5q0 100 98 100q99 0 99 -100q0 -158 -5 -361.5t-5 -361.5zM811 716q0 -51 -36.5 -87.5t-87.5 -36.5q-52 0 -88 36.5t-36 87.5t36 87.5t88 36.5
q51 0 87.5 -36.5t36.5 -87.5z" />
    <glyph glyph-name="Nacute" unicode="&#x143;" horiz-adv-x="1632" 
d="M1541 222q0 -48 -16 -160q-16 -101 -107 -101q-55 0 -131 72q-407 385 -934 1111l-5 -227l-3 -228q0 -83 3.5 -249t3.5 -250q0 -269 -104 -269q-55 0 -87 35q-29 31 -29 74q0 42 6.5 127t6.5 127q0 62 4 185.5t4 185.5q0 66 -3 199.5t-3 199.5q0 63 -12 187.5t-12 187.5
q0 46 39.5 84t89.5 38q53 0 131 -116q249 -373 448 -620q237 -293 520 -560q3 43 0 127l-3 126q0 439 -34 699q-4 26 -27 105q-20 68 -20 106q0 116 106 116q174 0 174 -649q0 -111 -3 -331.5t-3 -331.5zM724 1637q-36 0 -63.5 28t-27.5 64q0 34 31 65q43 42 131 159
q66 86 147 143q27 19 53 19q36 0 63 -28.5t27 -64.5q0 -40 -38 -70q-70 -56 -135 -145q-68 -94 -129 -145q-28 -25 -59 -25z" />
    <glyph glyph-name="nacute" unicode="&#x144;" horiz-adv-x="1072" 
d="M906 -71q-86 0 -97 94l-28 219q-14 117 -14 219q0 28 3.5 95t3.5 95q0 216 -80 216q-112 0 -214 -133q-92 -121 -144 -306q-2 -39 -9 -98q-6 -50 -6 -97q0 -30 6 -90t6 -90q0 -45 -27.5 -73t-70.5 -28q-44 0 -71 28t-27 73q0 30 -6.5 90t-6.5 90q0 103 14.5 285.5
t14.5 285.5q0 32 -3.5 95t-3.5 95q0 43 28.5 70.5t70.5 27.5q92 0 101 -130l3 -117q168 224 345 224q160 0 223 -141q43 -94 47 -278v-101l-1 -93q0 -83 21.5 -214.5t21.5 -213.5q0 -44 -28.5 -71.5t-71.5 -27.5zM484 1187q-36 0 -63.5 28t-27.5 64q0 34 31 65
q43 42 131 159q66 86 147 143q27 19 53 19q36 0 63 -28.5t27 -64.5q0 -40 -38 -70q-70 -56 -135 -145q-68 -94 -129 -145q-28 -25 -59 -25z" />
    <glyph glyph-name="Ncaron" unicode="&#x147;" horiz-adv-x="1632" 
d="M1541 222q0 -48 -16 -160q-16 -101 -107 -101q-55 0 -131 72q-407 385 -934 1111l-5 -227l-3 -228q0 -83 3.5 -249t3.5 -250q0 -269 -104 -269q-55 0 -87 35q-29 31 -29 74q0 42 6.5 127t6.5 127q0 62 4 185.5t4 185.5q0 66 -3 199.5t-3 199.5q0 63 -12 187.5t-12 187.5
q0 46 39.5 84t89.5 38q53 0 131 -116q249 -373 448 -620q237 -293 520 -560q3 43 0 127l-3 126q0 439 -34 699q-4 26 -27 105q-20 68 -20 106q0 116 106 116q174 0 174 -649q0 -111 -3 -331.5t-3 -331.5zM839 1809l220 197q24 20 49 20q30 0 53 -23.5t23 -53.5t-26 -55
q-285 -268 -328 -268q-31 0 -66 37l-50 62l-117 134q-83 103 -83 144q0 30 24 52t55 22q39 0 63 -40q33 -55 183 -228z" />
    <glyph glyph-name="ncaron" unicode="&#x148;" horiz-adv-x="1072" 
d="M906 -71q-86 0 -97 94l-28 219q-14 117 -14 219q0 28 3.5 95t3.5 95q0 216 -80 216q-112 0 -214 -133q-92 -121 -144 -306q-2 -39 -9 -98q-6 -50 -6 -97q0 -30 6 -90t6 -90q0 -45 -27.5 -73t-70.5 -28q-44 0 -71 28t-27 73q0 30 -6.5 90t-6.5 90q0 103 14.5 285.5
t14.5 285.5q0 32 -3.5 95t-3.5 95q0 43 28.5 70.5t70.5 27.5q92 0 101 -130l3 -117q168 224 345 224q160 0 223 -141q43 -94 47 -278v-101l-1 -93q0 -83 21.5 -214.5t21.5 -213.5q0 -44 -28.5 -71.5t-71.5 -27.5zM609 1359l220 197q24 20 49 20q30 0 53 -23.5t23 -53.5
t-26 -55q-285 -268 -328 -268q-31 0 -66 37l-50 62l-117 134q-83 103 -83 144q0 30 24 52t55 22q39 0 63 -40q33 -55 183 -228z" />
    <glyph glyph-name="Odblacute" unicode="&#x150;" horiz-adv-x="1635" 
d="M802 -61q-282 0 -478 169q-208 180 -208 464q0 346 205 629q229 314 571 314q329 0 489 -148q167 -154 167 -486q0 -346 -188 -624q-216 -318 -558 -318zM892 1310q-245 0 -415 -244q-157 -224 -157 -494q0 -193 143 -314q137 -114 339 -114q243 0 401 245
q141 219 141 492q0 239 -107 336q-102 93 -345 93zM989 2045q30 0 53.5 -23t23.5 -53q0 -25 -20 -49q-39 -47 -125 -129q-89 -84 -126 -128q-26 -30 -58 -30q-30 0 -53.5 22.5t-23.5 53.5q0 37 117 156l156 153q26 27 56 27zM1325 2014q30 0 52 -23.5t22 -54.5t-37 -62
l-149 -142q-105 -99 -142 -99q-30 0 -52.5 24t-22.5 54q0 33 31 58l147 142q108 103 151 103z" />
    <glyph glyph-name="odblacute" unicode="&#x151;" horiz-adv-x="1077" 
d="M514 -59q-168 0 -289 124q-135 138 -142 371q-6 226 114 398q140 203 390 203q200 0 303 -183q82 -148 79 -356q-3 -222 -116 -379q-128 -178 -339 -178zM574 834q-147 1 -229 -140q-65 -113 -65 -258t79 -226q66 -67 155 -67q104 0 179 76q85 84 90 227q14 387 -209 388
zM589 1595q30 0 53.5 -23t23.5 -53q0 -25 -20 -49q-39 -47 -125 -129q-89 -84 -126 -128q-26 -30 -58 -30q-30 0 -53.5 22.5t-23.5 53.5q0 37 117 156l156 153q26 27 56 27zM925 1564q30 0 52 -23.5t22 -54.5t-37 -62l-149 -142q-105 -99 -142 -99q-30 0 -52.5 24t-22.5 54
q0 33 31 58l147 142q108 103 151 103z" />
    <glyph glyph-name="Racute" unicode="&#x154;" horiz-adv-x="1287" 
d="M1126 -11q-38 0 -71 32q-331 327 -736 440l8 -196l5 -197q0 -44 -28.5 -73.5t-71.5 -29.5t-71.5 29.5t-28.5 73.5q0 79 -7.5 235.5t-7.5 235.5q0 92 20 274t20 273q0 51 -9.5 151t-9.5 151q0 57 32 100q38 53 105 48l241 -19q137 -17 231 -67q405 -215 405 -525
q0 -152 -138 -269q-111 -94 -277 -143q311 -167 465 -352q26 -32 26 -68q0 -42 -30.5 -73t-71.5 -31zM489 1311l-148 12l10 -121q7 -74 7 -121q0 -80 -13 -199l-21 -199q14 0 43.5 -1t44.5 -1q255 0 382 68q56 31 104 81q53 56 53 95q0 139 -158 259q-145 110 -304 127z
M524 1687q-36 0 -63.5 28t-27.5 64q0 34 31 65q43 42 131 159q66 86 147 143q27 19 53 19q36 0 63 -28.5t27 -64.5q0 -40 -38 -70q-70 -56 -135 -145q-68 -94 -129 -145q-28 -25 -59 -25z" />
    <glyph glyph-name="racute" unicode="&#x155;" horiz-adv-x="984" 
d="M917 739q-7 -125 -100 -125q-86 0 -86 99q0 19 -3 70l-3 84q-158 -19 -253 -89q-89 -65 -148 -196l2 -548q0 -101 -99 -101q-88 0 -88 101v702q0 33 2.5 99t2.5 99q0 101 88 101q98 0 99 -166q192 185 426 185q81 0 121 -61t40 -184q0 -52 -1 -70zM454 1187
q-36 0 -63.5 28t-27.5 64q0 34 31 65q43 42 131 159q66 86 147 143q27 19 53 19q36 0 63 -28.5t27 -64.5q0 -40 -38 -70q-70 -56 -135 -145q-68 -94 -129 -145q-28 -25 -59 -25z" />
    <glyph glyph-name="Rcaron" unicode="&#x158;" horiz-adv-x="1287" 
d="M1126 -11q-38 0 -71 32q-331 327 -736 440l8 -196l5 -197q0 -44 -28.5 -73.5t-71.5 -29.5t-71.5 29.5t-28.5 73.5q0 79 -7.5 235.5t-7.5 235.5q0 92 20 274t20 273q0 51 -9.5 151t-9.5 151q0 57 32 100q38 53 105 48l241 -19q137 -17 231 -67q405 -215 405 -525
q0 -152 -138 -269q-111 -94 -277 -143q311 -167 465 -352q26 -32 26 -68q0 -42 -30.5 -73t-71.5 -31zM489 1311l-148 12l10 -121q7 -74 7 -121q0 -80 -13 -199l-21 -199q14 0 43.5 -1t44.5 -1q255 0 382 68q56 31 104 81q53 56 53 95q0 139 -158 259q-145 110 -304 127z
M589 1809l220 197q24 20 49 20q30 0 53 -23.5t23 -53.5t-26 -55q-285 -268 -328 -268q-31 0 -66 37l-50 62l-117 134q-83 103 -83 144q0 30 24 52t55 22q39 0 63 -40q33 -55 183 -228z" />
    <glyph glyph-name="rcaron" unicode="&#x159;" horiz-adv-x="984" 
d="M917 739q-7 -125 -100 -125q-86 0 -86 99q0 19 -3 70l-3 84q-158 -19 -253 -89q-89 -65 -148 -196l2 -548q0 -101 -99 -101q-88 0 -88 101v702q0 33 2.5 99t2.5 99q0 101 88 101q98 0 99 -166q192 185 426 185q81 0 121 -61t40 -184q0 -52 -1 -70zM509 1359l220 197
q24 20 49 20q30 0 53 -23.5t23 -53.5t-26 -55q-285 -268 -328 -268q-31 0 -66 37l-50 62l-117 134q-83 103 -83 144q0 30 24 52t55 22q39 0 63 -40q33 -55 183 -228z" />
    <glyph glyph-name="Sacute" unicode="&#x15a;" horiz-adv-x="1420" 
d="M134 249q-1 42 28.5 68.5t72.5 26.5q49 0 86 -56q51 -76 91 -103q85 -56 247 -56q155 0 288 67q170 86 170 239q0 126 -143 199q-121 63 -299 68q-158 6 -269 69q-142 81 -142 232q0 178 202 325q193 139 399 139q97 0 219 -33q162 -43 162 -110q0 -88 -90 -88
q-40 0 -140 21.5t-155 20.5q-156 -2 -265 -77q-112 -77 -112 -187q0 -83 148 -117q55 -13 213 -24q229 -17 358 -144q118 -116 118 -283q0 -238 -220 -380q-191 -123 -443 -123q-183 0 -335 70q-186 86 -189 236zM704 1637q-36 0 -63.5 28t-27.5 64q0 34 31 65
q43 42 131 159q66 86 147 143q27 19 53 19q36 0 63 -28.5t27 -64.5q0 -40 -38 -70q-70 -56 -135 -145q-68 -94 -129 -145q-28 -25 -59 -25z" />
    <glyph glyph-name="sacute" unicode="&#x15b;" horiz-adv-x="997" 
d="M814 770q-55 0 -77 37q-15 26 -26 108q-75 -19 -231 -70q-161 -64 -162 -158q30 -11 59 -16q230 -41 342 -113q163 -105 163 -304q0 -163 -141 -246q-117 -68 -296 -68q-131 0 -250 44q-154 56 -154 156q0 40 31.5 70t71.5 30q31 0 80 -48q24 -23 108 -38q67 -12 113 -12
q84 0 148 20q93 29 93 92q0 136 -190 184l-104 23q-133 29 -189 68q-81 56 -81 169q0 209 197 298q60 27 192 64.5t189 63.5q41 18 89 18q43 0 70.5 -28t27.5 -73q0 -29 12.5 -85t12.5 -85q0 -45 -27.5 -73t-70.5 -28zM504 1187q-36 0 -63.5 28t-27.5 64q0 34 31 65
q43 42 131 159q66 86 147 143q27 19 53 19q36 0 63 -28.5t27 -64.5q0 -40 -38 -70q-70 -56 -135 -145q-68 -94 -129 -145q-28 -25 -59 -25z" />
    <glyph glyph-name="Tcommaaccent" unicode="&#x21a;" horiz-adv-x="1392" 
d="M1362 1263q-74 0 -228 12q-150 11 -228 10h-71q3 -138 27 -448q22 -289 22 -449q0 -35 7 -106t7 -107q0 -68 -22 -117q-28 -66 -87 -66q-40 0 -72 28t-32 72q0 15 5 45t5 45q0 49 -6.5 147t-6.5 148q0 143 -23 402q-24 280 -27 402l-91 -1q-219 0 -344 32q-81 21 -81 99
q0 41 26 72q30 35 77 32q35 -2 160 -18q100 -12 162 -12q60 0 182 2.5t182 2.5q77 0 228.5 -11t228.5 -11q43 0 72 -29.5t29 -73.5q0 -43 -29 -72.5t-72 -29.5zM867 -302q0 -97 -51 -208q-59 -129 -138 -129q-71 0 -71 73q0 28 23 63q20 29 40 57q15 24 24 53
q-87 51 -87 130q0 54 36.5 89t91.5 35q132 0 132 -163z" />
    <glyph glyph-name="tcommaaccent" unicode="&#x21b;" horiz-adv-x="965" 
d="M808 852q-21 0 -49.5 2t-49.5 2q-23 0 -136 -15l19 -591l1 -44l1 -51q4 -219 -105 -219q-40 0 -69.5 26t-29.5 65q0 38 3 114t3 114l-20 584q-73 3 -222 17q-89 12 -89 99q0 44 27 73t69 29l210 -17q0 51 -4.5 136.5t-4.5 123.5q0 42 29 69.5t71 27.5q90 0 105 -147
q3 -37 3 -89l-2 -58l-1 -62q124 16 142 16q104 0 136 -10q61 -20 61 -94q0 -44 -27.5 -72.5t-70.5 -28.5zM619 -302q0 -97 -51 -208q-59 -129 -138 -129q-71 0 -71 73q0 28 23 63q20 29 40 57q15 24 24 53q-87 51 -87 130q0 54 36.5 89t91.5 35q132 0 132 -163z" />
    <glyph glyph-name="Tcaron" unicode="&#x164;" horiz-adv-x="1392" 
d="M1362 1263q-74 0 -228 12q-150 11 -228 10h-71q3 -138 27 -448q22 -289 22 -449q0 -35 7 -106t7 -107q0 -68 -22 -117q-28 -66 -87 -66q-40 0 -72 28t-32 72q0 15 5 45t5 45q0 49 -6.5 147t-6.5 148q0 143 -23 402q-24 280 -27 402l-91 -1q-219 0 -344 32q-81 21 -81 99
q0 41 26 72q30 35 77 32q35 -2 160 -18q100 -12 162 -12q60 0 182 2.5t182 2.5q77 0 228.5 -11t228.5 -11q43 0 72 -29.5t29 -73.5q0 -43 -29 -72.5t-72 -29.5zM769 1859l220 197q24 20 49 20q30 0 53 -23.5t23 -53.5t-26 -55q-285 -268 -328 -268q-31 0 -66 37l-50 62
l-117 134q-83 103 -83 144q0 30 24 52t55 22q39 0 63 -40q33 -55 183 -228z" />
    <glyph glyph-name="tcaron" unicode="&#x165;" horiz-adv-x="1309" 
d="M808 852q-21 0 -49.5 2t-49.5 2q-23 0 -136 -15l19 -591l1 -44l1 -51q4 -219 -105 -219q-40 0 -69.5 26t-29.5 65q0 38 3 114t3 114l-20 584q-73 3 -222 17q-89 12 -89 99q0 44 27 73t69 29l210 -17q0 51 -4.5 136.5t-4.5 123.5q0 42 29 69.5t71 27.5q90 0 105 -147
q3 -37 3 -89l-2 -58l-1 -62q124 16 142 16q104 0 136 -10q61 -20 61 -94q0 -44 -27.5 -72.5t-70.5 -28.5zM1243 1230q0 -97 -51 -208q-59 -129 -138 -129q-71 0 -71 73q0 28 23 63q20 29 40 57q15 24 24 53q-87 51 -87 130q0 54 36.5 89t91.5 35q132 0 132 -163z" />
    <glyph glyph-name="Uring" unicode="&#x16e;" horiz-adv-x="1509" 
d="M790 -40q-311 0 -464 179q-124 144 -156 426q-15 127 -15 507q0 140 6 226q6 91 18 127q25 73 90 73q92 0 92 -169v-587q0 -606 424 -606q399 0 399 1020v98q-1 60 -1 80q0 62 22 109q28 60 83 60q100 0 100 -137q0 -41 1 -124v-124q0 -1158 -599 -1158zM744 1783
q86 3 126 24q67 36 67 132q0 58 -54 91q-45 29 -107 29q-217 0 -213 -160q1 -46 61 -82t120 -34zM413 1899q0 145 103 229q99 80 260 80q125 0 214 -70q97 -77 97 -199q0 -148 -89.5 -224t-268.5 -79q-136 -2 -226 76q-90 77 -90 187z" />
    <glyph glyph-name="uring" unicode="&#x16f;" 
d="M955 584q0 -72 1 -216t1 -216q0 -22 3.5 -67t3.5 -67q0 -43 -29 -70.5t-71 -27.5q-77 0 -98 95q-125 -65 -288 -65q-131 0 -217 58q-95 64 -113 187q-39 265 -39 472q0 137 30 312q14 87 95 87q43 0 72 -27.5t29 -70.5q0 -46 -14.5 -147t-14.5 -154q0 -167 11 -286
t33 -191q33 -18 65 -27.5t63 -9.5q134 0 283 43l-1 203l-2 194q0 216 19 375q11 92 97 92q43 0 72 -28t27 -70zM494 1333q86 3 126 24q67 36 67 132q0 58 -54 91q-45 29 -107 29q-217 0 -213 -160q1 -46 61 -82t120 -34zM163 1449q0 145 103 229q99 80 260 80q125 0 214 -70
q97 -77 97 -199q0 -148 -89.5 -224t-268.5 -79q-136 -2 -226 76q-90 77 -90 187z" />
    <glyph glyph-name="Udblacute" unicode="&#x170;" horiz-adv-x="1509" 
d="M790 -40q-311 0 -464 179q-124 144 -156 426q-15 127 -15 507q0 140 6 226q6 91 18 127q25 73 90 73q92 0 92 -169v-587q0 -606 424 -606q399 0 399 1020v98q-1 60 -1 80q0 62 22 109q28 60 83 60q100 0 100 -137q0 -41 1 -124v-124q0 -1158 -599 -1158zM849 2045
q30 0 53.5 -23t23.5 -53q0 -25 -20 -49q-39 -47 -125 -129q-89 -84 -126 -128q-26 -30 -58 -30q-30 0 -53.5 22.5t-23.5 53.5q0 37 117 156l156 153q26 27 56 27zM1185 2014q30 0 52 -23.5t22 -54.5t-37 -62l-149 -142q-105 -99 -142 -99q-30 0 -52.5 24t-22.5 54
q0 33 31 58l147 142q108 103 151 103z" />
    <glyph glyph-name="udblacute" unicode="&#x171;" 
d="M955 584q0 -72 1 -216t1 -216q0 -22 3.5 -67t3.5 -67q0 -43 -29 -70.5t-71 -27.5q-77 0 -98 95q-125 -65 -288 -65q-131 0 -217 58q-95 64 -113 187q-39 265 -39 472q0 137 30 312q14 87 95 87q43 0 72 -27.5t29 -70.5q0 -46 -14.5 -147t-14.5 -154q0 -167 11 -286
t33 -191q33 -18 65 -27.5t63 -9.5q134 0 283 43l-1 203l-2 194q0 216 19 375q11 92 97 92q43 0 72 -28t27 -70zM619 1595q30 0 53.5 -23t23.5 -53q0 -25 -20 -49q-39 -47 -125 -129q-89 -84 -126 -128q-26 -30 -58 -30q-30 0 -53.5 22.5t-23.5 53.5q0 37 117 156l156 153
q26 27 56 27zM955 1564q30 0 52 -23.5t22 -54.5t-37 -62l-149 -142q-105 -99 -142 -99q-30 0 -52.5 24t-22.5 54q0 33 31 58l147 142q108 103 151 103z" />
    <glyph glyph-name="Zacute" unicode="&#x179;" horiz-adv-x="1420" 
d="M1266 1251l-135 -92q-182 -141 -412 -451l-351 -511q-25 -38 -49 -70l389 15q255 12 390 12q132 0 195 -12q81 -16 84 -82q2 -49 -32 -78q-30 -25 -75 -25q-29 0 -87 3.5t-87 3.5q-152 0 -456.5 -7.5t-456.5 -7.5q-115 0 -115 101q0 66 62 166l107 149l361 502
q223 295 415 458l-350 -20h-404q-11 0 -32.5 -1.5t-31.5 -1.5q-106 0 -106 103q0 68 54 90q33 14 109 14q69 0 205.5 -14.5t205.5 -14.5q77 0 230.5 10t231.5 10q257 0 257 -97q0 -66 -116 -152zM664 1687q-36 0 -63.5 28t-27.5 64q0 34 31 65q43 42 131 159q66 86 147 143
q27 19 53 19q36 0 63 -28.5t27 -64.5q0 -40 -38 -70q-70 -56 -135 -145q-68 -94 -129 -145q-28 -25 -59 -25z" />
    <glyph glyph-name="zacute" unicode="&#x17a;" horiz-adv-x="1102" 
d="M964 809q-89 -107 -228 -310q-161 -236 -236 -334q105 5 183 5q39 0 116 -15t116 -15q44 0 71.5 -28.5t27.5 -72.5q0 -45 -27.5 -73t-71.5 -28q-39 0 -116 15t-116 15q-225 0 -427 -41q-21 -4 -37 -4q-97 0 -97 85q0 50 50 96q261 236 568 735q-133 -8 -193 -8
q-148 0 -304 23q-89 13 -89 99q0 44 27 73.5t68 29.5q49 0 148 -11.5t150 -11.5q68 0 204 9.5t204 9.5q85 0 85 -70q0 -81 -76 -173zM524 1187q-36 0 -63.5 28t-27.5 64q0 34 31 65q43 42 131 159q66 86 147 143q27 19 53 19q36 0 63 -28.5t27 -64.5q0 -40 -38 -70
q-70 -56 -135 -145q-68 -94 -129 -145q-28 -25 -59 -25z" />
    <glyph glyph-name="Zdot" unicode="&#x17b;" horiz-adv-x="1420" 
d="M1266 1251l-135 -92q-182 -141 -412 -451l-351 -511q-25 -38 -49 -70l389 15q255 12 390 12q132 0 195 -12q81 -16 84 -82q2 -49 -32 -78q-30 -25 -75 -25q-29 0 -87 3.5t-87 3.5q-152 0 -456.5 -7.5t-456.5 -7.5q-115 0 -115 101q0 66 62 166l107 149l361 502
q223 295 415 458l-350 -20h-404q-11 0 -32.5 -1.5t-31.5 -1.5q-106 0 -106 103q0 68 54 90q33 14 109 14q69 0 205.5 -14.5t205.5 -14.5q77 0 230.5 10t231.5 10q257 0 257 -97q0 -66 -116 -152zM870 1728q0 -36 -34 -65.5t-71 -29.5q-32 0 -85.5 48t-53.5 79q0 37 36 66
q33 28 70 28q31 0 84.5 -48.5t53.5 -77.5z" />
    <glyph glyph-name="zdot" unicode="&#x17c;" horiz-adv-x="1102" 
d="M964 809q-89 -107 -228 -310q-161 -236 -236 -334q105 5 183 5q39 0 116 -15t116 -15q44 0 71.5 -28.5t27.5 -72.5q0 -45 -27.5 -73t-71.5 -28q-39 0 -116 15t-116 15q-225 0 -427 -41q-21 -4 -37 -4q-97 0 -97 85q0 50 50 96q261 236 568 735q-133 -8 -193 -8
q-148 0 -304 23q-89 13 -89 99q0 44 27 73.5t68 29.5q49 0 148 -11.5t150 -11.5q68 0 204 9.5t204 9.5q85 0 85 -70q0 -81 -76 -173zM750 1278q0 -36 -34 -65.5t-71 -29.5q-32 0 -85.5 48t-53.5 79q0 37 36 66q33 28 70 28q31 0 84.5 -48.5t53.5 -77.5z" />
    <glyph glyph-name="Gamma" unicode="&#x393;" horiz-adv-x="1262" 
d="M1189 1365q0 -43 -29 -72.5t-72 -29.5q-71 0 -301 12q-225 11 -301 10h-85q3 -138 27 -448q22 -290 22 -449q0 -35 7 -106t7 -107q0 -183 -109 -183q-42 0 -73 29t-31 71q0 15 5.5 45t5.5 45q0 49 -7 147t-7 148q0 156 -33 467t-33 467q0 46 29 75t74 29q91 0 91 -19
q0 -5 44 -6h52q72 -1 308 -12q228 -10 308 -10q43 0 72 -30t29 -73z" />
    <glyph glyph-name="Theta" unicode="&#x398;" horiz-adv-x="1635" 
d="M1548 881q0 -346 -188 -624q-216 -318 -558 -318q-282 0 -478 169q-208 180 -208 464q0 346 205 629q229 314 571 314q329 0 489 -148q167 -154 167 -486zM1344 881q0 239 -107 336q-102 93 -345 93q-245 0 -415 -244q-157 -224 -157 -494q0 -193 143 -314
q137 -114 339 -114q243 0 401 245q141 219 141 492zM1158 763q0 -69 -79 -78q-136 -14 -484 -14q-84 0 -84 78t84 78q79 0 237 7t237 7q89 0 89 -78z" />
    <glyph glyph-name="Phi" unicode="&#x3a6;" horiz-adv-x="1307" 
d="M1272 797q0 -371 -493 -499q-2 -60 -7 -110q129 4 205 4q99 0 99 -83q0 -43 -28.5 -73t-70.5 -30q-38 0 -113 -2.5t-113 -2.5q-52 0 -152.5 -18.5t-152.5 -18.5q-43 0 -71.5 29.5t-28.5 72.5q0 84 100 84q26 0 63 8q49 11 61 13q6 48 9 105l-10 -1q-170 -2 -311 78
q-167 95 -167 253q0 234 144 392q132 146 353 197q3 46 7 97q-29 0 -95 -4q-61 -3 -95 -3q-43 0 -71.5 27.5t-28.5 71.5q0 82 96 103q33 7 163 7q289 0 436 -23q89 -14 89 -107q0 -43 -29.5 -68.5t-73.5 -25.5q-65 0 -192 14q-2 -33 -5 -64h13q171 1 317 -125
q153 -130 153 -298zM1094 797q0 93 -101 171q-95 73 -191 73h-23q-7 -162 -7 -317q0 -31 6 -238q159 54 217 99q99 75 99 212zM579 454q-11 268 -11 257q0 137 8 296q-306 -99 -306 -401q0 -64 121 -112q100 -40 178 -40h10z" />
    <glyph glyph-name="alpha" unicode="&#x3b1;" horiz-adv-x="1091" 
d="M1033 26q0 -38 -27.5 -65t-65.5 -27q-29 0 -116 125q-45 -49 -154 -83q-97 -30 -177 -30q-240 0 -347 140q-95 123 -95 372q0 237 164.5 411.5t399.5 174.5q104 0 212 -43q12 31 50.5 60t71.5 29q77 0 77 -96q0 -29 -18 -63q-15 -29 -31 -58q-35 -84 -43 -269
q-1 -36 -1 -279q0 -73 10 -106q5 -18 49 -102q41 -76 41 -91zM752 563q0 142 -21 278q-51 26 -103 26q-158 0 -272 -131q-108 -126 -108 -287q0 -328 232 -328q86 0 133 19q43 18 108 76q31 248 31 347z" />
    <glyph glyph-name="delta" unicode="&#x3b4;" horiz-adv-x="1077" 
d="M969 498q0 -220 -115 -379q-128 -178 -340 -178q-168 0 -289 124q-135 138 -142 371q-6 209 99 376q122 195 340 221q-5 6 -89 123q-49 69 -108 110q-43 30 -121 99q-34 37 -34 74q0 75 99 75q47 0 155.5 2.5t164.5 2.5h16q88 0 315 -13q84 -4 84 -88q0 -38 -25 -65
t-69 -25q-222 12 -305 12h-16h-24q-14 -1 -24 -1q128 -111 261 -337q167 -285 167 -504zM783 446q14 387 -209 388q-147 1 -229 -140q-65 -113 -65 -258t79 -226q66 -67 155 -67q104 0 179 76q85 85 90 227z" />
    <glyph glyph-name="epsilon" unicode="&#x3b5;" horiz-adv-x="1007" 
d="M910 143q0 -66 -117.5 -130.5t-242.5 -64.5q-174 0 -284 84.5t-110 219.5q0 204 151 303q-117 110 -117 207q0 115 114 205q107 85 225 85q133 0 233 -51q110 -56 110 -143q0 -77 -88 -77q-30 0 -95 46t-160 46q-41 0 -98 -35q-62 -38 -62 -76q0 -62 64 -104
q59 -30 119 -61q64 -35 64 -84q0 -57 -55 -74q-26 -8 -101 -8q-54 0 -92 -65q-34 -56 -34 -114q0 -60 82 -96q66 -30 134 -30q63 0 157.5 55.5t114.5 55.5q36 0 62 -28.5t26 -65.5z" />
    <glyph glyph-name="sigma" unicode="&#x3c3;" horiz-adv-x="1077" 
d="M1041 854q-35 -5 -85 -5q-29 0 -64 2q80 -147 77 -353q-3 -222 -116 -379q-128 -178 -339 -178q-168 0 -289 124q-135 138 -142 371q-6 226 114 398q140 203 390 203q40 0 77 -8q54 6 88 6q35 0 100.5 -4t103.5 -4q37 0 59 3q8 1 16 1q39 0 64 -28q22 -26 22 -62
q0 -76 -76 -87zM783 446q14 387 -209 388q-147 1 -228 -140q-66 -113 -66 -258t79 -226q66 -67 155 -67q104 0 179 76q85 84 90 227z" />
    <glyph glyph-name="tau" unicode="&#x3c4;" horiz-adv-x="965" 
d="M906 953q0 -99 -119 -99q-13 0 -39.5 1t-38.5 1q-23 0 -136 -15q22 -527 22 -705q0 -200 -106 -200q-40 0 -69.5 26t-29.5 65q0 38 3 114t3 114q0 122 -20 584q-74 3 -222 17q-89 14 -89 99q0 42 26.5 72t69.5 30q35 0 105 -8.5t105 -8.5q180 0 197.5 1.5t90.5 9.5
q55 6 92 6q74 0 107 -15q48 -23 48 -89z" />
    <glyph glyph-name="phi" unicode="&#x3c6;" horiz-adv-x="1260" 
d="M1145 387q0 -194 -136 -311q-119 -104 -299 -118q0 -154 -18 -282q-11 -76 -87 -76q-36 0 -63.5 23.5t-27.5 62.5q0 8 1 16q17 115 17 261q-418 51 -418 482q0 116 36 252q29 111 64 178q39 75 116 75q64 0 64 -76q0 -50 -32 -125q-22 -52 -42 -183q-18 -120 -18 -189
q0 -194 226 -233q-9 222 -9 296q0 24 -2 86t-2 97q0 183 45 277q63 131 222 131q191 0 289 -240q74 -179 74 -404zM967 387q0 128 -39 270q-53 196 -146 196q-92 0 -92 -231q0 -43 3.5 -107t3.5 -75q0 -65 9 -304q118 11 189.5 77t71.5 174z" />
    <glyph glyph-name="underscoredbl" unicode="&#x2017;" horiz-adv-x="1284" 
d="M973 -245q-71 0 -213 5t-213 5h-445q-23 0 -69 -5t-68 -5v185q100 0 300 1.5t300 1.5q71 0 211.5 -5.5t211.5 -5.5l335 8v-185h-350zM973 -545q-71 0 -213 5t-213 5h-445q-23 0 -69 -5t-68 -5v185q100 0 300 1.5t300 1.5q71 0 211.5 -5.5t211.5 -5.5l335 8v-185h-350z
" />
    <glyph glyph-name="exclamdbl" unicode="&#x203c;" horiz-adv-x="921" 
d="M331 1516v-1113q0 -89 -89 -89t-89 89q0 41 -2.5 122.5t-2.5 121.5q0 145 2.5 434.5t2.5 434.5q0 89 89 89t89 -89zM332 23q0 -36 -28.5 -62.5t-64.5 -26.5q-40 0 -80 52q-39 49 -39 90q0 36 28.5 62t65.5 26q39 0 80 -52q38 -49 38 -89zM771 1516v-1113q0 -89 -89 -89
t-89 89q0 41 -2.5 122.5t-2.5 121.5q0 145 2.5 434.5t2.5 434.5q0 89 89 89t89 -89zM772 23q0 -36 -28.5 -62.5t-64.5 -26.5q-40 0 -80 52q-39 49 -39 90q0 36 28.5 62t65.5 26q39 0 80 -52q38 -49 38 -89z" />
    <glyph glyph-name="nsuperior" unicode="&#x207f;" horiz-adv-x="1079" 
d="M870 884q0 -36 -25 -59.5t-60 -23.5q-74 0 -83 77q-24 212 -24 345q0 15 2 52.5t2 52.5q0 31 -40.5 60.5t-75.5 29.5q-76 0 -120 -52q-40 -46 -75 -166q-8 -160 -8 -203q0 -17 3.5 -49.5t3.5 -49.5q0 -84 -84 -84t-84 84q0 17 -3.5 49.5t-3.5 49.5q0 57 8 207.5t8 207.5
q0 17 -2 52.5t-2 52.5q0 36 25 59t60 23q75 0 84 -93q87 81 190 81q165 0 227 -93q53 -79 53 -274q0 -46 12 -168.5t12 -167.5z" />
    <glyph glyph-name="peseta" unicode="&#x20a7;" horiz-adv-x="2435" 
d="M2339 871q0 -45 -27.5 -73t-70.5 -28q-55 0 -77 37q-15 26 -26 108q-75 -19 -231 -70q-161 -64 -162 -158q30 -11 59 -16q230 -41 342 -113q163 -105 163 -304q0 -163 -141 -246q-117 -68 -296 -68q-131 0 -250 44q-154 56 -154 156q0 40 31.5 70t71.5 30q31 0 80 -48
q24 -23 108 -38q67 -12 113 -12q84 0 148 20q93 29 93 92q0 136 -190 184q-17 4 -104 23q-133 29 -189 68q-81 56 -81 169q0 209 197 298q60 27 192 64.5t189 63.5q41 18 89 18q43 0 70.5 -28t27.5 -73q0 -29 12.5 -85t12.5 -85zM1606 953q0 -44 -27.5 -72.5t-70.5 -28.5
q-21 0 -49.5 2t-49.5 2q-40 0 -73 -15q19 -463 19 -591q0 -14 1 -44q1 -35 1 -51q4 -219 -105 -219q-40 0 -69.5 26t-29.5 65q0 38 3 114t3 114q0 122 -20 584q-64 3 -201 17q-76 -130 -225 -202q-139 -67 -300 -67q-28 0 -122 13q-8 -151 -8 -529q0 -40 -26 -67.5
t-65 -27.5q-40 0 -66 27.5t-26 67.5v294q0 147 18 414q20 289 22 414v138q0 99 12 144q23 88 98 76q64 20 236 20q183 0 343 -125q176 -138 176 -332q0 -30 -3 -60q36 -5 132 -14q0 51 -4.5 136.5t-4.5 123.5q0 42 29 69.5t71 27.5q90 0 105 -147q3 -37 3 -89q0 -10 -2 -58
q-1 -36 -1 -62q44 16 79 16q104 0 136 -10q61 -20 61 -94zM822 1114q0 112 -120 193q-111 74 -239 74q-89 0 -137 -8q-1 -61 -2 -184q-3 -129 -21 -398q124 -13 110 -13q168 0 283 85q126 93 126 251z" />
    <glyph glyph-name="IJ" unicode="&#x132;" horiz-adv-x="2307" 
d="M957 1246q-64 0 -161 13l-161 21q-23 -291 -23 -556q0 -70 4 -173t4 -173q0 -94 -7 -171l315 4q42 0 70.5 -29.5t28.5 -72.5q0 -44 -28.5 -73.5t-70.5 -29.5q-56 0 -168 -2.5t-168 -2.5q-66 0 -197.5 -18.5t-198.5 -18.5q-42 0 -70.5 29.5t-28.5 72.5t28.5 73t70.5 30
q65 0 215 21q10 81 10 185q0 69 -6.5 168.5t-6.5 167.5q0 231 28 577l-130 -4l-130 -3q-43 0 -72 29t-29 74q0 93 94 102q81 8 303 8q199 0 499 -43q89 -13 89 -107q0 -47 -34 -75q-30 -23 -69 -23zM2141 1294q-18 0 -61.5 7.5t-67.5 7.5q-49 0 -115 -3l5 -119
q0 -744 -99 -1083q-66 -224 -231 -224q-174 0 -345 126q-189 140 -189 321q0 123 101 123t101 -121q0 -83 118 -165q113 -78 214 -78q82 0 114 503q15 238 15 598q0 28 -5 108l-61 -1q-39 0 -117.5 2.5t-118.5 2.5q-44 0 -74 28t-30 76q0 103 139 103q34 0 101 -3t100 -3
q63 0 188.5 7.5t188.5 7.5q228 0 228 -116q0 -40 -27 -71q-29 -34 -72 -34z" />
    <glyph glyph-name="ij" unicode="&#x133;" horiz-adv-x="1086" 
d="M330 1266q-48 0 -83 34t-35 82t35 82t83 34t82.5 -34t34.5 -82t-34.5 -82t-82.5 -34zM375 454q0 -60 3.5 -179.5t3.5 -179.5q0 -44 -27 -72t-71 -28q-43 0 -70.5 28t-27.5 72q0 60 -3.5 179.5t-3.5 179.5q0 94 10 234.5t10 234.5q0 45 27.5 73t70.5 28t70.5 -28t27.5 -73
q0 -94 -10 -234.5t-10 -234.5zM727 1265q-48 0 -82.5 34t-34.5 81q0 48 34.5 82t82.5 34t83 -34t35 -82q0 -47 -35 -81t-83 -34zM719 -232q1 117 -34 599l-34 551q0 50 28.5 89t72.5 39q34 0 68 -25t36 -51l33 -576l27 -616q0 -139 -83 -252q-90 -123 -219 -123
q-215 0 -360 331q-12 27 -12 48q0 40 31.5 69t71.5 29q59 0 123 -130q16 -34 56 -98q39 -50 90 -50q44 0 75 66q24 50 30 100z" />
    <glyph glyph-name="napostrophe" unicode="&#x149;" horiz-adv-x="1272" 
d="M138 1094q-77 0 -80 92q-1 36 23 144l38 175q14 79 76 79q36 0 58.5 -27t22.5 -64q2 -84 -53 -304q-24 -95 -85 -95zM1106 -71q-86 0 -97 94l-28 219q-14 117 -14 219q0 28 3.5 95t3.5 95q0 216 -80 216q-112 0 -214 -133q-92 -121 -144 -306q-2 -39 -9 -98
q-6 -50 -6 -97q0 -30 6 -90t6 -90q0 -45 -27.5 -73t-70.5 -28q-44 0 -71 28t-27 73q0 30 -6.5 90t-6.5 90q0 103 14.5 285.5t14.5 285.5q0 32 -3.5 95t-3.5 95q0 43 28.5 70.5t70.5 27.5q92 0 101 -130l3 -117q168 224 345 224q160 0 223 -141q43 -94 47 -278v-101l-1 -93
q0 -83 21.5 -214.5t21.5 -213.5q0 -44 -28.5 -71.5t-71.5 -27.5z" />
    <glyph glyph-name="minute" unicode="&#x2032;" horiz-adv-x="369" 
d="M138 1094q-77 0 -80 92q-1 36 23 144l38 175q14 79 76 79q36 0 58.5 -27t22.5 -64q2 -84 -53 -304q-24 -95 -85 -95z" />
    <glyph glyph-name="second" unicode="&#x2033;" horiz-adv-x="678" 
d="M138 1094q-77 0 -80 92q-1 36 23 144l38 175q14 79 76 79q36 0 58.5 -27t22.5 -64q2 -84 -53 -304q-24 -95 -85 -95zM478 1094q-77 0 -80 92q-1 36 23 144l38 175q14 79 76 79q36 0 58.5 -27t22.5 -64q2 -84 -53 -304q-24 -95 -85 -95z" />
    <glyph glyph-name="afii61248" unicode="&#x2105;" horiz-adv-x="1680" 
d="M1252 1518q0 -22 -18 -50q-37 -60 -79 -159q-60 -141 -71 -162q-68 -141 -198 -425q-75 -157 -224 -472q-31 -77 -101 -227q-28 -53 -75 -53q-33 0 -59.5 23.5t-26.5 58.5q0 15 6 33q49 135 158 353q129 257 168 349q94 198 270 600q54 133 99 182q31 34 64 34
q34 0 60.5 -25.5t26.5 -59.5zM1609 338q0 -153 -98 -255t-251 -102q-136 0 -226 81q-94 85 -94 221q0 148 84 245q88 104 234 104q136 0 238 -76q113 -85 113 -218zM646 953q0 -113 -219 -113q-151 0 -250 98.5t-99 252.5q0 368 453 368q90 0 90 -89t-90 -89
q-141 0 -200 -32q-75 -42 -75 -158q0 -71 44 -120q48 -53 127 -53q31 0 75.5 12.5t67.5 12.5q33 0 56 -29q20 -26 20 -61zM1441 338q0 58 -62 95q-54 31 -121 31q-72 0 -113 -54q-37 -50 -37 -127q0 -135 174 -135q159 0 159 190z" />
    <glyph glyph-name="afii61289" unicode="&#x2113;" horiz-adv-x="1001" 
d="M832 96q0 -71 -70 -107q-56 -30 -133 -30q-251 0 -340 218q-56 138 -55 433q-83 -31 -106 -31q-43 0 -75.5 23t-32.5 56q0 75 62 104q43 19 152 69v44q-2 313 32 465q66 300 274 300q135 0 217 -118q72 -105 72 -246q0 -338 -398 -571v-58v-47q-1 -34 -1 -55
q0 -387 199 -387q21 0 58.5 16t58.5 16q37 0 61.5 -28t24.5 -66zM631 1276q0 52 -21 102q-26 63 -70 63q-102 0 -109 -511q91 54 145.5 147.5t54.5 198.5z" />
    <glyph glyph-name="tonos" unicode="&#x384;" horiz-adv-x="1139" 
d="M736 1417q0 -31 -54 -114l-78 -112q-28 -42 -66 -42q-31 0 -52 24.5t-21 55.5q0 16 44 111q39 85 58 118q27 47 75 47q37 0 65.5 -25.5t28.5 -62.5z" />
    <glyph glyph-name="Amacron" unicode="&#x100;" horiz-adv-x="1498" 
d="M1250 -30q-92 0 -160 236q-26 90 -65 315q-102 -14 -267 -50l-266 -55q-50 -131 -171 -383q-32 -56 -87 -56q-40 0 -71.5 29t-31.5 72q0 48 151 365q-17 26 -17 60q0 81 98 104q114 214 288 492q237 379 295 379q79 0 108 -110l63 -336l149 -695l57 -158q29 -81 29 -108
q0 -43 -31 -72t-71 -29zM897 1113l-286 -461q121 31 367 75zM753 1794q39 0 118.5 -4.5t118.5 -4.5q41 0 122 2t121 2q78 0 78 -75q0 -60 -65 -73l-112 -5h-155q-48 0 -144 3t-145 3q-72 0 -72 76q0 51 46 67q24 9 89 9z" />
    <glyph glyph-name="amacron" unicode="&#x101;" horiz-adv-x="1048" 
d="M920 -66q-19 0 -69 44q-45 41 -67 73q-96 -52 -169 -78.5t-122 -26.5q-234 0 -341 132q-101 124 -101 380q0 242 166.5 414t397.5 172q87 0 195 -45q136 -56 136 -135q0 -27 -20 -48q-10 -38 -15.5 -125t-6.5 -223q-1 -124 17 -196q10 -44 63 -176q7 -18 23 -53l6 -17
q0 -40 -28 -66t-65 -26zM712 629q0 43 5.5 93.5t16.5 107.5q-37 19 -63.5 28t-42.5 9q-155 0 -267.5 -126.5t-112.5 -291.5q0 -164 58 -246t174 -82q96 0 163 35q36 19 101 76q-32 265 -32 397zM393 1344q39 0 118.5 -4.5t118.5 -4.5q41 0 122 2t121 2q78 0 78 -75
q0 -60 -65 -73l-112 -5h-155q-48 0 -144 3t-145 3q-72 0 -72 76q0 51 46 67q24 9 89 9z" />
    <glyph glyph-name="Ccircumflex" unicode="&#x108;" horiz-adv-x="1234" 
d="M1104 1122q-64 0 -96 75q-28 64 -52 78q-21 11 -104 11q-145 0 -322 -222q-240 -298 -240 -565q0 -129 83 -222q85 -96 205 -96q103 0 207 53q58 30 178 118q57 42 86 42q43 0 72 -32.5t29 -72.5q0 -45 -38 -79q-264 -234 -534 -234q-207 0 -350 159q-138 154 -138 364
q0 339 284 695q237 297 478 297q49 0 88 -4.5t69 -14.5q35 51 91 51q69 0 87 -91q16 -81 16 -199q0 -41 -22 -72q-27 -39 -77 -39zM780 2140q55 0 132 -67q24 -21 109 -112l159 -170q26 -30 26 -61q0 -36 -27.5 -63.5t-64.5 -27.5q-33 0 -63 29q-80 90 -250 260
q-254 -312 -326 -312q-36 0 -63.5 28t-27.5 64q0 35 30 65q56 54 305 336q27 31 61 31z" />
    <glyph glyph-name="ccircumflex" unicode="&#x109;" horiz-adv-x="1052" 
d="M591 -63q-205 0 -342 124q-144 130 -144 343q0 203 135 419q150 240 338 240q98 0 219 -46q153 -59 153 -144q0 -38 -25 -67.5t-62 -29.5q-29 0 -50.5 17.5t-41.5 34.5q-59 47 -193 47q-102 0 -202 -182q-91 -167 -91 -289q0 -132 90 -208q84 -71 216 -71q60 0 128 32
l116 62q30 16 43 16q37 0 64 -29.5t27 -67.5q0 -73 -154 -141q-135 -60 -224 -60zM590 1590q55 0 132 -67q24 -21 109 -112l159 -170q26 -30 26 -61q0 -36 -27.5 -63.5t-64.5 -27.5q-33 0 -63 29q-80 90 -250 260q-254 -312 -326 -312q-36 0 -63.5 28t-27.5 64q0 35 30 65
q56 54 305 336q27 31 61 31z" />
    <glyph glyph-name="Cdot" unicode="&#x10a;" horiz-adv-x="1234" 
d="M1104 1122q-64 0 -96 75q-28 64 -52 78q-21 11 -104 11q-145 0 -322 -222q-240 -298 -240 -565q0 -129 83 -222q85 -96 205 -96q103 0 207 53q58 30 178 118q57 42 86 42q43 0 72 -32.5t29 -72.5q0 -45 -38 -79q-264 -234 -534 -234q-207 0 -350 159q-138 154 -138 364
q0 339 284 695q237 297 478 297q49 0 88 -4.5t69 -14.5q35 51 91 51q69 0 87 -91q16 -81 16 -199q0 -41 -22 -72q-27 -39 -77 -39zM980 1728q0 -36 -34 -65.5t-71 -29.5q-32 0 -85.5 48t-53.5 79q0 37 36 66q33 28 70 28q31 0 84.5 -48.5t53.5 -77.5z" />
    <glyph glyph-name="cdot" unicode="&#x10b;" horiz-adv-x="1052" 
d="M591 -63q-205 0 -342 124q-144 130 -144 343q0 203 135 419q150 240 338 240q98 0 219 -46q153 -59 153 -144q0 -38 -25 -67.5t-62 -29.5q-29 0 -50.5 17.5t-41.5 34.5q-59 47 -193 47q-102 0 -202 -182q-91 -167 -91 -289q0 -132 90 -208q84 -71 216 -71q60 0 128 32
l116 62q30 16 43 16q37 0 64 -29.5t27 -67.5q0 -73 -154 -141q-135 -60 -224 -60zM730 1278q0 -36 -34 -65.5t-71 -29.5q-32 0 -85.5 48t-53.5 79q0 37 36 66q33 28 70 28q31 0 84.5 -48.5t53.5 -77.5z" />
    <glyph glyph-name="Emacron" unicode="&#x112;" horiz-adv-x="1279" 
d="M1115 1346q-14 0 -31 5q-169 48 -326 48q-82 0 -179 -15t-209 -46q9 -65 9 -104q0 -139 -17 -382l438 42q193 20 237 20t74 -28t30 -75q0 -91 -92 -102l-238 -21l-462 -42q-4 -71 -6.5 -134.5t-2.5 -118.5q0 -221 32 -260q24 -28 157 -28q62 0 186.5 3.5t187.5 3.5
q20 0 59 6.5t58 6.5q106 0 106 -104q0 -84 -85 -101q-94 -19 -407 -19q-310 0 -398 82q-96 89 -96 410q0 64 3 140t8 164q-11 23 -11 49q0 34 19 61q20 289 20 427q0 37 -10 108.5t-10 108.5q0 119 100 119q42 0 72 -29q120 32 226.5 48t200.5 16q243 0 388 -58
q67 -27 67 -96q0 -40 -26 -71q-29 -34 -72 -34zM563 1874q39 0 118.5 -4.5t118.5 -4.5q41 0 122 2t121 2q78 0 78 -75q0 -60 -65 -73l-112 -5h-155q-48 0 -144 3t-145 3q-72 0 -72 76q0 51 46 67q24 9 89 9z" />
    <glyph glyph-name="emacron" unicode="&#x113;" horiz-adv-x="1122" 
d="M606 -46q-226 0 -366 113q-153 125 -153 350q0 260 126 436q137 192 366 192q166 0 271 -56q129 -69 129 -212q0 -100 -113 -182q-50 -36 -212 -112l-382 -181q56 -83 139.5 -125t194.5 -42q69 0 162 26q118 33 152 86.5t73 53.5q35 0 62.5 -26.5t27.5 -61.5
q0 -111 -179 -191q-153 -68 -298 -68zM579 865q-122 0 -203 -94.5t-121 -284.5l307 146q181 88 258 153q-86 80 -241 80zM393 1344q39 0 118.5 -4.5t118.5 -4.5q41 0 122 2t121 2q78 0 78 -75q0 -60 -65 -73l-112 -5h-155q-48 0 -144 3t-145 3q-72 0 -72 76q0 51 46 67
q24 9 89 9z" />
    <glyph glyph-name="Ebreve" unicode="&#x114;" horiz-adv-x="1279" 
d="M1115 1346q-14 0 -31 5q-169 48 -326 48q-82 0 -179 -15t-209 -46q9 -65 9 -104q0 -139 -17 -382l438 42q193 20 237 20t74 -28t30 -75q0 -91 -92 -102l-238 -21l-462 -42q-4 -71 -6.5 -134.5t-2.5 -118.5q0 -221 32 -260q24 -28 157 -28q62 0 186.5 3.5t187.5 3.5
q20 0 59 6.5t58 6.5q106 0 106 -104q0 -84 -85 -101q-94 -19 -407 -19q-310 0 -398 82q-96 89 -96 410q0 64 3 140t8 164q-11 23 -11 49q0 34 19 61q20 289 20 427q0 37 -10 108.5t-10 108.5q0 119 100 119q42 0 72 -29q120 32 226.5 48t200.5 16q243 0 388 -58
q67 -27 67 -96q0 -40 -26 -71q-29 -34 -72 -34zM712 1829q293 0 336 160q17 63 72 63q32 0 55.5 -21t21.5 -52l-2 -14q-12 -152 -176 -228q-128 -58 -307 -58q-142 0 -249 96q-110 98 -110 239q0 75 74 75q75 0 75 -75q0 -78 67 -133q63 -52 143 -52z" />
    <glyph glyph-name="ebreve" unicode="&#x115;" horiz-adv-x="1122" 
d="M606 -46q-226 0 -366 113q-153 125 -153 350q0 260 126 436q137 192 366 192q166 0 271 -56q129 -69 129 -212q0 -100 -113 -182q-50 -36 -212 -112l-382 -181q56 -83 139.5 -125t194.5 -42q69 0 162 26q118 33 152 86.5t73 53.5q35 0 62.5 -26.5t27.5 -61.5
q0 -111 -179 -191q-153 -68 -298 -68zM579 865q-122 0 -203 -94.5t-121 -284.5l307 146q181 88 258 153q-86 80 -241 80zM522 1329q293 0 336 160q17 63 72 63q32 0 55.5 -21t21.5 -52l-2 -14q-12 -152 -176 -228q-128 -58 -307 -58q-142 0 -249 96q-110 98 -110 239
q0 75 74 75q75 0 75 -75q0 -78 67 -133q63 -52 143 -52z" />
    <glyph glyph-name="Edot" unicode="&#x116;" horiz-adv-x="1279" 
d="M1115 1346q-14 0 -31 5q-169 48 -326 48q-82 0 -179 -15t-209 -46q9 -65 9 -104q0 -139 -17 -382l438 42q193 20 237 20t74 -28t30 -75q0 -91 -92 -102l-238 -21l-462 -42q-4 -71 -6.5 -134.5t-2.5 -118.5q0 -221 32 -260q24 -28 157 -28q62 0 186.5 3.5t187.5 3.5
q20 0 59 6.5t58 6.5q106 0 106 -104q0 -84 -85 -101q-94 -19 -407 -19q-310 0 -398 82q-96 89 -96 410q0 64 3 140t8 164q-11 23 -11 49q0 34 19 61q20 289 20 427q0 37 -10 108.5t-10 108.5q0 119 100 119q42 0 72 -29q120 32 226.5 48t200.5 16q243 0 388 -58
q67 -27 67 -96q0 -40 -26 -71q-29 -34 -72 -34zM910 1778q0 -36 -34 -65.5t-71 -29.5q-32 0 -85.5 48t-53.5 79q0 37 36 66q33 28 70 28q31 0 84.5 -48.5t53.5 -77.5z" />
    <glyph glyph-name="edot" unicode="&#x117;" horiz-adv-x="1122" 
d="M606 -46q-226 0 -366 113q-153 125 -153 350q0 260 126 436q137 192 366 192q166 0 271 -56q129 -69 129 -212q0 -100 -113 -182q-50 -36 -212 -112l-382 -181q56 -83 139.5 -125t194.5 -42q69 0 162 26q118 33 152 86.5t73 53.5q35 0 62.5 -26.5t27.5 -61.5
q0 -111 -179 -191q-153 -68 -298 -68zM579 865q-122 0 -203 -94.5t-121 -284.5l307 146q181 88 258 153q-86 80 -241 80zM680 1278q0 -36 -34 -65.5t-71 -29.5q-32 0 -85.5 48t-53.5 79q0 37 36 66q33 28 70 28q31 0 84.5 -48.5t53.5 -77.5z" />
    <glyph glyph-name="Gcircumflex" unicode="&#x11c;" horiz-adv-x="1392" 
d="M1300 605q-62 -307 -260.5 -490.5t-468.5 -183.5q-246 0 -369 137.5t-123 412.5q0 259 122.5 533.5t314.5 443.5q128 113 271 113q91 0 240 -60q182 -72 182 -159q0 -41 -30 -73t-72 -32q-22 0 -62 25q-153 93 -258 93q-75 0 -157 -78q-41 -39 -118 -142
q-231 -306 -231 -664q0 -188 58 -263q63 -82 232 -82q179 0 311 113q139 120 194 343q-277 -14 -475 -107q-23 -11 -45 -11q-44 0 -73 34q-27 31 -27 72q0 55 53 88q216 132 745 132q43 0 72 -29t29 -73q0 -65 -55 -93zM820 2140q55 0 132 -67q24 -21 109 -112l159 -170
q26 -30 26 -61q0 -36 -27.5 -63.5t-64.5 -27.5q-33 0 -63 29q-80 90 -250 260q-254 -312 -326 -312q-36 0 -63.5 28t-27.5 64q0 35 30 65q56 54 305 336q27 31 61 31z" />
    <glyph glyph-name="gcircumflex" unicode="&#x11d;" horiz-adv-x="1087" 
d="M962 431l-23 -336q-6 -200 -41 -327q-45 -162 -144 -239q-120 -93 -347 -93q-133 0 -223 18q-126 25 -126 104q0 89 87 89q36 0 120 -17.5t186 -15.5q192 3 265 186q48 122 51 375q-54 -100 -128.5 -150t-170.5 -50q-181 0 -294.5 123.5t-113.5 320.5q0 270 155 435
q160 170 436 170q93 0 156 -24t96 -72q107 -3 107 -119q0 -71 -21 -190q-23 -138 -27 -188zM641 864q-190 0 -294 -131q-93 -118 -93 -300q0 -145 55 -218t165 -73q101 0 196 114q86 105 98 208q21 108 45 339q-40 31 -83 46t-89 15zM610 1690q55 0 132 -67q24 -21 109 -112
l159 -170q26 -30 26 -61q0 -36 -27.5 -63.5t-64.5 -27.5q-33 0 -63 29q-80 90 -250 260q-254 -312 -326 -312q-36 0 -63.5 28t-27.5 64q0 35 30 65q56 54 305 336q27 31 61 31z" />
    <glyph glyph-name="Gdot" unicode="&#x120;" horiz-adv-x="1392" 
d="M1300 605q-62 -307 -260.5 -490.5t-468.5 -183.5q-246 0 -369 137.5t-123 412.5q0 259 122.5 533.5t314.5 443.5q128 113 271 113q91 0 240 -60q182 -72 182 -159q0 -41 -30 -73t-72 -32q-22 0 -62 25q-153 93 -258 93q-75 0 -157 -78q-41 -39 -118 -142
q-231 -306 -231 -664q0 -188 58 -263q63 -82 232 -82q179 0 311 113q139 120 194 343q-277 -14 -475 -107q-23 -11 -45 -11q-44 0 -73 34q-27 31 -27 72q0 55 53 88q216 132 745 132q43 0 72 -29t29 -73q0 -65 -55 -93zM970 1728q0 -36 -34 -65.5t-71 -29.5q-32 0 -85.5 48
t-53.5 79q0 37 36 66q33 28 70 28q31 0 84.5 -48.5t53.5 -77.5z" />
    <glyph glyph-name="gdot" unicode="&#x121;" horiz-adv-x="1087" 
d="M962 431l-23 -336q-6 -200 -41 -327q-45 -162 -144 -239q-120 -93 -347 -93q-133 0 -223 18q-126 25 -126 104q0 89 87 89q36 0 120 -17.5t186 -15.5q192 3 265 186q48 122 51 375q-54 -100 -128.5 -150t-170.5 -50q-181 0 -294.5 123.5t-113.5 320.5q0 270 155 435
q160 170 436 170q93 0 156 -24t96 -72q107 -3 107 -119q0 -71 -21 -190q-23 -138 -27 -188zM641 864q-190 0 -294 -131q-93 -118 -93 -300q0 -145 55 -218t165 -73q101 0 196 114q86 105 98 208q21 108 45 339q-40 31 -83 46t-89 15zM810 1278q0 -36 -34 -65.5t-71 -29.5
q-32 0 -85.5 48t-53.5 79q0 37 36 66q33 28 70 28q31 0 84.5 -48.5t53.5 -77.5z" />
    <glyph glyph-name="Gcedilla" unicode="&#x122;" horiz-adv-x="1392" 
d="M1355 698q0 -65 -55 -93q-53 -262 -212 -440q-173 -195 -424 -228q41 -66 41 -133q0 -249 -242 -249q-85 0 -161 32q-96 42 -96 115q0 54 68 54q33 0 81.5 -24.5t96.5 -24.5q97 0 97 92q0 49 -50 94q-41 37 -95 56q-29 8 -85 30q-240 123 -240 502q0 260 121.5 533
t315.5 444q127 113 271 113q100 0 249 -63q173 -73 173 -156q0 -42 -30.5 -73.5t-71.5 -31.5q-14 0 -122.5 59t-197.5 59q-111 0 -275 -220q-231 -310 -231 -664q0 -183 53 -256q64 -89 237 -89q197 0 333 134q122 120 172 322q-261 -14 -475 -107q-25 -11 -45 -11
q-42 0 -71 32t-29 74q0 126 340 184q215 36 458 36q43 0 72 -29.5t29 -72.5z" />
    <glyph glyph-name="gcedilla" unicode="&#x123;" horiz-adv-x="1087" 
d="M962 431l-23 -336q-6 -200 -41 -327q-45 -162 -144 -239q-120 -93 -347 -93q-133 0 -223 18q-126 25 -126 104q0 89 87 89q36 0 120 -17.5t186 -15.5q192 3 265 186q48 122 51 375q-54 -100 -128.5 -150t-170.5 -50q-181 0 -294.5 123.5t-113.5 320.5q0 270 155 435
q160 170 436 170q93 0 156 -24t96 -72q107 -3 107 -119q0 -71 -21 -190q-23 -138 -27 -188zM641 864q-190 0 -294 -131q-93 -118 -93 -300q0 -145 55 -218t165 -73q101 0 196 114q86 105 98 208q21 108 45 339q-40 31 -83 46t-89 15zM713 1316q0 -54 -36.5 -88.5
t-91.5 -34.5q-132 0 -132 162q0 98 50 209q60 129 139 129q71 0 71 -74q0 -27 -23 -62q-20 -29 -40 -57q-16 -24 -24 -53q87 -51 87 -131z" />
    <glyph glyph-name="Hcircumflex" unicode="&#x124;" horiz-adv-x="1573" 
d="M1456 1409q-15 -42 -15 -123q0 -30 2 -89t2 -89q0 -100 -17.5 -298t-17.5 -298q0 -76 11 -228t11 -229q0 -41 -27.5 -69t-68.5 -28q-40 0 -68 28t-28 69q0 77 -11 229t-11 228q0 73 5 148q-171 -3 -423 -51l-420 -82q0 -90 -18 -255.5t-18 -256.5q0 -41 -27.5 -69.5
t-68.5 -28.5t-68.5 28.5t-27.5 69.5q0 106 17.5 316.5t17.5 316.5q0 55 -4 166t-4 167q0 79 10 237.5t10 237.5q0 42 27.5 70t68.5 28t68.5 -28t27.5 -70q0 -80 -10.5 -239.5t-10.5 -239.5l6 -253l429 81q257 48 433 50q11 143 11 431q0 76 25 154q33 107 93 107
q38 0 68 -27.5t30 -69.5q0 -15 -9 -41zM820 2140q55 0 132 -67q24 -21 109 -112l159 -170q26 -30 26 -61q0 -36 -27.5 -63.5t-64.5 -27.5q-33 0 -63 29q-80 90 -250 260q-254 -312 -326 -312q-36 0 -63.5 28t-27.5 64q0 35 30 65q56 54 305 336q27 31 61 31z" />
    <glyph glyph-name="hcircumflex" unicode="&#x125;" horiz-adv-x="1183" 
d="M976 -62q-71 0 -93 76q-23 82 -42 233q-18 145 -18 238q0 26 2.5 79t2.5 79q0 188 -94 188q-127 0 -227 -115q-51 -59 -140 -225q0 -381 -32 -451q-28 -62 -87 -62q-41 0 -72 28t-31 68q0 14 9 44q8 25 11 146l3 148l3 735q7 124 7 167q0 51 -9.5 96.5t-9.5 94.5
q0 42 29 69.5t71 27.5q82 0 96 -88q16 -97 16 -175q0 -105 -7 -219q-6 -109 -5 -219l1 -88q82 110 175.5 164.5t198.5 54.5q166 0 228 -108q44 -76 50 -256l8 -191l20 -208q14 -117 34 -206q4 -17 4 -29q0 -41 -30 -68.5t-72 -27.5zM710 2140q55 0 132 -67q24 -21 109 -112
l159 -170q26 -30 26 -61q0 -36 -27.5 -63.5t-64.5 -27.5q-33 0 -63 29q-80 90 -250 260q-254 -312 -326 -312q-36 0 -63.5 28t-27.5 64q0 35 30 65q56 54 305 336q27 31 61 31z" />
    <glyph glyph-name="Hbar" unicode="&#x126;" horiz-adv-x="1573" 
d="M1607 1211q0 -105 -162 -111q-1 -97 -18 -292.5t-17 -295.5q0 -76 11 -228t11 -229q0 -41 -27.5 -69t-68.5 -28q-40 0 -68 28t-28 69q0 77 -11 229t-11 228q0 73 5 148q-171 -3 -423 -51l-420 -82q0 -90 -18 -255.5t-18 -256.5q0 -41 -27.5 -69.5t-68.5 -28.5t-68.5 28.5
t-27.5 69.5q0 106 17.5 316.5t17.5 316.5q0 55 -4 166t-4 167q0 53 3 120h-115q-102 0 -102 99q0 93 97 99q51 4 132 3q5 90 5 154q0 42 27.5 70t68.5 28t68.5 -28t27.5 -70q0 -65 -5 -155q83 -1 319 -7q200 -5 318 -5q37 0 226 6q2 80 27 152q34 100 91 100q38 0 68 -27.5
t30 -69.5q0 -15 -9 -41q-14 -39 -15 -107q19 1 21 1q-3 -1 57 -1q88 0 88 -91zM1248 1105q-333 0 -874 -3q-4 -69 -4 -125q0 -101 6 -253q215 40 429 81q257 48 433 50q8 110 10 250z" />
    <glyph glyph-name="hbar" unicode="&#x127;" horiz-adv-x="1183" 
d="M1078 34q0 -41 -30.5 -68.5t-71.5 -27.5q-69 0 -93 76q-25 80 -43 233q-17 141 -17 238q0 26 2.5 79t2.5 79q0 188 -94 188q-127 0 -227 -115q-51 -59 -140 -225q1 -381 -32 -451q-29 -62 -87 -62q-41 0 -72 28t-31 68q0 11 9 44q8 27 11 146v633q0 46 9 279h-31
q-155 -1 -155 92q0 63 51 79q22 7 104 7h32q-16 173 -16 151q0 42 29 69.5t71 27.5q112 0 112 -239q73 4 123 4h105q164 0 164 -94q0 -37 -25 -64.5t-61 -27.5q-12 0 -36 4t-37 4q-49 0 -237 -8q-8 -186 -8 -250l1 -118q164 219 374 219q166 0 228 -107q44 -76 50 -257
q12 -370 62 -605q4 -18 4 -29z" />
    <glyph glyph-name="Itilde" unicode="&#x128;" horiz-adv-x="1119" 
d="M957 1246q-64 0 -161 13l-161 21q-23 -291 -23 -556q0 -70 4 -173t4 -173q0 -94 -7 -171l315 4q42 0 70.5 -29.5t28.5 -72.5q0 -44 -28.5 -73.5t-70.5 -29.5q-56 0 -168 -2.5t-168 -2.5q-66 0 -197.5 -18.5t-198.5 -18.5q-42 0 -70.5 29.5t-28.5 72.5t28.5 73t70.5 30
q65 0 215 21q10 81 10 185q0 69 -6.5 168.5t-6.5 167.5q0 231 28 577l-130 -4l-130 -3q-43 0 -72 29t-29 74q0 93 94 102q81 8 303 8q199 0 499 -43q89 -13 89 -107q0 -47 -34 -75q-30 -23 -69 -23zM374 2004q100 0 161 -58l83 -106q47 -58 112 -58q57 0 85 37l46 88l20 59
q14 29 60 29q75 0 75 -74q0 -36 -43 -121q-40 -80 -69 -110q-56 -57 -143 -57q-131 0 -205 57q-27 21 -88 107q-42 57 -94 57q-31 0 -55.5 -11.5t-42.5 -34.5l-44 -85q-25 -45 -65 -45q-31 0 -54 20.5t-23 51.5q0 11 3 23q28 102 101 165q78 66 180 66z" />
    <glyph glyph-name="itilde" unicode="&#x129;" horiz-adv-x="574" 
d="M375 454q0 -60 3.5 -179.5t3.5 -179.5q0 -44 -27 -72t-71 -28q-43 0 -70.5 28t-27.5 72q0 60 -3.5 179.5t-3.5 179.5q0 94 10 234.5t10 234.5q0 45 27.5 73t70.5 28t70.5 -28t27.5 -73q0 -94 -10 -234.5t-10 -234.5zM94 1554q100 0 161 -58l83 -106q47 -58 112 -58
q57 0 85 37l46 88l20 59q14 29 60 29q75 0 75 -74q0 -36 -43 -121q-40 -80 -69 -110q-56 -57 -143 -57q-131 0 -205 57q-27 21 -88 107q-42 57 -94 57q-31 0 -55.5 -11.5t-42.5 -34.5l-44 -85q-25 -45 -65 -45q-31 0 -54 20.5t-23 51.5q0 11 3 23q28 102 101 165
q78 66 180 66z" />
    <glyph glyph-name="Imacron" unicode="&#x12a;" horiz-adv-x="1119" 
d="M957 1246q-64 0 -161 13l-161 21q-23 -291 -23 -556q0 -70 4 -173t4 -173q0 -94 -7 -171l315 4q42 0 70.5 -29.5t28.5 -72.5q0 -44 -28.5 -73.5t-70.5 -29.5q-56 0 -168 -2.5t-168 -2.5q-66 0 -197.5 -18.5t-198.5 -18.5q-42 0 -70.5 29.5t-28.5 72.5t28.5 73t70.5 30
q65 0 215 21q10 81 10 185q0 69 -6.5 168.5t-6.5 167.5q0 231 28 577l-130 -4l-130 -3q-43 0 -72 29t-29 74q0 93 94 102q81 8 303 8q199 0 499 -43q89 -13 89 -107q0 -47 -34 -75q-30 -23 -69 -23zM353 1794q39 0 118.5 -4.5t118.5 -4.5q41 0 122 2t121 2q78 0 78 -75
q0 -60 -65 -73l-112 -5h-155q-48 0 -144 3t-145 3q-72 0 -72 76q0 51 46 67q24 9 89 9z" />
    <glyph glyph-name="imacron" unicode="&#x12b;" horiz-adv-x="574" 
d="M375 454q0 -60 3.5 -179.5t3.5 -179.5q0 -44 -27 -72t-71 -28q-43 0 -70.5 28t-27.5 72q0 60 -3.5 179.5t-3.5 179.5q0 94 10 234.5t10 234.5q0 45 27.5 73t70.5 28t70.5 -28t27.5 -73q0 -94 -10 -234.5t-10 -234.5zM53 1344q39 0 118.5 -4.5t118.5 -4.5q41 0 122 2
t121 2q78 0 78 -75q0 -60 -65 -73l-112 -5h-155q-48 0 -144 3t-145 3q-72 0 -72 76q0 51 46 67q24 9 89 9z" />
    <glyph glyph-name="Ibreve" unicode="&#x12c;" horiz-adv-x="1119" 
d="M957 1246q-64 0 -161 13l-161 21q-23 -291 -23 -556q0 -70 4 -173t4 -173q0 -94 -7 -171l315 4q42 0 70.5 -29.5t28.5 -72.5q0 -44 -28.5 -73.5t-70.5 -29.5q-56 0 -168 -2.5t-168 -2.5q-66 0 -197.5 -18.5t-198.5 -18.5q-42 0 -70.5 29.5t-28.5 72.5t28.5 73t70.5 30
q65 0 215 21q10 81 10 185q0 69 -6.5 168.5t-6.5 167.5q0 231 28 577l-130 -4l-130 -3q-43 0 -72 29t-29 74q0 93 94 102q81 8 303 8q199 0 499 -43q89 -13 89 -107q0 -47 -34 -75q-30 -23 -69 -23zM492 1779q293 0 336 160q17 63 72 63q32 0 55.5 -21t21.5 -52l-2 -14
q-12 -152 -176 -228q-128 -58 -307 -58q-142 0 -249 96q-110 98 -110 239q0 75 74 75q75 0 75 -75q0 -78 67 -133q63 -52 143 -52z" />
    <glyph glyph-name="ibreve" unicode="&#x12d;" horiz-adv-x="574" 
d="M375 454q0 -60 3.5 -179.5t3.5 -179.5q0 -44 -27 -72t-71 -28q-43 0 -70.5 28t-27.5 72q0 60 -3.5 179.5t-3.5 179.5q0 94 10 234.5t10 234.5q0 45 27.5 73t70.5 28t70.5 -28t27.5 -73q0 -94 -10 -234.5t-10 -234.5zM232 1329q293 0 336 160q17 63 72 63q32 0 55.5 -21
t21.5 -52l-2 -14q-12 -152 -176 -228q-128 -58 -307 -58q-142 0 -249 96q-110 98 -110 239q0 75 74 75q75 0 75 -75q0 -78 67 -133q63 -52 143 -52z" />
    <glyph glyph-name="Iogonek" unicode="&#x12e;" horiz-adv-x="1119" 
d="M957 1246q-64 0 -161 13l-161 21q-23 -291 -23 -556q0 -70 4 -173t4 -173q0 -94 -7 -171l315 4q42 0 70.5 -29.5t28.5 -72.5q0 -44 -28.5 -73.5t-70.5 -29.5q-56 0 -168 -2.5t-168 -2.5q-66 0 -197.5 -18.5t-198.5 -18.5q-42 0 -70.5 29.5t-28.5 72.5t28.5 73t70.5 30
q65 0 215 21q10 81 10 185q0 69 -6.5 168.5t-6.5 167.5q0 231 28 577l-130 -4l-130 -3q-43 0 -72 29t-29 74q0 93 94 102q81 8 303 8q199 0 499 -43q89 -13 89 -107q0 -47 -34 -75q-30 -23 -69 -23zM497 -77q0 -36 26 -75q27 -43 62 -43q101 0 173 37q22 12 39 12
q31 0 52.5 -24t21.5 -55q0 -63 -116 -96q-82 -23 -170 -23q-98 0 -169 86q-68 81 -68 181q0 82 73 164.5t154 82.5q31 0 51.5 -23t20.5 -54q0 -44 -75 -81t-75 -89z" />
    <glyph glyph-name="iogonek" unicode="&#x12f;" horiz-adv-x="574" 
d="M330 1266q-48 0 -83 34t-35 82t35 82t83 34t82.5 -34t34.5 -82t-34.5 -82t-82.5 -34zM375 454q0 -60 3.5 -179.5t3.5 -179.5q0 -44 -27 -72t-71 -28q-43 0 -70.5 28t-27.5 72q0 60 -3.5 179.5t-3.5 179.5q0 94 10 234.5t10 234.5q0 45 27.5 73t70.5 28t70.5 -28t27.5 -73
q0 -94 -10 -234.5t-10 -234.5zM197 -77q0 -36 26 -75q27 -43 62 -43q101 0 173 37q22 12 39 12q31 0 52.5 -24t21.5 -55q0 -63 -116 -96q-82 -23 -170 -23q-98 0 -169 86q-68 81 -68 181q0 82 73 164.5t154 82.5q31 0 51.5 -23t20.5 -54q0 -44 -75 -81t-75 -89z" />
    <glyph glyph-name="Jcircumflex" unicode="&#x134;" horiz-adv-x="1362" 
d="M1197 1294q-18 0 -61.5 7.5t-67.5 7.5q-49 0 -115 -3l5 -119q0 -744 -99 -1083q-66 -224 -231 -224q-174 0 -345 126q-189 140 -189 321q0 123 101 123t101 -121q0 -83 118 -165q113 -78 214 -78q82 0 114 503q15 238 15 598q0 28 -5 108l-61 -1q-39 0 -117.5 2.5
t-118.5 2.5q-44 0 -74 28t-30 76q0 103 139 103q34 0 101 -3t100 -3q63 0 188.5 7.5t188.5 7.5q228 0 228 -116q0 -40 -27 -71q-29 -34 -72 -34zM750 2140q55 0 132 -67q24 -21 109 -112l159 -170q26 -30 26 -61q0 -36 -27.5 -63.5t-64.5 -27.5q-33 0 -63 29
q-80 90 -250 260q-254 -312 -326 -312q-36 0 -63.5 28t-27.5 64q0 35 30 65q56 54 305 336q27 31 61 31z" />
    <glyph glyph-name="jcircumflex" unicode="&#x135;" horiz-adv-x="826" 
d="M766 1280q0 -36 -27.5 -63.5t-64.5 -27.5q-33 0 -63 29q-80 90 -250 260q-254 -312 -326 -312q-36 0 -63.5 28t-27.5 64q0 35 30 65q56 54 305 336q27 31 61 31q55 0 132 -67q24 -21 109 -112q54 -56 159 -170q26 -30 26 -61zM656 -222q0 -139 -83 -252
q-90 -123 -219 -123q-215 0 -360 331q-12 27 -12 48q0 40 31.5 69t71.5 29q59 0 123 -130q16 -34 56 -98q39 -50 90 -50q44 0 75 66q24 50 29 99l1 1q1 117 -34 599q-34 463 -34 551q0 50 28.5 89t72.5 39q34 0 68 -25t36 -51q12 -197 33 -576q27 -492 27 -616z" />
    <glyph glyph-name="Kcedilla" unicode="&#x136;" horiz-adv-x="1251" 
d="M1153 -41q-152 0 -433 267l-299 301v-14l-1 -524q0 -99 -87 -99q-57 0 -91 50q-28 41 -28 89q0 234 14 700t14 699q0 43 28.5 73t70.5 30q43 0 71.5 -30t28.5 -73q0 -97 -12 -302q-12 -198 -11 -303q134 127 303 319l287 333q34 39 76 39q40 0 71 -30t31 -73
q0 -66 -258 -352q-178 -195 -368 -382q120 -126 376 -362l105 -88q57 -44 123 -66q79 -26 79 -99q0 -34 -21 -65q-26 -38 -69 -38zM945 -196q0 -124 -60.5 -186.5t-181.5 -62.5q-85 0 -161 32q-96 42 -96 115q0 54 68 54q36 0 81.5 -24.5t96.5 -24.5q49 1 73 24t24 68
q0 60 -70 110q-56 40 -125 57q-65 15 -65 73q0 76 72 76q120 0 230 -95q114 -98 114 -216z" />
    <glyph glyph-name="kcedilla" unicode="&#x137;" horiz-adv-x="1106" 
d="M972 -41q-55 0 -85 58q-52 101 -157 239l-177 241q-58 -46 -180 -129q-11 -155 -11 -302q0 -45 -27.5 -73t-70.5 -28q-101 0 -101 136q0 83 11.5 248.5t11.5 248.5q0 152 4.5 347.5t4.5 345.5q0 45 -4.5 106t-4.5 106t27.5 73t70.5 28t70.5 -28t27.5 -73q0 -46 5 -108.5
t5 -108.5l-7 -322q-5 -174 -3 -348q136 104 262 228l220 227q33 34 71 34q39 0 70.5 -31t31.5 -72q0 -34 -29 -67q-123 -144 -303 -309l218 -297q153 -209 153 -272q0 -40 -31.5 -69t-72.5 -29zM865 -196q0 -124 -60.5 -186.5t-181.5 -62.5q-85 0 -161 32q-96 42 -96 115
q0 54 68 54q36 0 81.5 -24.5t96.5 -24.5q49 1 73 24t24 68q0 60 -70 110q-56 40 -125 57q-65 15 -65 73q0 76 72 76q120 0 230 -95q114 -98 114 -216z" />
    <glyph glyph-name="kgreenlandic" unicode="&#x138;" horiz-adv-x="1106" 
d="M1038 57q0 -40 -32 -69t-72 -29q-52 0 -85 58q-55 99 -162 243q-138 186 -172 237q-58 -46 -180 -129q-11 -155 -11 -302q0 -44 -27.5 -72.5t-70.5 -28.5q-101 0 -101 136q0 83 11.5 248.5t11.5 248.5v465q0 44 27 72.5t71 28.5t71 -28.5t27 -72.5t-1 -133.5t-1 -134.5
q0 -51 2 -179q112 86 248 220q117 117 234 235q35 34 71 34q40 0 71 -31t31 -72q0 -72 -332 -376q106 -145 213 -289q158 -218 158 -280z" />
    <glyph glyph-name="Lcedilla" unicode="&#x13b;" horiz-adv-x="1128" 
d="M1089 135q0 -64 -64 -94q-94 -44 -286 -82q56 -76 56 -155q0 -249 -242 -249q-85 0 -161 32q-96 42 -96 115q0 54 68 54q36 0 81.5 -24.5t96.5 -24.5q97 1 97 92q0 72 -97 127q-145 -19 -236 -19q-101 0 -145 31q-60 42 -60 154q0 -8 20 331q26 458 26 1016q0 43 28.5 73
t70.5 30q43 0 71.5 -30t28.5 -73q0 -565 -27 -1028q-1 -28 -13 -152q-8 -83 -6 -147q261 -3 660 123q17 5 32 5q43 0 72 -34q25 -31 25 -71z" />
    <glyph glyph-name="lcedilla" unicode="&#x13c;" horiz-adv-x="561" 
d="M675 -196q0 -249 -242 -249q-85 0 -161 32q-96 42 -96 115q0 54 68 54q36 0 81.5 -24.5t96.5 -24.5q97 1 97 92q0 60 -70 110q-55 39 -125 57l-5 1q-20 -10 -47 -10q-98 0 -98 102q0 121 11 363.5t11 363.5q0 158 5 361.5t5 361.5q0 100 98 100q99 0 99 -100
q0 -158 -5 -361.5t-5 -361.5q0 -125 -15 -497q-1 -60 -4 -178q114 -18 205 -107q96 -93 96 -200z" />
    <glyph glyph-name="Ncedilla" unicode="&#x145;" horiz-adv-x="1632" 
d="M1541 222q0 -48 -16 -160q-16 -101 -107 -101q-55 0 -131 72q-407 385 -934 1111l-5 -227l-3 -228q0 -83 3.5 -249t3.5 -250q0 -269 -104 -269q-55 0 -87 35q-29 31 -29 74q0 42 6.5 127t6.5 127q0 62 4 185.5t4 185.5q0 66 -3 199.5t-3 199.5q0 63 -12 187.5t-12 187.5
q0 46 39.5 84t89.5 38q53 0 131 -116q249 -373 448 -620q237 -293 520 -560q3 43 0 127l-3 126q0 439 -34 699q-4 26 -27 105q-20 68 -20 106q0 116 106 116q174 0 174 -649q0 -111 -3 -331.5t-3 -331.5zM1035 -196q0 -124 -60.5 -186.5t-181.5 -62.5q-85 0 -161 32
q-96 42 -96 115q0 54 68 54q36 0 81.5 -24.5t96.5 -24.5q49 1 73 24t24 68q0 60 -70 110q-56 40 -125 57q-65 15 -65 73q0 76 72 76q120 0 230 -95q114 -98 114 -216z" />
    <glyph glyph-name="ncedilla" unicode="&#x146;" horiz-adv-x="1072" 
d="M906 -71q-86 0 -97 94l-28 219q-14 117 -14 219q0 28 3.5 95t3.5 95q0 216 -80 216q-112 0 -214 -133q-92 -121 -144 -306q-2 -39 -9 -98q-6 -50 -6 -97q0 -30 6 -90t6 -90q0 -45 -27.5 -73t-70.5 -28q-44 0 -71 28t-27 73q0 30 -6.5 90t-6.5 90q0 103 14.5 285.5
t14.5 285.5q0 32 -3.5 95t-3.5 95q0 43 28.5 70.5t70.5 27.5q92 0 101 -130l3 -117q168 224 345 224q160 0 223 -141q43 -94 47 -278v-101l-1 -93q0 -83 21.5 -214.5t21.5 -213.5q0 -44 -28.5 -71.5t-71.5 -27.5zM815 -196q0 -124 -60.5 -186.5t-181.5 -62.5q-85 0 -161 32
q-96 42 -96 115q0 54 68 54q36 0 81.5 -24.5t96.5 -24.5q49 1 73 24t24 68q0 60 -70 110q-56 40 -125 57q-65 15 -65 73q0 76 72 76q120 0 230 -95q114 -98 114 -216z" />
    <glyph glyph-name="Eng" unicode="&#x14a;" horiz-adv-x="1632" 
d="M1547 885q0 -111 -3 -331.5t-3 -331.5q0 -383 -60 -532q-87 -216 -350 -216q-208 0 -208 115q0 39 29.5 69.5t70.5 30.5q13 0 27 -3q44 -13 81 -13q130 0 168 112q20 58 20 221q-16 12 -32 27q-407 385 -934 1111q-1 -51 -5 -227q-3 -156 -3 -228q0 -83 3.5 -249
t3.5 -250q0 -269 -104 -269q-55 0 -87 35q-29 31 -29 74q0 42 6.5 127t6.5 127q0 62 4 185.5t4 185.5q0 66 -3 199.5t-3 199.5q0 63 -12 187.5t-12 187.5q0 46 39.5 84t89.5 38q53 0 131 -116q249 -373 448 -620q237 -293 520 -560q3 43 0 127q-3 109 -3 126q0 439 -34 699
q-4 26 -27 105q-20 68 -20 106q0 116 106 116q174 0 174 -649z" />
    <glyph glyph-name="eng" unicode="&#x14b;" horiz-adv-x="1072" 
d="M1016 -222q0 -137 -81 -250q-90 -125 -221 -125q-129 0 -205 68q-60 54 -115 186q-12 29 -12 48q0 40 31.5 69t72.5 29q55 0 105.5 -100.5t122.5 -100.5q44 0 77 69q28 58 28 107q0 114 -26 341.5t-26 341.5q0 32 3.5 95t3.5 95q0 216 -80 216q-121 0 -236 -163
q-99 -141 -122 -276q-15 -87 -15 -195q0 -30 6 -90t6 -90q0 -44 -27 -72.5t-71 -28.5t-71 28.5t-27 72.5q0 30 -6.5 90t-6.5 90q0 96 14.5 286t14.5 285q0 32 -3.5 95t-3.5 95q0 42 28.5 70t70.5 28q79 0 97 -92q3 -16 7 -155q168 224 345 224q164 0 227 -150
q44 -104 44 -308q0 -30 -1 -82t-1 -73q0 -113 26.5 -338.5t26.5 -339.5z" />
    <glyph glyph-name="Omacron" unicode="&#x14c;" horiz-adv-x="1635" 
d="M802 -61q-282 0 -478 169q-208 180 -208 464q0 346 205 629q229 314 571 314q329 0 489 -148q167 -154 167 -486q0 -346 -188 -624q-216 -318 -558 -318zM892 1310q-245 0 -415 -244q-157 -224 -157 -494q0 -193 143 -314q137 -114 339 -114q243 0 401 245
q141 219 141 492q0 239 -107 336q-102 93 -345 93zM773 1794q39 0 118.5 -4.5t118.5 -4.5q41 0 122 2t121 2q78 0 78 -75q0 -60 -65 -73l-112 -5h-155q-48 0 -144 3t-145 3q-72 0 -72 76q0 51 46 67q24 9 89 9z" />
    <glyph glyph-name="omacron" unicode="&#x14d;" horiz-adv-x="1077" 
d="M514 -59q-168 0 -289 124q-135 138 -142 371q-6 226 114 398q140 203 390 203q200 0 303 -183q82 -148 79 -356q-3 -222 -116 -379q-128 -178 -339 -178zM574 834q-147 1 -229 -140q-65 -113 -65 -258t79 -226q66 -67 155 -67q104 0 179 76q85 84 90 227q14 387 -209 388
zM373 1344q39 0 118.5 -4.5t118.5 -4.5q41 0 122 2t121 2q78 0 78 -75q0 -60 -65 -73l-112 -5h-155q-48 0 -144 3t-145 3q-72 0 -72 76q0 51 46 67q24 9 89 9z" />
    <glyph glyph-name="Obreve" unicode="&#x14e;" horiz-adv-x="1635" 
d="M802 -61q-282 0 -478 169q-208 180 -208 464q0 346 205 629q229 314 571 314q329 0 489 -148q167 -154 167 -486q0 -346 -188 -624q-216 -318 -558 -318zM892 1310q-245 0 -415 -244q-157 -224 -157 -494q0 -193 143 -314q137 -114 339 -114q243 0 401 245
q141 219 141 492q0 239 -107 336q-102 93 -345 93zM956 1779q293 0 336 160q17 63 72 63q32 0 55.5 -21t21.5 -52l-2 -14q-12 -152 -176 -228q-128 -58 -307 -58q-142 0 -249 96q-110 98 -110 239q0 75 74 75q75 0 75 -75q0 -78 67 -133q63 -52 143 -52z" />
    <glyph glyph-name="obreve" unicode="&#x14f;" horiz-adv-x="1077" 
d="M514 -59q-168 0 -289 124q-135 138 -142 371q-6 226 114 398q140 203 390 203q200 0 303 -183q82 -148 79 -356q-3 -222 -116 -379q-128 -178 -339 -178zM574 834q-147 1 -229 -140q-65 -113 -65 -258t79 -226q66 -67 155 -67q104 0 179 76q85 84 90 227q14 387 -209 388
zM552 1329q293 0 336 160q17 63 72 63q32 0 55.5 -21t21.5 -52l-2 -14q-12 -152 -176 -228q-128 -58 -307 -58q-142 0 -249 96q-110 98 -110 239q0 75 74 75q75 0 75 -75q0 -78 67 -133q63 -52 143 -52z" />
    <glyph glyph-name="Rcedilla" unicode="&#x156;" horiz-adv-x="1287" 
d="M1126 -11q-38 0 -71 32q-331 327 -736 440l8 -196l5 -197q0 -44 -28.5 -73.5t-71.5 -29.5t-71.5 29.5t-28.5 73.5q0 79 -7.5 235.5t-7.5 235.5q0 92 20 274t20 273q0 51 -9.5 151t-9.5 151q0 57 32 100q38 53 105 48l241 -19q137 -17 231 -67q405 -215 405 -525
q0 -152 -138 -269q-111 -94 -277 -143q311 -167 465 -352q26 -32 26 -68q0 -42 -30.5 -73t-71.5 -31zM489 1311l-148 12l10 -121q7 -74 7 -121q0 -80 -13 -199l-21 -199q14 0 43.5 -1t44.5 -1q255 0 382 68q56 31 104 81q53 56 53 95q0 139 -158 259q-145 110 -304 127z
M865 -196q0 -124 -60.5 -186.5t-181.5 -62.5q-85 0 -161 32q-96 42 -96 115q0 54 68 54q36 0 81.5 -24.5t96.5 -24.5q49 1 73 24t24 68q0 60 -70 110q-56 40 -125 57q-65 15 -65 73q0 76 72 76q120 0 230 -95q114 -98 114 -216z" />
    <glyph glyph-name="rcedilla" unicode="&#x157;" horiz-adv-x="984" 
d="M918 809q0 -52 -1 -70q-7 -125 -100 -125q-86 0 -86 99q0 19 -3 70l-3 84q-158 -19 -253 -89q-89 -65 -148 -196v-490q96 -37 163 -115q71 -84 71 -173q0 -249 -242 -249q-85 0 -161 32q-96 42 -96 115q0 54 68 54q36 0 81.5 -24.5t96.5 -24.5q97 1 97 92q0 85 -130 144
q-20 -10 -45 -10q-88 0 -88 101v702q0 33 2.5 99t2.5 99q0 101 88 101q62 0 81 -57q11 -31 11 -109q192 185 433 185q161 0 161 -245z" />
    <glyph glyph-name="Scircumflex" unicode="&#x15c;" horiz-adv-x="1420" 
d="M134 249q-1 42 28.5 68.5t72.5 26.5q49 0 86 -56q51 -76 91 -103q85 -56 247 -56q155 0 288 67q170 86 170 239q0 126 -143 199q-121 63 -299 68q-158 6 -269 69q-142 81 -142 232q0 178 202 325q193 139 399 139q97 0 219 -33q162 -43 162 -110q0 -88 -90 -88
q-40 0 -140 21.5t-155 20.5q-156 -2 -265 -77q-112 -77 -112 -187q0 -83 148 -117q55 -13 213 -24q229 -17 358 -144q118 -116 118 -283q0 -238 -220 -380q-191 -123 -443 -123q-183 0 -335 70q-186 86 -189 236zM760 2140q55 0 132 -67q24 -21 109 -112l159 -170
q26 -30 26 -61q0 -36 -27.5 -63.5t-64.5 -27.5q-33 0 -63 29q-80 90 -250 260q-254 -312 -326 -312q-36 0 -63.5 28t-27.5 64q0 35 30 65q56 54 305 336q27 31 61 31z" />
    <glyph glyph-name="scircumflex" unicode="&#x15d;" horiz-adv-x="997" 
d="M814 770q-55 0 -77 37q-15 26 -26 108q-75 -19 -231 -70q-161 -64 -162 -158q30 -11 59 -16q230 -41 342 -113q163 -105 163 -304q0 -163 -141 -246q-117 -68 -296 -68q-131 0 -250 44q-154 56 -154 156q0 40 31.5 70t71.5 30q31 0 80 -48q24 -23 108 -38q67 -12 113 -12
q84 0 148 20q93 29 93 92q0 136 -190 184l-104 23q-133 29 -189 68q-81 56 -81 169q0 209 197 298q60 27 192 64.5t189 63.5q41 18 89 18q43 0 70.5 -28t27.5 -73q0 -29 12.5 -85t12.5 -85q0 -45 -27.5 -73t-70.5 -28zM460 1690q55 0 132 -67q24 -21 109 -112l159 -170
q26 -30 26 -61q0 -36 -27.5 -63.5t-64.5 -27.5q-33 0 -63 29q-80 90 -250 260q-254 -312 -326 -312q-36 0 -63.5 28t-27.5 64q0 35 30 65q56 54 305 336q27 31 61 31z" />
    <glyph glyph-name="Tbar" unicode="&#x166;" horiz-adv-x="1392" 
d="M1389 1365q0 -43 -29 -72.5t-72 -29.5q-72 0 -219.5 11.5t-222.5 10.5h-85q3 -140 24 -414q118 -9 174 -9q43 0 71 -28t28 -71t-28 -71t-71 -28q-56 0 -159 7q10 -160 10 -283q0 -35 7 -106t7 -107q0 -183 -109 -183q-42 0 -73 29t-31 71q0 15 5.5 45t5.5 45q0 49 -7 147
t-7 148q0 91 -7 203q-34 0 -104 -8t-104 -8q-43 0 -71 29t-28 72q0 81 113 104q48 10 178 10q-12 134 -27 402l-91 -1q-221 -2 -344 32q-81 23 -81 99q0 46 29 75t74 29q53 0 160.5 -15t161.5 -15q61 0 182.5 2.5t182.5 2.5q76 0 228 -11t228 -11q43 0 72 -30t29 -73z" />
    <glyph glyph-name="tbar" unicode="&#x167;" horiz-adv-x="965" 
d="M906 953q0 -99 -119 -99q-13 0 -39.5 1t-38.5 1q-23 0 -136 -15l7 -161q70 -6 140 -11q78 -19 78 -96q0 -43 -28 -71t-71 -28q-54 0 -111 6q7 -208 7 -344q0 -200 -106 -200q-40 0 -69.5 26t-29.5 65q0 38 3 114t3 114q0 103 -5 234q-20 -1 -63 -8t-65 -7q-43 0 -71 29
t-28 72q0 111 219 114l-7 150q-74 3 -222 17q-89 13 -89 99q0 42 26.5 72t69.5 30q-9 0 210 -17q0 43 -4.5 130t-4.5 130q0 42 29 69.5t71 27.5q109 0 109 -227q0 -28 -2 -72t-2 -57q126 16 184 16q74 0 107 -15q48 -23 48 -89z" />
    <glyph glyph-name="Utilde" unicode="&#x168;" horiz-adv-x="1509" 
d="M790 -40q-311 0 -464 179q-124 144 -156 426q-15 127 -15 507q0 140 6 226q6 91 18 127q25 73 90 73q92 0 92 -169v-587q0 -606 424 -606q399 0 399 1020v98q-1 60 -1 80q0 62 22 109q28 60 83 60q100 0 100 -137q0 -41 1 -124v-124q0 -1158 -599 -1158zM624 2004
q100 0 161 -58l83 -106q47 -58 112 -58q57 0 85 37l46 88l20 59q14 29 60 29q75 0 75 -74q0 -36 -43 -121q-40 -80 -69 -110q-56 -57 -143 -57q-131 0 -205 57q-27 21 -88 107q-42 57 -94 57q-31 0 -55.5 -11.5t-42.5 -34.5l-44 -85q-25 -45 -65 -45q-31 0 -54 20.5
t-23 51.5q0 11 3 23q28 102 101 165q78 66 180 66z" />
    <glyph glyph-name="utilde" unicode="&#x169;" 
d="M955 584q0 -72 1 -216t1 -216q0 -22 3.5 -67t3.5 -67q0 -43 -29 -70.5t-71 -27.5q-77 0 -98 95q-125 -65 -288 -65q-131 0 -217 58q-95 64 -113 187q-39 265 -39 472q0 137 30 312q14 87 95 87q43 0 72 -27.5t29 -70.5q0 -46 -14.5 -147t-14.5 -154q0 -167 11 -286
t33 -191q33 -18 65 -27.5t63 -9.5q134 0 283 43l-1 203l-2 194q0 216 19 375q11 92 97 92q43 0 72 -28t27 -70zM374 1554q100 0 161 -58l83 -106q47 -58 112 -58q57 0 85 37l46 88l20 59q14 29 60 29q75 0 75 -74q0 -36 -43 -121q-40 -80 -69 -110q-56 -57 -143 -57
q-131 0 -205 57q-27 21 -88 107q-42 57 -94 57q-31 0 -55.5 -11.5t-42.5 -34.5l-44 -85q-25 -45 -65 -45q-31 0 -54 20.5t-23 51.5q0 11 3 23q28 102 101 165q78 66 180 66z" />
    <glyph glyph-name="Umacron" unicode="&#x16a;" horiz-adv-x="1509" 
d="M790 -40q-311 0 -464 179q-124 144 -156 426q-15 127 -15 507q0 140 6 226q6 91 18 127q25 73 90 73q92 0 92 -169v-587q0 -606 424 -606q399 0 399 1020v98q-1 60 -1 80q0 62 22 109q28 60 83 60q100 0 100 -137q0 -41 1 -124v-124q0 -1158 -599 -1158zM613 1794
q39 0 118.5 -4.5t118.5 -4.5q41 0 122 2t121 2q78 0 78 -75q0 -60 -65 -73l-112 -5h-155q-48 0 -144 3t-145 3q-72 0 -72 76q0 51 46 67q24 9 89 9z" />
    <glyph glyph-name="umacron" unicode="&#x16b;" 
d="M955 584q0 -72 1 -216t1 -216q0 -22 3.5 -67t3.5 -67q0 -43 -29 -70.5t-71 -27.5q-77 0 -98 95q-125 -65 -288 -65q-131 0 -217 58q-95 64 -113 187q-39 265 -39 472q0 137 30 312q14 87 95 87q43 0 72 -27.5t29 -70.5q0 -46 -14.5 -147t-14.5 -154q0 -167 11 -286
t33 -191q33 -18 65 -27.5t63 -9.5q134 0 283 43l-1 203l-2 194q0 216 19 375q11 92 97 92q43 0 72 -28t27 -70zM368 1344q39 0 118.5 -4.5t118.5 -4.5q41 0 122 2t121 2q78 0 78 -75q0 -60 -65 -73l-112 -5h-155q-48 0 -144 3t-145 3q-72 0 -72 76q0 51 46 67q24 9 89 9z
" />
    <glyph glyph-name="Ubreve" unicode="&#x16c;" horiz-adv-x="1509" 
d="M790 -40q-311 0 -464 179q-124 144 -156 426q-15 127 -15 507q0 140 6 226q6 91 18 127q25 73 90 73q92 0 92 -169v-587q0 -606 424 -606q399 0 399 1020v98q-1 60 -1 80q0 62 22 109q28 60 83 60q100 0 100 -137q0 -41 1 -124v-124q0 -1158 -599 -1158zM762 1779
q293 0 336 160q17 63 72 63q32 0 55.5 -21t21.5 -52l-2 -14q-12 -152 -176 -228q-128 -58 -307 -58q-142 0 -249 96q-110 98 -110 239q0 75 74 75q75 0 75 -75q0 -78 67 -133q63 -52 143 -52z" />
    <glyph glyph-name="ubreve" unicode="&#x16d;" 
d="M955 584q0 -72 1 -216t1 -216q0 -22 3.5 -67t3.5 -67q0 -43 -29 -70.5t-71 -27.5q-77 0 -98 95q-125 -65 -288 -65q-131 0 -217 58q-95 64 -113 187q-39 265 -39 472q0 137 30 312q14 87 95 87q43 0 72 -27.5t29 -70.5q0 -46 -14.5 -147t-14.5 -154q0 -167 11 -286
t33 -191q33 -18 65 -27.5t63 -9.5q134 0 283 43l-1 203l-2 194q0 216 19 375q11 92 97 92q43 0 72 -28t27 -70zM492 1329q293 0 336 160q17 63 72 63q32 0 55.5 -21t21.5 -52l-2 -14q-12 -152 -176 -228q-128 -58 -307 -58q-142 0 -249 96q-110 98 -110 239q0 75 74 75
q75 0 75 -75q0 -78 67 -133q63 -52 143 -52z" />
    <glyph glyph-name="Uogonek" unicode="&#x172;" horiz-adv-x="1509" 
d="M790 -40q-311 0 -464 179q-124 144 -156 426q-15 127 -15 507q0 140 6 226q6 91 18 127q25 73 90 73q92 0 92 -169v-587q0 -606 424 -606q399 0 399 1020v98q-1 60 -1 80q0 62 22 109q28 60 83 60q100 0 100 -137q0 -41 1 -124v-124q0 -1158 -599 -1158zM747 -177
q0 -36 26 -75q27 -43 62 -43q101 0 173 37q22 12 39 12q31 0 52.5 -24t21.5 -55q0 -63 -116 -96q-82 -23 -170 -23q-98 0 -169 86q-68 81 -68 181q0 82 73 164.5t154 82.5q31 0 51.5 -23t20.5 -54q0 -44 -75 -81t-75 -89z" />
    <glyph glyph-name="uogonek" unicode="&#x173;" 
d="M955 584q0 -72 1 -216t1 -216q0 -22 3.5 -67t3.5 -67q0 -43 -29 -70.5t-71 -27.5q-77 0 -98 95q-125 -65 -288 -65q-131 0 -217 58q-95 64 -113 187q-39 265 -39 472q0 137 30 312q14 87 95 87q43 0 72 -27.5t29 -70.5q0 -46 -14.5 -147t-14.5 -154q0 -167 11 -286
t33 -191q33 -18 65 -27.5t63 -9.5q134 0 283 43l-1 203l-2 194q0 216 19 375q11 92 97 92q43 0 72 -28t27 -70zM747 -177q0 -36 26 -75q27 -43 62 -43q101 0 173 37q22 12 39 12q31 0 52.5 -24t21.5 -55q0 -63 -116 -96q-82 -23 -170 -23q-98 0 -169 86q-68 81 -68 181
q0 82 73 164.5t154 82.5q31 0 51.5 -23t20.5 -54q0 -44 -75 -81t-75 -89z" />
    </font>
</defs>
</svg>
